<?xml version="1.0" standalone="no"?>
<!DOCTYPE svg PUBLIC "-//W3C//DTD SVG 1.1//EN" "http://www.w3.org/Graphics/SVG/1.1/DTD/svg11.dtd" >
<svg xmlns="http://www.w3.org/2000/svg" xmlns:xlink="http://www.w3.org/1999/xlink" version="1.1">
<metadata>
Created by FontForge 20170731 at Wed Oct 12 08:51:57 2022
 By Aleksey,,,
Copyright (c) 2017 by Matthieu Salvaggio C Adele Type. All rights reserved.
</metadata>
<defs>
<font id="ATSurt-Light" horiz-adv-x="0" >
  <font-face 
    font-family="AT Surt Light"
    font-weight="300"
    font-stretch="normal"
    units-per-em="2048"
    panose-1="2 0 0 3 0 0 0 0 0 0"
    ascent="1556"
    descent="-492"
    x-height="1075"
    cap-height="1556"
    bbox="-1434 -1004 2791 2071"
    underline-thickness="102"
    underline-position="-307"
    unicode-range="U+0020-25CA"
  />
<missing-glyph horiz-adv-x="1398" 
d="M1243 0h-1087v1538h1087v-1538zM227 104l895 1362h-895v-1362zM276 72h895v1362z" />
    <glyph glyph-name=".notdef" horiz-adv-x="1398" 
d="M1243 0h-1087v1538h1087v-1538zM227 104l895 1362h-895v-1362zM276 72h895v1362z" />
    <glyph glyph-name=".null" 
 />
    <glyph glyph-name="nonmarkingreturn" horiz-adv-x="682" 
 />
    <glyph glyph-name="space" unicode=" " horiz-adv-x="546" 
 />
    <glyph glyph-name="exclam" unicode="!" horiz-adv-x="536" 
d="M356 387h-174v1169h174v-1169zM379 0h-221v211h221v-211z" />
    <glyph glyph-name="quotedbl" unicode="&#x22;" horiz-adv-x="868" 
d="M369 1538v-270l-39 -398h-82l-39 398v270h160zM657 1538v-270l-36 -398h-82l-39 398v270h157z" />
    <glyph glyph-name="numbersign" unicode="#" horiz-adv-x="1486" 
d="M92 596h277l82 350h-236v119h264l117 491h141l-116 -491h346l116 491h144l-119 -491h283v-119h-312l-80 -350h289v-119h-317l-113 -477h-143l114 477h-346l-114 -477h-142l113 477h-248v119zM592 946l-80 -350h346l80 350h-346z" />
    <glyph glyph-name="dollar" unicode="$" horiz-adv-x="1390" 
d="M1327 408q0 -201 -142.5 -306t-400.5 -110v-293h-174v301q-111 14 -201.5 51t-151 86.5t-103 113t-63 129t-25.5 136.5h159q19 -87 43.5 -144.5t68 -105t110 -73.5t163.5 -37v536q-62 12 -107 22.5t-97 25t-89 31.5t-75.5 39.5t-63.5 51t-46 63.5t-30.5 79.5t-9.5 97.5
q0 87 28 157.5t75.5 118t114.5 81t141 50t159 21.5v217h174v-219q115 -12 205 -51t147 -92.5t95 -125t54.5 -143t19.5 -153.5h-156q-21 208 -106 300t-259 111v-536q73 -15 126.5 -28t113.5 -32.5t102 -42t82.5 -54.5t65 -70.5t39 -89.5t14.5 -113zM250 1118
q0 -48 15.5 -83.5t41.5 -60t73.5 -44.5t99 -33t130.5 -29v502q-360 -8 -360 -252zM784 152q88 2 153.5 13t120.5 37t84 74t29 117q0 51 -18 90t-47.5 65.5t-81.5 47.5t-105.5 34.5t-134.5 28.5v-507z" />
    <glyph glyph-name="percent" unicode="%" horiz-adv-x="1976" 
d="M391 696q-73 0 -133 23.5t-102 64.5t-70.5 98t-41.5 122.5t-13 138.5q0 92 21.5 171t64 141.5t113 98t161.5 35.5q90 0 160 -35.5t113 -98t64.5 -141.5t21.5 -171t-21.5 -171.5t-64.5 -142t-113 -98t-160 -35.5zM541 -33h-138l945 1622h137zM389 811q113 0 172.5 93.5
t59.5 238.5t-59.5 238.5t-172.5 93.5t-171 -93.5t-58 -238.5t58 -238.5t171 -93.5zM1516 -18q-91 0 -162 36t-113.5 98.5t-64 141t-21.5 170.5t21.5 170.5t64 141t113.5 98.5t162 36q92 0 163 -36t113 -98.5t63 -141t21 -170.5t-21 -170.5t-63 -141t-113 -98.5t-163 -36z
M1516 104q114 0 171.5 92.5t57.5 231.5t-57.5 231.5t-171.5 92.5t-172 -92.5t-58 -231.5t58 -231.5t172 -92.5z" />
    <glyph glyph-name="ampersand" unicode="&#x26;" horiz-adv-x="1343" 
d="M1010 141q-69 -64 -179 -102.5t-231 -38.5q-236 0 -385 148t-149 374q0 177 95 310.5t251 193.5l-222 320v210h895v-159h-737l221 -320q138 31 312 31h86v-156h-86q-101 0 -224 -14l330 -494q42 132 39 318h168q1 -138 -25.5 -273t-70.5 -217l180 -272h-172zM600 154
q96 0 181.5 34t136.5 93l-422 614q-120 -43 -195.5 -140.5t-75.5 -230.5q0 -158 105.5 -264t269.5 -106z" />
    <glyph glyph-name="quotesingle" unicode="'" horiz-adv-x="579" 
d="M369 1538v-270l-39 -398h-82l-39 398v270h160z" />
    <glyph glyph-name="parenleft" unicode="(" horiz-adv-x="571" 
d="M375 -238q-522 844 0 1688h133q-460 -844 0 -1688h-133z" />
    <glyph glyph-name="parenright" unicode=")" horiz-adv-x="571" 
d="M63 -238q460 844 0 1688h134q522 -844 0 -1688h-134z" />
    <glyph glyph-name="asterisk" unicode="*" horiz-adv-x="1075" 
d="M109 1223l55 114l325 -166l-16 385h127l-16 -385l325 166l56 -114l-353 -146l277 -303l-96 -80l-256 324l-254 -324l-99 80l279 303z" />
    <glyph glyph-name="plus" unicode="+" horiz-adv-x="1155" 
d="M637 57h-121v412h-410v121h410v409h121v-409h412v-121h-412v-412z" />
    <glyph glyph-name="comma" unicode="," horiz-adv-x="432" 
d="M106 211h222v-211l-103 -211h-119l80 211h-80v211z" />
    <glyph glyph-name="hyphen" unicode="-" horiz-adv-x="1081" 
d="M950 612v-161h-819v161h819z" />
    <glyph glyph-name="period" unicode="." horiz-adv-x="432" 
d="M328 0h-222v211h222v-211z" />
    <glyph glyph-name="slash" unicode="/" horiz-adv-x="761" 
d="M174 -238h-154l568 1794h153z" />
    <glyph glyph-name="zero" unicode="0" horiz-adv-x="1501" 
d="M754 -33q-134 0 -242.5 44t-181 119t-121.5 179.5t-70.5 221t-21.5 247.5t21.5 247.5t70.5 221t121.5 179.5t181 119t242.5 44t241.5 -44t179 -119t119.5 -179.5t69 -221t21 -247.5t-21 -247.5t-69 -221t-119.5 -179.5t-179 -119t-241.5 -44zM750 137q95 0 172 33.5
t130 92t89 140t52.5 175t16.5 200.5t-16.5 200.5t-52.5 175t-89 140t-130 92t-172 33.5q-94 0 -171 -33.5t-130 -92t-89 -140t-52.5 -175.5t-16.5 -200t16.5 -200t52.5 -175.5t89 -140t130 -92t171 -33.5z" />
    <glyph glyph-name="one" unicode="1" horiz-adv-x="729" 
d="M55 1556h484v-1556h-174v1382h-310v174z" />
    <glyph glyph-name="two" unicode="2" horiz-adv-x="1449" 
d="M203 172q471 292 651 444q148 127 211 238.5t63 232.5q0 159 -101 248.5t-284 89.5q-214 0 -334 -115t-120 -300q0 -40 20 -123h-172q-20 79 -20 137q0 262 165 413.5t455 151.5q269 0 423.5 -132.5t154.5 -364.5q0 -165 -84 -310t-268 -299q-158 -133 -457 -311h829
v-174h-1132v174z" />
    <glyph glyph-name="three" unicode="3" horiz-adv-x="1449" 
d="M707 -33q-233 0 -389 93t-201 268h180q74 -197 426 -197q104 0 182.5 17.5t126.5 47t77.5 73t40.5 89.5t11 103q0 184 -125 268t-409 84h-125v182l491 383h-768v178h983v-194l-510 -385h35q282 0 442 -131t160 -377q0 -77 -16 -144t-59.5 -135t-111.5 -115.5t-181 -77.5
t-260 -30z" />
    <glyph glyph-name="four" unicode="4" horiz-adv-x="1419" 
d="M971 0h-174v354h-680v195l585 1007h191l-588 -1028h492v406h174v-406h332v-174h-332v-354z" />
    <glyph glyph-name="five" unicode="5" horiz-adv-x="1435" 
d="M686 -33q-237 0 -396.5 95t-172.5 245h188q7 -77 116.5 -125.5t258.5 -48.5q216 0 339.5 104.5t123.5 278.5q0 176 -119 284.5t-305 108.5q-139 0 -236.5 -63t-134.5 -162h-205l226 872h817v-178h-694l-107 -417q52 54 153 86t216 32q252 0 408.5 -156t156.5 -403
q0 -252 -170.5 -402.5t-462.5 -150.5z" />
    <glyph glyph-name="six" unicode="6" horiz-adv-x="1357" 
d="M672 -31q-555 0 -555 727q0 263 71.5 463.5t208 313t320.5 112.5q182 0 305.5 -99t140.5 -261h-188q-12 90 -87 145t-175 55q-173 0 -286 -166.5t-138 -443.5q71 111 182 172.5t256 61.5q230 0 373 -146.5t143 -384.5q0 -250 -154.5 -399.5t-416.5 -149.5zM688 133
q170 0 276.5 103t106.5 272q0 168 -106 270.5t-277 102.5t-277 -102t-106 -271t105.5 -272t277.5 -103z" />
    <glyph glyph-name="seven" unicode="7" horiz-adv-x="1187" 
d="M117 1556h956v-174l-667 -1382h-189l672 1382h-772v174z" />
    <glyph glyph-name="eight" unicode="8" horiz-adv-x="1441" 
d="M723 -37q-128 0 -232.5 29t-172.5 76t-114.5 110t-66.5 129t-20 135q0 282 286 389q-213 124 -213 318q0 80 32.5 155.5t95 138.5t167.5 101.5t238 38.5q110 0 201 -25t151 -66.5t101 -97t59 -114t18 -119.5q0 -205 -213 -330q285 -107 285 -389q0 -69 -19.5 -135
t-64.5 -129t-112.5 -110t-172 -76t-233.5 -29zM721 903q180 0 263 71.5t83 182.5q0 52 -18.5 97t-57 83t-108 60t-162.5 22t-163 -22t-110 -60t-59.5 -83.5t-19.5 -96.5q0 -110 85.5 -182t266.5 -72zM721 125q96 0 172 19.5t122.5 50t78 71.5t43.5 81.5t12 82.5q0 46 -12 87
t-43 81.5t-78 69.5t-122.5 47t-172.5 18q-118 0 -204 -24t-134 -67t-70 -95.5t-22 -116.5q0 -42 12 -82.5t43.5 -81.5t78.5 -71.5t123.5 -50t172.5 -19.5z" />
    <glyph glyph-name="nine" unicode="9" horiz-adv-x="1427" 
d="M678 -33q-224 0 -377 97.5t-176 257.5h188q12 -86 110 -139.5t247 -53.5q204 0 337.5 157.5t133.5 420.5v34q-79 -99 -216.5 -161t-277.5 -62q-153 0 -273.5 64.5t-189.5 187t-69 283.5q0 244 166.5 390t423.5 146q109 0 200 -25.5t167.5 -83t129 -144t82 -214
t29.5 -288.5q0 -194 -47 -356.5t-131 -274t-201.5 -174t-255.5 -62.5zM698 686q194 0 312 99t118 262q0 170 -118 273t-312 103q-191 0 -307.5 -103t-116.5 -273q0 -163 116.5 -262t307.5 -99z" />
    <glyph glyph-name="colon" unicode=":" horiz-adv-x="432" 
d="M328 844h-222v211h222v-211zM328 0h-222v211h222v-211z" />
    <glyph glyph-name="semicolon" unicode=";" horiz-adv-x="432" 
d="M328 844h-222v211h222v-211zM106 211h222v-211l-103 -211h-119l80 211h-80v211z" />
    <glyph glyph-name="less" unicode="&#x3c;" horiz-adv-x="1052" 
d="M920 1286v-143l-740 -496l740 -497v-150l-799 541v211z" />
    <glyph glyph-name="equal" unicode="=" horiz-adv-x="1417" 
d="M1180 717h-942v121h942v-121zM1180 268h-942v121h942v-121z" />
    <glyph glyph-name="greater" unicode="&#x3e;" horiz-adv-x="1050" 
d="M129 1143v143l801 -534v-211l-801 -541v150l739 497z" />
    <glyph glyph-name="question" unicode="?" horiz-adv-x="1144" 
d="M426 387q0 132 38 227t140 187q17 15 53 45t59.5 50t54 53.5t49 63t31.5 69.5t13 83q0 115 -80.5 187.5t-210.5 72.5q-151 0 -234.5 -99t-70.5 -269h-166q-19 240 113.5 386t364.5 146q205 0 330.5 -118t125.5 -310q0 -63 -15.5 -119t-38 -95t-60 -79.5t-67.5 -65.5
t-75 -61.5t-69 -58.5q-60 -56 -82.5 -103.5t-28.5 -119.5q-4 -35 -4 -109h-170v37zM621 0h-222v211h222v-211z" />
    <glyph glyph-name="at" unicode="@" horiz-adv-x="2230" 
d="M1270 -322q-336 0 -594 123.5t-398.5 347.5t-140.5 515q0 201 70 370t196 287.5t306.5 184t396.5 65.5q219 0 402.5 -69t311.5 -192.5t199.5 -302t71.5 -391.5q0 -283 -118.5 -457.5t-311.5 -174.5q-151 0 -248.5 106t-97.5 287q-76 -180 -281 -180q-174 0 -283.5 125
t-109.5 329q0 203 104 327t275 124q178 0 276 -129v100h195v-637q0 -133 49 -212t129 -79q98 0 160.5 125t62.5 318q0 364 -217 584.5t-571 220.5q-226 0 -399.5 -89.5t-270 -255t-96.5 -382.5q0 -236 115 -416t325.5 -278.5t487.5 -98.5h176v-195h-172zM1067 344
q100 0 160.5 77.5t60.5 203.5v45q0 127 -60 203.5t-161 76.5q-103 0 -167 -82t-64 -217q0 -138 64 -222.5t167 -84.5z" />
    <glyph glyph-name="A" unicode="A" horiz-adv-x="1546" 
d="M1489 0h-197l-180 471h-676l-182 -471h-197l617 1556h198zM504 649h540l-270 688z" />
    <glyph glyph-name="B" unicode="B" horiz-adv-x="1441" 
d="M739 1556q233 0 374.5 -106t141.5 -309q0 -109 -65 -194t-154 -113q117 -15 209 -124t92 -268q0 -206 -122 -324t-369 -118h-641v1556h534zM702 915q179 0 278 57t99 171q0 115 -82.5 181.5t-253.5 66.5h-360v-476h319zM784 166q172 0 274.5 73.5t102.5 217.5
q0 131 -101.5 206.5t-295.5 75.5h-381v-573h401z" />
    <glyph glyph-name="C" unicode="C" horiz-adv-x="1632" 
d="M846 -33q-214 0 -380 99t-258.5 282.5t-92.5 423.5q0 243 92 429t259.5 287t385.5 101q265 0 452.5 -158t227.5 -419h-186q-32 182 -172.5 291.5t-335.5 109.5q-240 0 -386.5 -173.5t-146.5 -461.5q0 -286 148.5 -460.5t388.5 -174.5q194 0 333 111t171 293h186
q-38 -262 -228 -421t-458 -159z" />
    <glyph glyph-name="D" unicode="D" horiz-adv-x="1564" 
d="M758 1556q158 0 286 -49t220.5 -145t143 -247t50.5 -347q0 -173 -39.5 -312.5t-118.5 -243t-205 -159.5t-292 -55l-598 2l2 1556h551zM764 176q232 0 369 154t137 450q0 134 -31 242.5t-92.5 189t-159 124.5t-223.5 44h-379v-1204h379z" />
    <glyph glyph-name="E" unicode="E" horiz-adv-x="1470" 
d="M205 0v1556h1028v-172h-850v-473h764v-178h-764v-561h885v-172h-1063z" />
    <glyph glyph-name="F" unicode="F" horiz-adv-x="1257" 
d="M1108 911v-178h-723v-733h-180v1556h1009v-172h-829v-473h723z" />
    <glyph glyph-name="G" unicode="G" horiz-adv-x="1671" 
d="M905 -33q-234 0 -413.5 101t-278 286t-98.5 426q0 363 202 586t529 223q268 0 456.5 -148.5t229.5 -393.5h-186q-35 165 -175.5 265.5t-334.5 100.5q-239 0 -385 -176t-146 -463q0 -283 166.5 -457t437.5 -174q133 0 255 51.5t188 135.5v272h-549v184h729v-530
q-91 -129 -264 -209t-363 -80z" />
    <glyph glyph-name="H" unicode="H" horiz-adv-x="1556" 
d="M1171 0v735h-786v-735h-180v1556h180v-645h786v645h181v-1556h-181z" />
    <glyph glyph-name="I" unicode="I" horiz-adv-x="497" 
d="M340 0h-182v1556h182v-1556z" />
    <glyph glyph-name="J" unicode="J" horiz-adv-x="1177" 
d="M559 -33q-233 0 -369 125t-153 361h180q41 -310 328 -310q69 0 118 16t81 57.5t50 85t27 128t11 154t2 194.5v778h186v-757q0 -89 -0.5 -139.5t-3.5 -128t-9.5 -122t-17.5 -106.5t-29 -98t-42.5 -80t-58.5 -68.5t-77.5 -47.5t-99.5 -32.5t-123 -9.5z" />
    <glyph glyph-name="K" unicode="K" horiz-adv-x="1349" 
d="M385 0h-180v1556h180v-716l647 716h230l-689 -759l719 -797h-231l-676 731v-731z" />
    <glyph glyph-name="L" unicode="L" horiz-adv-x="1249" 
d="M205 0v1556h178v-1384h829v-172h-1007z" />
    <glyph glyph-name="M" unicode="M" horiz-adv-x="1742" 
d="M870 209l469 1347h199v-1556h-178v1147l-387 -1147h-203l-387 1147v-1147h-178v1556h198z" />
    <glyph glyph-name="N" unicode="N" horiz-adv-x="1556" 
d="M1171 274v1282h181v-1556h-193l-774 1225v-1225h-180v1556h180z" />
    <glyph glyph-name="O" unicode="O" horiz-adv-x="1714" 
d="M860 -33q-219 0 -388 99.5t-263 284t-94 427.5t94 427.5t263 284t388 99.5q163 0 300 -58t234 -162.5t151 -256.5t54 -334t-54 -334t-151 -256.5t-234 -162.5t-300 -58zM858 143q249 0 401 173t152 462t-152 462t-401 173q-250 0 -402.5 -173t-152.5 -462t152.5 -462
t402.5 -173z" />
    <glyph glyph-name="P" unicode="P" horiz-adv-x="1359" 
d="M782 1556q221 0 347 -108t126 -320q0 -192 -118 -304.5t-351 -112.5h-403v-711h-178v1556h577zM745 877q159 0 246.5 64t87.5 192q0 120 -81.5 189t-252.5 69h-362v-514h362z" />
    <glyph glyph-name="Q" unicode="Q" horiz-adv-x="1714" 
d="M1599 778q0 -220 -76 -391.5t-214 -275.5l290 -246h-251l-189 160q-141 -58 -299 -58q-219 0 -388 99.5t-263 284t-94 427.5t94 427.5t263 284t388 99.5q163 0 300 -58t234 -162.5t151 -256.5t54 -334zM858 143q66 0 139 17l-270 227h250l184 -156q118 79 183 220t65 327
q0 289 -152 462t-399 173q-249 0 -401 -173t-152 -462t152 -462t401 -173z" />
    <glyph glyph-name="R" unicode="R" horiz-adv-x="1349" 
d="M739 1556q249 0 382.5 -100.5t133.5 -306.5q0 -180 -139 -285.5t-381 -101.5q-17 0 -59.5 1t-61.5 1l699 -764h-228l-702 768v-768h-178v1556h534zM778 922q79 0 145 24.5t110 78.5t44 130q0 110 -81.5 173t-252.5 63h-360v-469h395z" />
    <glyph glyph-name="S" unicode="S" horiz-adv-x="1366" 
d="M743 -33q-167 0 -296 43t-208 118.5t-121.5 169.5t-51.5 206h184q20 -84 56.5 -147.5t83.5 -104.5t110 -66t130.5 -35t149.5 -10q166 0 260.5 61.5t94.5 184.5q0 52 -18.5 94.5t-44 68.5t-66 48t-69.5 32t-69 21q-17 5 -154.5 38.5t-228.5 64.5q-62 21 -107.5 43
t-89 53.5t-70.5 69.5t-43.5 90.5t-16.5 117.5q0 99 33.5 179.5t88 132t127.5 86t147.5 49t152.5 14.5q258 0 401.5 -143.5t148.5 -376.5h-180q-7 82 -35 145t-66.5 99.5t-90.5 60t-100.5 31.5t-102.5 8q-38 0 -75.5 -4.5t-88 -20t-88 -42t-64 -75.5t-26.5 -114
q0 -88 46.5 -138.5t150.5 -88.5q27 -10 53 -18t43 -13t46 -11.5t40.5 -9.5t49.5 -11t52 -11q6 -2 21 -5q43 -10 70 -17.5t80.5 -26.5t89.5 -39t81 -55t72 -75.5t46 -99t19 -126.5q0 -230 -136.5 -337.5t-420.5 -107.5z" />
    <glyph glyph-name="T" unicode="T" horiz-adv-x="1251" 
d="M537 0v1384h-480v172h1135l2 -172h-477v-1384h-180z" />
    <glyph glyph-name="U" unicode="U" horiz-adv-x="1492" 
d="M778 -33q-114 0 -203.5 24t-149.5 61.5t-102 101.5t-65 123.5t-35 150.5t-15 160t-3 172v796h180v-811q0 -81 2.5 -139.5t12 -126t26 -113.5t46 -91t70.5 -72t100.5 -43.5t135.5 -16.5t135.5 16.5t100.5 43.5t70.5 72t46 91t26 113.5t12 126t2.5 139.5v811h181v-796
q0 -103 -3 -172.5t-15.5 -160t-35 -150.5t-65 -123.5t-102.5 -101t-149.5 -61.5t-203.5 -24z" />
    <glyph glyph-name="V" unicode="V" horiz-adv-x="1505" 
d="M754 219l512 1337h202l-616 -1556h-199l-616 1556h205z" />
    <glyph glyph-name="W" unicode="W" horiz-adv-x="2209" 
d="M569 219l418 1337h236l419 -1337l328 1337h203l-434 -1556h-197l-436 1368l-438 -1368h-197l-434 1556h205z" />
    <glyph glyph-name="X" unicode="X" horiz-adv-x="1357" 
d="M276 0h-219l514 784l-483 772h219l373 -616l371 616h221l-486 -772l514 -784h-219l-401 635z" />
    <glyph glyph-name="Y" unicode="Y" horiz-adv-x="1372" 
d="M260 1556l428 -847l426 847h207l-545 -1017v-539h-182v539l-543 1017h209z" />
    <glyph glyph-name="Z" unicode="Z" horiz-adv-x="1308" 
d="M88 0v172l856 1212h-835v172h1038l2 -172l-856 -1212h942v-172h-1147z" />
    <glyph glyph-name="bracketleft" unicode="[" horiz-adv-x="735" 
d="M666 -102v-136h-461v1688h461v-135h-312v-1417h312z" />
    <glyph glyph-name="backslash" unicode="\" horiz-adv-x="761" 
d="M174 1556l567 -1794h-153l-568 1794h154z" />
    <glyph glyph-name="bracketright" unicode="]" horiz-adv-x="735" 
d="M381 1315h-311v135h462v-1688h-462v136h311v1417z" />
    <glyph glyph-name="asciicircum" unicode="^" horiz-adv-x="974" 
d="M125 778l266 670h195l262 -670h-148l-211 594l-213 -594h-151z" />
    <glyph glyph-name="underscore" unicode="_" horiz-adv-x="1671" 
d="M1450 -272h-1229v129h1229v-129z" />
    <glyph glyph-name="grave" unicode="`" horiz-adv-x="559" 
d="M395 1198l-338 358h244l221 -358h-127z" />
    <glyph glyph-name="a" unicode="a" horiz-adv-x="1249" 
d="M457 -23q-83 0 -149 20t-108 52t-69.5 76t-39 88.5t-11.5 91.5q0 151 119 242q72 56 201 84t370 28h55v64q0 225 -252 225q-137 0 -199.5 -52t-66.5 -124h-172q1 37 10 73t28.5 75t53.5 71.5t81 58.5t116.5 41t153.5 15q78 0 140.5 -13.5t116.5 -46t89.5 -84t56 -131
t20.5 -184.5v-387q0 -75 23.5 -99t93.5 -20v-157h2q-112 -4 -186.5 42t-85.5 124h-2q-58 -74 -167 -123.5t-222 -49.5zM481 129q82 0 151 24t109.5 60t63 73.5t22.5 69.5v166h-65q-75 0 -135 -3.5t-121 -12t-105 -24.5t-79.5 -40t-53.5 -59.5t-18 -81.5q0 -80 58.5 -126
t172.5 -46z" />
    <glyph glyph-name="b" unicode="b" horiz-adv-x="1226" 
d="M666 1108q221 0 357 -156t136 -411q0 -258 -132.5 -416t-350.5 -158q-111 0 -217.5 47.5t-161.5 122.5v-137h-166v1556h174v-628q65 82 162 131t199 49zM651 125q149 0 240.5 113t91.5 297q0 189 -92 303t-244 114q-154 0 -248 -100t-94 -264v-127q0 -151 95.5 -243.5
t250.5 -92.5z" />
    <glyph glyph-name="c" unicode="c" horiz-adv-x="1126" 
d="M578 -33q-122 0 -220 44.5t-161 122t-96 181t-33 224.5q0 256 133.5 412.5t371.5 156.5q202 0 330.5 -111.5t140.5 -296.5h-172q-45 252 -297 252q-161 0 -246 -112t-85 -301q0 -190 84.5 -303t246.5 -113q117 0 193.5 61.5t103.5 155.5h172q-8 -68 -40.5 -132t-88 -119
t-143 -88.5t-194.5 -33.5z" />
    <glyph glyph-name="d" unicode="d" horiz-adv-x="1239" 
d="M952 0v137q-55 -75 -161 -122.5t-216 -47.5q-218 0 -350.5 158t-132.5 416q0 255 137 411t361 156q100 0 195.5 -48.5t160.5 -131.5v628h174v-1556h-168zM946 616q0 151 -93.5 242.5t-248.5 91.5q-152 0 -244 -111.5t-92 -295.5q0 -189 93 -303.5t247 -114.5
q153 0 245.5 99.5t92.5 264.5v127z" />
    <glyph glyph-name="e" unicode="e" horiz-adv-x="1126" 
d="M578 -33q-122 0 -220 44t-161 121.5t-96 182t-33 226.5q0 254 133.5 410.5t365.5 156.5q211 0 344 -127.5t133 -331.5v-178l-796 -2q14 -161 97.5 -253.5t227.5 -92.5q112 0 190.5 55t108.5 123h172q-6 -42 -27 -86.5t-60.5 -89.5t-91.5 -79.5t-127 -56.5t-160 -22z
M872 623q0 163 -86.5 246t-222.5 83q-134 0 -223.5 -83.5t-89.5 -245.5h622z" />
    <glyph glyph-name="f" unicode="f" horiz-adv-x="616" 
d="M43 1075h145v176q0 172 67.5 255t215.5 83q73 0 121 -12v-145q-30 6 -66 6q-86 0 -125 -35.5t-39 -114.5v-213h222v-147h-222v-928h-174v928h-145v147z" />
    <glyph glyph-name="g" unicode="g" horiz-adv-x="1226" 
d="M1098 53q0 -110 -17 -196.5t-50 -145.5t-75.5 -99.5t-99.5 -62.5t-115 -31.5t-129 -9.5q-209 0 -335 86t-168 275h176q54 -199 321 -199q178 0 248 100.5t70 327.5v64q-120 -195 -371 -195q-154 0 -265 76t-165.5 206t-54.5 300q0 117 27 215.5t82.5 177t148.5 122.5
t217 44q261 0 381 -203v170h174v-1022zM924 616q0 150 -97.5 242t-251.5 92q-166 0 -256 -110.5t-90 -296.5q0 -189 91.5 -303.5t259.5 -114.5q157 0 250.5 97.5t93.5 266.5v127z" />
    <glyph glyph-name="h" unicode="h" horiz-adv-x="1173" 
d="M305 913q61 102 160 148.5t203 46.5q177 0 282 -121t105 -309v-678h-174v637q0 145 -66 230t-188 85q-135 0 -228.5 -95.5t-93.5 -258.5v-598h-174v1556h174v-643z" />
    <glyph glyph-name="i" unicode="i" horiz-adv-x="458" 
d="M328 1364h-197v192h197v-192zM315 0h-174v1075h174v-1075z" />
    <glyph glyph-name="j" unicode="j" horiz-adv-x="475" 
d="M346 1364h-196v192h196v-192zM47 -492q-25 0 -54.5 3t-46.5 7l-16 3v162q23 -7 66 -7q87 0 125.5 31t38.5 98v1270h174v-1243q0 -161 -66.5 -242.5t-220.5 -81.5z" />
    <glyph glyph-name="k" unicode="k" horiz-adv-x="985" 
d="M305 0h-174v1556h174v-952l393 471h211l-442 -536l489 -539h-211l-440 496v-496z" />
    <glyph glyph-name="l" unicode="l" horiz-adv-x="436" 
d="M305 0h-174v1556h174v-1556z" />
    <glyph glyph-name="m" unicode="m" horiz-adv-x="1943" 
d="M1425 1108q182 0 280.5 -112.5t98.5 -338.5v-657h-174v662q0 86 -19.5 146t-55.5 90t-75 42t-89 12q-149 0 -242.5 -94.5t-93.5 -259.5v-598h-174v662q0 70 -13.5 122.5t-35.5 83.5t-54.5 50.5t-65 26.5t-71.5 7q-149 0 -242.5 -94.5t-93.5 -259.5v-598h-174v1075h174
v-162q119 195 371 195q255 0 340 -215q149 215 409 215z" />
    <glyph glyph-name="n" unicode="n" horiz-adv-x="1193" 
d="M305 913q61 102 160 148.5t203 46.5q177 0 282 -120t105 -308v-680h-174v637q0 145 -66 230t-188 85q-135 0 -228.5 -95.5t-93.5 -258.5v-598h-174v1075h174v-162z" />
    <glyph glyph-name="o" unicode="o" horiz-adv-x="1165" 
d="M584 -33q-150 0 -269 76.5t-183 206.5t-64 289q0 250 143.5 409.5t372.5 159.5q230 0 371 -159t141 -410q0 -159 -62.5 -289t-180.5 -206.5t-269 -76.5zM582 123q162 0 251 113.5t89 302.5q0 188 -89 300.5t-251 112.5t-250 -112.5t-88 -300.5q0 -189 88 -302.5
t250 -113.5z" />
    <glyph glyph-name="p" unicode="p" horiz-adv-x="1226" 
d="M666 1108q221 0 357 -156t136 -411q0 -258 -132.5 -416t-350.5 -158q-110 0 -212.5 47.5t-158.5 122.5v-629h-174v1567h168v-147q65 82 164.5 131t202.5 49zM651 125q149 0 240.5 113t91.5 297q0 189 -92 303t-244 114q-154 0 -248 -100t-94 -264v-127
q0 -151 95.5 -243.5t250.5 -92.5z" />
    <glyph glyph-name="q" unicode="q" horiz-adv-x="1257" 
d="M922 -492v629q-56 -75 -158.5 -122.5t-210.5 -47.5q-218 0 -351.5 158t-133.5 416q0 255 136 411t359 156q102 0 202 -49.5t163 -130.5v147h168v-1567h-174zM922 616q0 151 -95 242.5t-252 91.5q-149 0 -240 -111.5t-91 -295.5q0 -189 92 -303.5t244 -114.5
q155 0 248.5 100t93.5 264v127z" />
    <glyph glyph-name="r" unicode="r" horiz-adv-x="698" 
d="M295 883q63 124 194 184q76 35 195 35v-184h-45q-137 0 -235.5 -99.5t-98.5 -261.5v-557h-174v1075h164v-192z" />
    <glyph glyph-name="s" unicode="s" horiz-adv-x="1071" 
d="M592 -33q-105 0 -190 20t-143.5 55t-99.5 84.5t-61.5 105t-25.5 120.5h176q30 -130 116.5 -181.5t243.5 -51.5q98 0 153.5 40t55.5 120q0 40 -17 70t-50.5 50t-66.5 32t-81 24q-210 51 -284 82q-135 57 -172 156q-16 42 -17 95q-1 69 22.5 124t64 91t97 60t119 34.5
t133.5 10.5q183 0 286.5 -98.5t109.5 -261.5h-177q-5 61 -28 103.5t-58 63.5t-71 30t-78 9q-49 0 -86.5 -5.5t-77 -20t-61 -46.5t-21.5 -79q0 -74 60 -108.5t233 -71.5q156 -34 223 -66q168 -80 168 -262q0 -328 -395 -328z" />
    <glyph glyph-name="t" unicode="t" horiz-adv-x="673" 
d="M508 -20q-175 0 -248.5 72t-73.5 224v652h-147v129q94 0 125 41t31 143v111h165v-277h246v-147h-246v-621q0 -106 39.5 -145t141.5 -39q38 0 71 4v-141q-70 -6 -104 -6z" />
    <glyph glyph-name="u" unicode="u" horiz-adv-x="1153" 
d="M477 -33q-182 0 -280.5 112.5t-98.5 338.5v657h174v-661q0 -291 240 -291q150 0 243 94.5t93 259.5v598h174v-1075h-174v184q-114 -217 -371 -217z" />
    <glyph glyph-name="v" unicode="v" horiz-adv-x="1042" 
d="M475 346l45 -119h4l43 119l250 729h197l-410 -1075h-166l-409 1075h196z" />
    <glyph glyph-name="w" unicode="w" horiz-adv-x="1771" 
d="M520 227h4l258 848h207l260 -848h4l293 848h197l-412 -1075h-164l-278 870h-4l-281 -870h-166l-409 1075h196z" />
    <glyph glyph-name="x" unicode="x" horiz-adv-x="954" 
d="M721 0l-244 399l-244 -399h-204l344 539l-344 536h204l236 -409l252 409h205l-346 -536l346 -539h-205z" />
    <glyph glyph-name="y" unicode="y" horiz-adv-x="1042" 
d="M225 1075l258 -756l37 -98h4l37 98l256 756h197l-377 -973l-199 -594h-166l166 492l-409 1075h196z" />
    <glyph glyph-name="z" unicode="z" horiz-adv-x="1099" 
d="M66 0v154l731 768h-723v153h927l3 -153l-732 -768h770v-154h-976z" />
    <glyph glyph-name="braceleft" unicode="{" horiz-adv-x="655" 
d="M506 -238q-57 0 -102 12t-76.5 32t-54 53t-36 67.5t-21 83.5t-10.5 93t-3 104q-2 222 -19.5 267.5t-107.5 45.5v168q90 0 107.5 45.5t19.5 267.5q0 60 3 104t10.5 93t21 83.5t36 67.5t54 53t76.5 32t102 12h80v-127h-64q-41 0 -72.5 -13t-52 -32.5t-35.5 -54t-22.5 -65
t-12.5 -79.5t-6 -83t-2.5 -90t-3.5 -87q-5 -99 -28 -141.5t-97 -61.5v-16q75 -19 97.5 -61.5t27.5 -141.5q1 -29 2.5 -72t2.5 -73t3.5 -69.5t6 -67t10.5 -60t17 -54.5t25 -44t34.5 -35t46 -21t59.5 -8h64v-127h-80z" />
    <glyph glyph-name="bar" unicode="|" horiz-adv-x="649" 
d="M412 -492h-174v2048h174v-2048z" />
    <glyph glyph-name="braceright" unicode="}" horiz-adv-x="655" 
d="M131 -111q33 0 59.5 8t46 21t34.5 35t25 44t17 54.5t10.5 60t6 67t3.5 69.5t2.5 73t2.5 72q3 41 6 65.5t11 50t21 40t34 27t53 20.5v16q-39 10 -62.5 25t-36.5 41.5t-18 55.5t-8 81q-1 28 -2 77.5t-2.5 80t-4 75t-8.5 73.5t-15 63.5t-24.5 56t-35.5 41t-49.5 28.5
t-65.5 9h-63v127h82q57 0 102 -12t76.5 -32t53.5 -53t35 -67.5t21 -83.5t10.5 -93t2.5 -104q2 -222 19.5 -267.5t107.5 -45.5v-168q-90 0 -107.5 -45.5t-19.5 -267.5q0 -60 -2.5 -104t-10.5 -93t-21 -83.5t-35 -67.5t-53.5 -53t-76.5 -32t-102 -12h-82v127h63z" />
    <glyph glyph-name="asciitilde" unicode="~" horiz-adv-x="1372" 
d="M899 612q-56 0 -105 20.5t-84.5 49t-68 57.5t-69.5 49.5t-74 20.5q-22 0 -43.5 -6.5t-44 -22t-36.5 -47.5t-14 -76v-34h-122v30q0 115 71 193t187 78q56 0 106 -20.5t86.5 -50t70 -58.5t72 -49.5t78.5 -20.5q103 0 103 141v25h123v-21q0 -106 -60.5 -182t-175.5 -76z" />
    <glyph glyph-name="exclamdown" unicode="&#xa1;" horiz-adv-x="536" 
d="M379 1346h-221v210h221v-210zM356 0h-174v1169h174v-1169z" />
    <glyph glyph-name="cent" unicode="&#xa2;" horiz-adv-x="1036" 
d="M416 213q-166 37 -257 175.5t-91 334.5q0 199 91 334.5t257 171.5v215h192v-209q151 -23 244 -122t102 -245h-157q-42 228 -269 228q-147 0 -224 -101t-77 -272q0 -174 76 -275.5t225 -101.5q105 0 175.5 55.5t93.5 139.5h157q-15 -118 -105 -214.5t-241 -119.5v-207
h-192v213z" />
    <glyph glyph-name="sterling" unicode="&#xa3;" horiz-adv-x="1159" 
d="M66 156q57 5 125.5 38.5t128.5 86t99 126.5t36 150q-3 54 -29 105h-358v147h249q-86 103 -114 151q-53 89 -53 179q0 31 5.5 62t22 69t42 71t70.5 65t102.5 54.5t142 36.5t186.5 14q171 0 297 -49v-143q-139 57 -289 57q-53 0 -106 -6.5t-109.5 -24t-99 -44.5t-70 -71
t-27.5 -100q0 -38 18.5 -82t39 -73.5t62.5 -84t61 -81.5h444v-147h-362q24 -59 30 -130q3 -142 -75 -249t-173 -127v-4h760v-154h-1056v158z" />
    <glyph glyph-name="currency" unicode="&#xa4;" horiz-adv-x="1294" 
d="M231 442q-71 121 -71 287q0 161 65 279l-157 155l137 137l141 -141q125 86 281 86q180 0 305 -104l158 159l137 -137l-183 -184q50 -119 50 -250q0 -134 -56 -262l187 -188l-135 -136l-170 168q-125 -100 -293 -100q-155 0 -269 84l-153 -152l-137 136zM625 352
q149 0 229 102.5t80 274.5q0 170 -80 271.5t-229 101.5q-146 0 -226 -101.5t-80 -271.5q0 -171 80 -274t226 -103z" />
    <glyph glyph-name="yen" unicode="&#xa5;" horiz-adv-x="1460" 
d="M1110 498h-299v-121h299v-115h-299v-262h-162v262h-297v115h297v121h-297v114h234l-535 871h187l493 -817l492 817h186l-535 -871h236v-114z" />
    <glyph glyph-name="brokenbar" unicode="&#xa6;" horiz-adv-x="649" 
d="M412 727h-174v836h174v-836zM412 -492h-174v912h174v-912z" />
    <glyph glyph-name="section" unicode="&#xa7;" horiz-adv-x="1112" 
d="M856 403q79 -33 125.5 -96.5t46.5 -146.5q0 -135 -122.5 -224.5t-317.5 -89.5q-214 0 -359 106.5t-157 278.5h172q26 -105 117 -169t231 -64q113 0 189.5 40t76.5 103q0 121 -303 197q-43 11 -60.5 15t-63.5 17.5t-69.5 22.5t-64.5 26.5t-64 33.5t-52.5 40t-45 49
t-26.5 57.5t-11 68.5q0 80 46 146t120 97q-74 27 -120 90t-46 148q0 137 119 227t307 90q212 0 342.5 -116t141.5 -299h-172q-14 120 -98 191t-218 71q-110 0 -181 -43t-71 -103q0 -37 31.5 -70t81.5 -55t96.5 -36t93.5 -23q32 -6 58.5 -11.5t76 -19.5t89 -30t85 -43
t76.5 -58t51.5 -75t20.5 -95q0 -82 -48 -148.5t-124 -99.5zM268 705q0 -76 90.5 -134t235.5 -73q128 -13 196 17.5t68 96.5q0 75 -92.5 134.5t-228.5 74.5q-121 14 -195 -17.5t-74 -98.5z" />
    <glyph glyph-name="dieresis" unicode="&#xa8;" horiz-adv-x="851" 
d="M326 1384h-154v172h154v-172zM639 1384h-154v172h154v-172z" />
    <glyph glyph-name="copyright" unicode="&#xa9;" horiz-adv-x="1570" 
d="M784 254q-301 0 -485 184.5t-184 485.5t184 485t485 184t485.5 -184t184.5 -485t-184.5 -485.5t-485.5 -184.5zM784 319q273 0 439 167t166 438q0 272 -166 438t-439 166q-270 0 -436 -166.5t-166 -437.5q0 -270 166 -437.5t436 -167.5zM813 559q-150 0 -238 100t-88 265
q0 164 87 265t231 101q118 0 197 -68t85 -182h-65q-15 82 -75.5 131.5t-145.5 49.5q-111 0 -179.5 -82t-68.5 -215q0 -134 68.5 -214.5t185.5 -80.5q83 0 143 40t72 103h63q3 -92 -74.5 -152.5t-197.5 -60.5z" />
    <glyph glyph-name="guillemotleft" unicode="&#xab;" horiz-adv-x="1116" 
d="M434 88l-368 455l368 454h189l-369 -454l369 -455h-189zM862 88l-368 455l368 454h189l-369 -454l369 -455h-189z" />
    <glyph glyph-name="logicalnot" unicode="&#xac;" horiz-adv-x="1155" 
d="M106 594h943v-533h-121v412h-822v121z" />
    <glyph glyph-name="registered" unicode="&#xae;" horiz-adv-x="1101" 
d="M551 733q-197 0 -316.5 119.5t-119.5 316.5q0 198 119.5 318.5t316.5 120.5q195 0 314.5 -120.5t119.5 -318.5q0 -196 -119.5 -316t-314.5 -120zM551 797q169 0 274 102.5t105 269.5q0 169 -104.5 272t-274.5 103t-274.5 -103t-104.5 -272q0 -167 105 -269.5t274 -102.5z
M561 1384q60 0 100.5 -28t40.5 -94q0 -59 -37 -86t-116 -29l174 -186h-78l-172 186v-186h-59v423h147zM561 1200q80 0 80 62q0 65 -80 65h-88v-127h88z" />
    <glyph glyph-name="macron" unicode="&#xaf;" horiz-adv-x="958" 
d="M700 1475v-144h-639v144h639z" />
    <glyph glyph-name="degree" unicode="&#xb0;" horiz-adv-x="870" 
d="M436 1100q-110 0 -178 67t-68 176q0 110 68 178t178 68q109 0 175.5 -68t66.5 -178q0 -109 -66.5 -176t-175.5 -67zM436 1192q63 0 101 41t38 110t-38 110.5t-101 41.5q-64 0 -102.5 -41.5t-38.5 -110.5t38.5 -110t102.5 -41z" />
    <glyph glyph-name="plusminus" unicode="&#xb1;" horiz-adv-x="1157" 
d="M516 469h-410v121h410v409h121v-409h412v-121h-412v-348h414v-121h-942v121h407v348z" />
    <glyph glyph-name="uni00B2" unicode="&#xb2;" horiz-adv-x="798" 
d="M100 819q276 176 355 242q76 65 109.5 121t33.5 114q0 75 -50.5 117.5t-141.5 42.5q-101 0 -160.5 -55.5t-59.5 -155.5q0 -57 11 -94h-127q-11 49 -11 96q0 152 90.5 238t256.5 86q155 0 239 -72.5t84 -200.5q0 -84 -41.5 -156.5t-130.5 -150.5q-73 -65 -250 -172h432
v-125h-639v125z" />
    <glyph glyph-name="uni00B3" unicode="&#xb3;" horiz-adv-x="811" 
d="M397 678q-138 0 -226.5 55t-111.5 160h131q34 -102 211 -102q226 0 226 167q0 87 -63 128.5t-204 41.5h-88v113l267 191h-422v120h569v-137l-264 -184l14 2q146 0 230.5 -72t85.5 -203q0 -55 -18 -102.5t-57 -89t-110.5 -65t-169.5 -23.5z" />
    <glyph glyph-name="acute" unicode="&#xb4;" horiz-adv-x="559" 
d="M-4 1556h244l-338 -358h-127z" />
    <glyph glyph-name="paragraph" unicode="&#xb6;" horiz-adv-x="1529" 
d="M557 721q-40 0 -73 2.5t-79 12t-81.5 26t-73 48t-62.5 73.5t-41 106t-16 144q0 83 17 149t43.5 109.5t67 75.5t78 48.5t87 26t84.5 12t78 2.5h434v-1556h-182v721h-281zM1372 0h-182v1556h182v-1556z" />
    <glyph glyph-name="periodcentered" unicode="&#xb7;" horiz-adv-x="432" 
d="M328 428h-222v211h222v-211z" />
    <glyph glyph-name="cedilla" unicode="&#xb8;" horiz-adv-x="520" 
d="M250 -104q72 0 116 -36.5t44 -95.5q0 -68 -51.5 -110.5t-127.5 -42.5h-116v92h102q42 0 67 16t25 43q0 25 -25.5 39.5t-66.5 14.5h-82v80l137 149h107l-156 -149h27z" />
    <glyph glyph-name="uni00B9" unicode="&#xb9;" horiz-adv-x="425" 
d="M31 1552h295v-856h-125v734h-170v122z" />
    <glyph glyph-name="guillemotright" unicode="&#xbb;" horiz-adv-x="1116" 
d="M252 997l369 -454l-369 -455h-189l369 455l-369 454h189zM680 997l369 -454l-369 -455h-188l368 455l-368 454h188z" />
    <glyph glyph-name="onequarter" unicode="&#xbc;" horiz-adv-x="1591" 
d="M297 -33h-133l944 1622h133zM31 1556h299v-856h-129v727h-170v129zM1321 0h-123v180h-381v137l311 539h140l-314 -551h244v209h123v-209h168v-125h-168v-180z" />
    <glyph glyph-name="onehalf" unicode="&#xbd;" horiz-adv-x="1613" 
d="M297 -33h-133l944 1622h133zM31 1556h299v-856h-129v727h-170v129zM872 123q276 176 355 242q75 64 109 119.5t34 113.5q0 76 -50.5 119t-139.5 43q-102 0 -162 -55t-60 -150q0 -20 11 -68h-127q-11 45 -11 72q0 145 91 230t258 85q153 0 237 -73t84 -199
q0 -84 -41.5 -156.5t-130.5 -150.5q-72 -64 -250 -172h432v-125h-639v125z" />
    <glyph glyph-name="threequarters" unicode="&#xbe;" horiz-adv-x="1810" 
d="M559 -33h-133l944 1622h133zM397 680q-138 0 -226.5 55t-111.5 160h131q34 -102 211 -102q226 0 226 168q0 87 -63 128t-204 41h-88v113l267 191h-422v120h569v-133l-264 -188l14 2q146 0 230.5 -71.5t85.5 -202.5q0 -56 -18 -103.5t-57 -88.5t-110.5 -65t-169.5 -24z
M1583 0h-123v180h-381v137l312 539h139l-313 -551h243v209h123v-209h168v-125h-168v-180z" />
    <glyph glyph-name="questiondown" unicode="&#xbf;" horiz-adv-x="1144" 
d="M526 1556h219v-210h-219v210zM719 1169q0 -132 -38 -226.5t-140 -186.5q-17 -15 -53.5 -45.5t-59.5 -50.5t-54 -53t-49 -62.5t-31 -70t-13 -83.5q0 -115 80 -187.5t210 -72.5q151 0 235 99.5t71 269.5h165q19 -240 -113.5 -386.5t-363.5 -146.5q-205 0 -330.5 118
t-125.5 310q0 63 15.5 119t38 95t60 79.5t67.5 65.5t75 61.5t69 58.5q60 56 82.5 104t28.5 120q4 35 4 108h170v-37z" />
    <glyph glyph-name="Agrave" unicode="&#xc0;" horiz-adv-x="1546" 
d="M879 1679l-338 359h243l222 -359h-127zM1489 0h-197l-180 471h-676l-182 -471h-197l617 1556h198zM504 649h540l-270 688z" />
    <glyph glyph-name="Aacute" unicode="&#xc1;" horiz-adv-x="1546" 
d="M762 2038h244l-338 -359h-127zM1489 0h-197l-180 471h-676l-182 -471h-197l617 1556h198zM504 649h540l-270 688z" />
    <glyph glyph-name="Acircumflex" unicode="&#xc2;" horiz-adv-x="1546" 
d="M563 1679h-133l242 359h202l242 -359h-131l-211 244zM1489 0h-197l-180 471h-676l-182 -471h-197l617 1556h198zM504 649h540l-270 688z" />
    <glyph glyph-name="Atilde" unicode="&#xc3;" horiz-adv-x="1546" 
d="M639 1995q41 0 78.5 -20.5t61 -45t53 -45t55.5 -20.5q34 0 57 33.5t23 87.5h129q0 -129 -52.5 -196t-136.5 -67q-38 0 -71 14t-56 34t-43.5 40t-41.5 34t-42 14q-33 0 -53 -34.5t-20 -90.5h-129q0 114 53 188t135 74zM1489 0h-197l-180 471h-676l-182 -471h-197l617 1556
h198zM504 649h540l-270 688z" />
    <glyph glyph-name="Adieresis" unicode="&#xc4;" horiz-adv-x="1546" 
d="M694 1866h-153v172h153v-172zM1008 1866h-154v172h154v-172zM1489 0h-197l-180 471h-676l-182 -471h-197l617 1556h198zM504 649h540l-270 688z" />
    <glyph glyph-name="Aring" unicode="&#xc5;" horiz-adv-x="1546" 
d="M774 1729q-78 0 -125 46t-47 123q0 75 47 120.5t125 45.5q77 0 123.5 -45.5t46.5 -120.5q0 -76 -46.5 -122.5t-123.5 -46.5zM774 1821q34 0 55 20.5t21 54.5q0 35 -21 55.5t-55 20.5q-35 0 -56.5 -20.5t-21.5 -55.5q0 -34 21.5 -54.5t56.5 -20.5zM1489 0h-197l-180 471
h-676l-182 -471h-197l617 1556h198zM504 649h540l-270 688z" />
    <glyph glyph-name="AE" unicode="&#xc6;" horiz-adv-x="2390" 
d="M1122 0v465h-622l-238 -465h-205l791 1556h1304v-186h-843v-452h757v-187h-757v-545h878v-186h-1065zM1122 1370h-164l-364 -717h528v717z" />
    <glyph glyph-name="Ccedilla" unicode="&#xc7;" horiz-adv-x="1632" 
d="M842 143q194 0 333 111t171 293h186q-38 -259 -225 -418t-451 -162l-74 -71h27q72 0 116 -36.5t44 -95.5q0 -68 -51 -110.5t-127 -42.5h-117v92h102q42 0 67 16t25 43q0 25 -25.5 39.5t-66.5 14.5h-82v80l70 75q-293 28 -471 244.5t-178 556.5q0 243 92 429t259.5 287
t385.5 101q265 0 452.5 -158t227.5 -419h-186q-32 182 -172.5 291.5t-335.5 109.5q-240 0 -386.5 -173.5t-146.5 -461.5q0 -286 148.5 -460.5t388.5 -174.5z" />
    <glyph glyph-name="Egrave" unicode="&#xc8;" horiz-adv-x="1470" 
d="M840 1679l-338 359h243l222 -359h-127zM205 0v1556h1028v-172h-850v-473h764v-178h-764v-561h885v-172h-1063z" />
    <glyph glyph-name="Eacute" unicode="&#xc9;" horiz-adv-x="1470" 
d="M723 2038h244l-338 -359h-127zM205 0v1556h1028v-172h-850v-473h764v-178h-764v-561h885v-172h-1063z" />
    <glyph glyph-name="Ecircumflex" unicode="&#xca;" horiz-adv-x="1470" 
d="M524 1679h-133l242 359h203l241 -359h-131l-211 244zM205 0v1556h1028v-172h-850v-473h764v-178h-764v-561h885v-172h-1063z" />
    <glyph glyph-name="Edieresis" unicode="&#xcb;" horiz-adv-x="1470" 
d="M655 1866h-153v172h153v-172zM969 1866h-154v172h154v-172zM205 0v1556h1028v-172h-850v-473h764v-178h-764v-561h885v-172h-1063z" />
    <glyph glyph-name="Igrave" unicode="&#xcc;" horiz-adv-x="497" 
d="M350 1679l-338 359h244l221 -359h-127zM340 0h-182v1556h182v-1556z" />
    <glyph glyph-name="Iacute" unicode="&#xcd;" horiz-adv-x="497" 
d="M233 2038h244l-338 -359h-127zM340 0h-182v1556h182v-1556z" />
    <glyph glyph-name="Icircumflex" unicode="&#xce;" horiz-adv-x="497" 
d="M35 1679h-133l241 359h203l242 -359h-131l-211 244zM340 0h-182v1556h182v-1556z" />
    <glyph glyph-name="Idieresis" unicode="&#xcf;" horiz-adv-x="497" 
d="M164 1866h-154v172h154v-172zM477 1866h-153v172h153v-172zM340 0h-182v1556h182v-1556z" />
    <glyph glyph-name="Eth" unicode="&#xd0;" horiz-adv-x="1564" 
d="M758 1556q158 0 286 -49t220.5 -145t143 -247t50.5 -347q0 -173 -39.5 -312.5t-118.5 -243t-205 -159.5t-292 -55l-598 2v707h-144v141h146v708h551zM764 176q232 0 369 154t137 450q0 134 -31 242.5t-92.5 189t-159 124.5t-223.5 44h-379v-532h315v-141h-315v-531h379z
" />
    <glyph glyph-name="Ntilde" unicode="&#xd1;" horiz-adv-x="1556" 
d="M639 1995q41 0 78.5 -20.5t61 -45t53 -45t55.5 -20.5q34 0 57 33.5t23 87.5h129q0 -129 -52.5 -196t-136.5 -67q-38 0 -71 14t-56 34t-43.5 40t-41.5 34t-42 14q-33 0 -53 -34.5t-20 -90.5h-129q0 114 53 188t135 74zM1171 274v1282h181v-1556h-193l-774 1225v-1225h-180
v1556h180z" />
    <glyph glyph-name="Ograve" unicode="&#xd2;" horiz-adv-x="1714" 
d="M963 1679l-338 359h243l222 -359h-127zM860 -33q-219 0 -388 99.5t-263 284t-94 427.5t94 427.5t263 284t388 99.5q163 0 300 -58t234 -162.5t151 -256.5t54 -334t-54 -334t-151 -256.5t-234 -162.5t-300 -58zM858 143q249 0 401 173t152 462t-152 462t-401 173
q-250 0 -402.5 -173t-152.5 -462t152.5 -462t402.5 -173z" />
    <glyph glyph-name="Oacute" unicode="&#xd3;" horiz-adv-x="1714" 
d="M846 2038h244l-338 -359h-127zM860 -33q-219 0 -388 99.5t-263 284t-94 427.5t94 427.5t263 284t388 99.5q163 0 300 -58t234 -162.5t151 -256.5t54 -334t-54 -334t-151 -256.5t-234 -162.5t-300 -58zM858 143q249 0 401 173t152 462t-152 462t-401 173
q-250 0 -402.5 -173t-152.5 -462t152.5 -462t402.5 -173z" />
    <glyph glyph-name="Ocircumflex" unicode="&#xd4;" horiz-adv-x="1714" 
d="M647 1679h-133l242 359h202l242 -359h-131l-211 244zM860 -33q-219 0 -388 99.5t-263 284t-94 427.5t94 427.5t263 284t388 99.5q163 0 300 -58t234 -162.5t151 -256.5t54 -334t-54 -334t-151 -256.5t-234 -162.5t-300 -58zM858 143q249 0 401 173t152 462t-152 462
t-401 173q-250 0 -402.5 -173t-152.5 -462t152.5 -462t402.5 -173z" />
    <glyph glyph-name="Otilde" unicode="&#xd5;" horiz-adv-x="1714" 
d="M723 1995q41 0 78.5 -20.5t61 -45t53 -45t55.5 -20.5q34 0 57 33.5t23 87.5h129q0 -129 -52.5 -196t-136.5 -67q-38 0 -71 14t-56 34t-43.5 40t-41.5 34t-42 14q-33 0 -53 -34.5t-20 -90.5h-129q0 114 53 188t135 74zM860 -33q-219 0 -388 99.5t-263 284t-94 427.5
t94 427.5t263 284t388 99.5q163 0 300 -58t234 -162.5t151 -256.5t54 -334t-54 -334t-151 -256.5t-234 -162.5t-300 -58zM858 143q249 0 401 173t152 462t-152 462t-401 173q-250 0 -402.5 -173t-152.5 -462t152.5 -462t402.5 -173z" />
    <glyph glyph-name="Odieresis" unicode="&#xd6;" horiz-adv-x="1714" 
d="M778 1866h-153v172h153v-172zM1092 1866h-154v172h154v-172zM860 -33q-219 0 -388 99.5t-263 284t-94 427.5t94 427.5t263 284t388 99.5q163 0 300 -58t234 -162.5t151 -256.5t54 -334t-54 -334t-151 -256.5t-234 -162.5t-300 -58zM858 143q249 0 401 173t152 462
t-152 462t-401 173q-250 0 -402.5 -173t-152.5 -462t152.5 -462t402.5 -173z" />
    <glyph glyph-name="multiply" unicode="&#xd7;" horiz-adv-x="964" 
d="M190 152l-84 86l291 290l-291 291l87 84l288 -289l291 289l84 -84l-289 -291l291 -290l-84 -86l-293 292z" />
    <glyph glyph-name="Oslash" unicode="&#xd8;" horiz-adv-x="1714" 
d="M1341 1419q123 -107 190.5 -272t67.5 -369q0 -182 -54 -334t-151 -256.5t-234 -162.5t-300 -58q-215 0 -381 96l-114 -182h-154l164 256q-124 107 -192 271.5t-68 369.5q0 243 94 427.5t263 284t388 99.5q209 0 377 -94l115 180h153zM303 778q0 -305 172 -483l664 1044
q-121 74 -281 74q-250 0 -402.5 -173t-152.5 -462zM858 143q249 0 401 173t152 462q0 304 -170 482l-663 -1045q123 -72 280 -72z" />
    <glyph glyph-name="Ugrave" unicode="&#xd9;" horiz-adv-x="1492" 
d="M879 1679l-338 359h243l222 -359h-127zM778 -33q-114 0 -203.5 24t-149.5 61.5t-102 101.5t-65 123.5t-35 150.5t-15 160t-3 172v796h180v-811q0 -81 2.5 -139.5t12 -126t26 -113.5t46 -91t70.5 -72t100.5 -43.5t135.5 -16.5t135.5 16.5t100.5 43.5t70.5 72t46 91
t26 113.5t12 126t2.5 139.5v811h181v-796q0 -103 -3 -172.5t-15.5 -160t-35 -150.5t-65 -123.5t-102.5 -101t-149.5 -61.5t-203.5 -24z" />
    <glyph glyph-name="Uacute" unicode="&#xda;" horiz-adv-x="1492" 
d="M762 2038h244l-338 -359h-127zM778 -33q-114 0 -203.5 24t-149.5 61.5t-102 101.5t-65 123.5t-35 150.5t-15 160t-3 172v796h180v-811q0 -81 2.5 -139.5t12 -126t26 -113.5t46 -91t70.5 -72t100.5 -43.5t135.5 -16.5t135.5 16.5t100.5 43.5t70.5 72t46 91t26 113.5
t12 126t2.5 139.5v811h181v-796q0 -103 -3 -172.5t-15.5 -160t-35 -150.5t-65 -123.5t-102.5 -101t-149.5 -61.5t-203.5 -24z" />
    <glyph glyph-name="Ucircumflex" unicode="&#xdb;" horiz-adv-x="1492" 
d="M563 1679h-133l242 359h202l242 -359h-131l-211 244zM778 -33q-114 0 -203.5 24t-149.5 61.5t-102 101.5t-65 123.5t-35 150.5t-15 160t-3 172v796h180v-811q0 -81 2.5 -139.5t12 -126t26 -113.5t46 -91t70.5 -72t100.5 -43.5t135.5 -16.5t135.5 16.5t100.5 43.5t70.5 72
t46 91t26 113.5t12 126t2.5 139.5v811h181v-796q0 -103 -3 -172.5t-15.5 -160t-35 -150.5t-65 -123.5t-102.5 -101t-149.5 -61.5t-203.5 -24z" />
    <glyph glyph-name="Udieresis" unicode="&#xdc;" horiz-adv-x="1492" 
d="M698 1866h-153v172h153v-172zM1012 1866h-154v172h154v-172zM778 -33q-114 0 -203.5 24t-149.5 61.5t-102 101.5t-65 123.5t-35 150.5t-15 160t-3 172v796h180v-811q0 -81 2.5 -139.5t12 -126t26 -113.5t46 -91t70.5 -72t100.5 -43.5t135.5 -16.5t135.5 16.5t100.5 43.5
t70.5 72t46 91t26 113.5t12 126t2.5 139.5v811h181v-796q0 -103 -3 -172.5t-15.5 -160t-35 -150.5t-65 -123.5t-102.5 -101t-149.5 -61.5t-203.5 -24z" />
    <glyph glyph-name="Yacute" unicode="&#xdd;" horiz-adv-x="1372" 
d="M676 2038h244l-338 -359h-127zM260 1556l428 -847l426 847h207l-545 -1017v-539h-182v539l-543 1017h209z" />
    <glyph glyph-name="Thorn" unicode="&#xde;" horiz-adv-x="1359" 
d="M719 1225q62 0 109.5 -3t106 -13t101.5 -28t86.5 -50t71 -76t44.5 -110t17 -148q0 -80 -16 -143.5t-42.5 -107t-67.5 -75t-82.5 -49t-97.5 -27.5t-102 -13t-106 -3h-352v-379h-184v1556h184v-331h330zM725 567q139 0 197 17q131 40 138 195q1 11 1 22q0 171 -133 214
q-64 19 -203 19h-336v-467h336z" />
    <glyph glyph-name="germandbls" unicode="&#xdf;" horiz-adv-x="1288" 
d="M940 668q51 -27 82 -45.5t70.5 -50.5t61 -64t37 -79t15.5 -103q0 -151 -95.5 -255t-264.5 -104q-119 0 -209.5 55t-136.5 140.5t-51 187.5h176q22 -104 85 -166.5t150 -62.5q82 0 131 55.5t49 132.5q0 21 -4.5 40.5t-10.5 34.5t-19.5 31t-22.5 26.5t-30.5 24.5
t-31.5 20.5t-37 20t-37 18t-40 18.5q-66 31 -108 55.5t-83.5 58t-61 73.5t-19.5 89q0 54 24.5 104.5t59.5 90t70.5 77.5t60 80t24.5 84q0 71 -63.5 118.5t-173.5 47.5q-61 0 -105.5 -16.5t-68.5 -40.5t-37.5 -59t-17 -62.5t-3.5 -60.5v-1182h-174v1192q0 86 24 157t72 125.5
t126.5 84.5t181.5 30q189 0 300 -94t111 -240q0 -65 -23.5 -124.5t-57 -101t-66.5 -77t-56.5 -67t-23.5 -54.5q0 -12 4.5 -23t17 -22.5t24 -20.5t34.5 -22t39.5 -21.5t49 -25.5t52.5 -28z" />
    <glyph glyph-name="agrave" unicode="&#xe0;" horiz-adv-x="1249" 
d="M688 1198l-338 358h244l221 -358h-127zM457 -23q-83 0 -149 20t-108 52t-69.5 76t-39 88.5t-11.5 91.5q0 151 119 242q72 56 201 84t370 28h55v64q0 225 -252 225q-137 0 -199.5 -52t-66.5 -124h-172q1 37 10 73t28.5 75t53.5 71.5t81 58.5t116.5 41t153.5 15
q78 0 140.5 -13.5t116.5 -46t89.5 -84t56 -131t20.5 -184.5v-387q0 -75 23.5 -99t93.5 -20v-157h2q-112 -4 -186.5 42t-85.5 124h-2q-58 -74 -167 -123.5t-222 -49.5zM481 129q82 0 151 24t109.5 60t63 73.5t22.5 69.5v166h-65q-75 0 -135 -3.5t-121 -12t-105 -24.5
t-79.5 -40t-53.5 -59.5t-18 -81.5q0 -80 58.5 -126t172.5 -46z" />
    <glyph glyph-name="aacute" unicode="&#xe1;" horiz-adv-x="1249" 
d="M571 1556h244l-338 -358h-127zM457 -23q-83 0 -149 20t-108 52t-69.5 76t-39 88.5t-11.5 91.5q0 151 119 242q72 56 201 84t370 28h55v64q0 225 -252 225q-137 0 -199.5 -52t-66.5 -124h-172q1 37 10 73t28.5 75t53.5 71.5t81 58.5t116.5 41t153.5 15q78 0 140.5 -13.5
t116.5 -46t89.5 -84t56 -131t20.5 -184.5v-387q0 -75 23.5 -99t93.5 -20v-157h2q-112 -4 -186.5 42t-85.5 124h-2q-58 -74 -167 -123.5t-222 -49.5zM481 129q82 0 151 24t109.5 60t63 73.5t22.5 69.5v166h-65q-75 0 -135 -3.5t-121 -12t-105 -24.5t-79.5 -40t-53.5 -59.5
t-18 -81.5q0 -80 58.5 -126t172.5 -46z" />
    <glyph glyph-name="acircumflex" unicode="&#xe2;" horiz-adv-x="1249" 
d="M373 1198h-133l241 358h203l242 -358h-131l-211 244zM457 -23q-83 0 -149 20t-108 52t-69.5 76t-39 88.5t-11.5 91.5q0 151 119 242q72 56 201 84t370 28h55v64q0 225 -252 225q-137 0 -199.5 -52t-66.5 -124h-172q1 37 10 73t28.5 75t53.5 71.5t81 58.5t116.5 41
t153.5 15q78 0 140.5 -13.5t116.5 -46t89.5 -84t56 -131t20.5 -184.5v-387q0 -75 23.5 -99t93.5 -20v-157h2q-112 -4 -186.5 42t-85.5 124h-2q-58 -74 -167 -123.5t-222 -49.5zM481 129q82 0 151 24t109.5 60t63 73.5t22.5 69.5v166h-65q-75 0 -135 -3.5t-121 -12
t-105 -24.5t-79.5 -40t-53.5 -59.5t-18 -81.5q0 -80 58.5 -126t172.5 -46z" />
    <glyph glyph-name="atilde" unicode="&#xe3;" horiz-adv-x="1249" 
d="M449 1513q41 0 78.5 -20.5t60.5 -45t52.5 -45t55.5 -20.5q34 0 57 33.5t23 87.5h129q0 -129 -52 -195.5t-136 -66.5q-38 0 -71 14t-56 33.5t-43.5 39.5t-41.5 34t-42 14q-34 0 -54 -34.5t-20 -90.5h-129q0 114 53.5 188t135.5 74zM457 -23q-83 0 -149 20t-108 52
t-69.5 76t-39 88.5t-11.5 91.5q0 151 119 242q72 56 201 84t370 28h55v64q0 225 -252 225q-137 0 -199.5 -52t-66.5 -124h-172q1 37 10 73t28.5 75t53.5 71.5t81 58.5t116.5 41t153.5 15q78 0 140.5 -13.5t116.5 -46t89.5 -84t56 -131t20.5 -184.5v-387q0 -75 23.5 -99
t93.5 -20v-157h2q-112 -4 -186.5 42t-85.5 124h-2q-58 -74 -167 -123.5t-222 -49.5zM481 129q82 0 151 24t109.5 60t63 73.5t22.5 69.5v166h-65q-75 0 -135 -3.5t-121 -12t-105 -24.5t-79.5 -40t-53.5 -59.5t-18 -81.5q0 -80 58.5 -126t172.5 -46z" />
    <glyph glyph-name="adieresis" unicode="&#xe4;" horiz-adv-x="1249" 
d="M500 1384h-154v172h154v-172zM813 1384h-154v172h154v-172zM457 -23q-83 0 -149 20t-108 52t-69.5 76t-39 88.5t-11.5 91.5q0 151 119 242q72 56 201 84t370 28h55v64q0 225 -252 225q-137 0 -199.5 -52t-66.5 -124h-172q1 37 10 73t28.5 75t53.5 71.5t81 58.5t116.5 41
t153.5 15q78 0 140.5 -13.5t116.5 -46t89.5 -84t56 -131t20.5 -184.5v-387q0 -75 23.5 -99t93.5 -20v-157h2q-112 -4 -186.5 42t-85.5 124h-2q-58 -74 -167 -123.5t-222 -49.5zM481 129q82 0 151 24t109.5 60t63 73.5t22.5 69.5v166h-65q-75 0 -135 -3.5t-121 -12
t-105 -24.5t-79.5 -40t-53.5 -59.5t-18 -81.5q0 -80 58.5 -126t172.5 -46z" />
    <glyph glyph-name="aring" unicode="&#xe5;" horiz-adv-x="1249" 
d="M584 1247q-78 0 -125 46.5t-47 123.5q0 75 47 120.5t125 45.5q77 0 123.5 -45.5t46.5 -120.5q0 -77 -47 -123.5t-123 -46.5zM584 1339q34 0 54.5 21t20.5 55q0 35 -20.5 55.5t-54.5 20.5q-35 0 -56.5 -20.5t-21.5 -55.5q0 -34 21.5 -55t56.5 -21zM457 -23q-83 0 -149 20
t-108 52t-69.5 76t-39 88.5t-11.5 91.5q0 151 119 242q72 56 201 84t370 28h55v64q0 225 -252 225q-137 0 -199.5 -52t-66.5 -124h-172q1 37 10 73t28.5 75t53.5 71.5t81 58.5t116.5 41t153.5 15q78 0 140.5 -13.5t116.5 -46t89.5 -84t56 -131t20.5 -184.5v-387
q0 -75 23.5 -99t93.5 -20v-157h2q-112 -4 -186.5 42t-85.5 124h-2q-58 -74 -167 -123.5t-222 -49.5zM481 129q82 0 151 24t109.5 60t63 73.5t22.5 69.5v166h-65q-75 0 -135 -3.5t-121 -12t-105 -24.5t-79.5 -40t-53.5 -59.5t-18 -81.5q0 -80 58.5 -126t172.5 -46z" />
    <glyph glyph-name="ae" unicode="&#xe6;" horiz-adv-x="1906" 
d="M489 -33q-96 0 -170 21t-118 54t-72 78t-38.5 88.5t-10.5 90.5q0 52 12.5 98.5t49.5 97t96 86.5t160.5 59.5t234.5 23.5h215q0 50 -5.5 88t-23 76.5t-46.5 62.5t-79 39.5t-119 15.5q-137 0 -202 -54t-68 -140h-180q2 53 16.5 101.5t48 96t84 82t131 55.5t181.5 21
q279 0 383 -168q139 168 387 168q208 0 333 -127t138 -377v-129l-2 -4l-797 -2q14 -161 98.5 -253.5t231.5 -92.5q124 0 203 64t92 159h174q-1 -67 -33.5 -133.5t-89.5 -121.5t-146 -89.5t-192 -34.5q-147 0 -258 65t-158 161q-135 -226 -461 -226zM1653 633
q-22 172 -98 245.5t-197 73.5q-137 0 -220.5 -84t-107.5 -235h623zM502 131q167 0 257.5 67t90.5 185v135h-225q-371 0 -371 -213q0 -88 59.5 -131t188.5 -43z" />
    <glyph glyph-name="ccedilla" unicode="&#xe7;" horiz-adv-x="1126" 
d="M575 123q117 0 193.5 61.5t103.5 155.5h172q-8 -67 -39.5 -130.5t-85.5 -118t-139 -88.5t-188 -36l-76 -71h27q72 0 115.5 -36.5t43.5 -95.5q0 -68 -51 -110.5t-127 -42.5h-116v92h102q42 0 67 16t25 43q0 25 -25.5 39.5t-66.5 14.5h-82v80l70 75q-138 18 -236.5 98.5
t-146 200.5t-47.5 269q0 256 133.5 412.5t371.5 156.5q202 0 330.5 -111.5t140.5 -296.5h-172q-45 252 -297 252q-161 0 -246 -112t-85 -301q0 -190 84.5 -303t246.5 -113z" />
    <glyph glyph-name="egrave" unicode="&#xe8;" horiz-adv-x="1126" 
d="M659 1198l-337 358h243l221 -358h-127zM578 -33q-122 0 -220 44t-161 121.5t-96 182t-33 226.5q0 254 133.5 410.5t365.5 156.5q211 0 344 -127.5t133 -331.5v-178l-796 -2q14 -161 97.5 -253.5t227.5 -92.5q112 0 190.5 55t108.5 123h172q-6 -42 -27 -86.5t-60.5 -89.5
t-91.5 -79.5t-127 -56.5t-160 -22zM872 623q0 163 -86.5 246t-222.5 83q-134 0 -223.5 -83.5t-89.5 -245.5h622z" />
    <glyph glyph-name="eacute" unicode="&#xe9;" horiz-adv-x="1126" 
d="M543 1556h243l-337 -358h-127zM578 -33q-122 0 -220 44t-161 121.5t-96 182t-33 226.5q0 254 133.5 410.5t365.5 156.5q211 0 344 -127.5t133 -331.5v-178l-796 -2q14 -161 97.5 -253.5t227.5 -92.5q112 0 190.5 55t108.5 123h172q-6 -42 -27 -86.5t-60.5 -89.5
t-91.5 -79.5t-127 -56.5t-160 -22zM872 623q0 163 -86.5 246t-222.5 83q-134 0 -223.5 -83.5t-89.5 -245.5h622z" />
    <glyph glyph-name="ecircumflex" unicode="&#xea;" horiz-adv-x="1126" 
d="M344 1198h-133l242 358h202l242 -358h-131l-211 244zM578 -33q-122 0 -220 44t-161 121.5t-96 182t-33 226.5q0 254 133.5 410.5t365.5 156.5q211 0 344 -127.5t133 -331.5v-178l-796 -2q14 -161 97.5 -253.5t227.5 -92.5q112 0 190.5 55t108.5 123h172q-6 -42 -27 -86.5
t-60.5 -89.5t-91.5 -79.5t-127 -56.5t-160 -22zM872 623q0 163 -86.5 246t-222.5 83q-134 0 -223.5 -83.5t-89.5 -245.5h622z" />
    <glyph glyph-name="edieresis" unicode="&#xeb;" horiz-adv-x="1126" 
d="M477 1384h-153v172h153v-172zM791 1384h-154v172h154v-172zM578 -33q-122 0 -220 44t-161 121.5t-96 182t-33 226.5q0 254 133.5 410.5t365.5 156.5q211 0 344 -127.5t133 -331.5v-178l-796 -2q14 -161 97.5 -253.5t227.5 -92.5q112 0 190.5 55t108.5 123h172
q-6 -42 -27 -86.5t-60.5 -89.5t-91.5 -79.5t-127 -56.5t-160 -22zM872 623q0 163 -86.5 246t-222.5 83q-134 0 -223.5 -83.5t-89.5 -245.5h622z" />
    <glyph glyph-name="igrave" unicode="&#xec;" horiz-adv-x="493" 
d="M352 1198l-338 358h244l221 -358h-127zM334 0h-174v1075h174v-1075z" />
    <glyph glyph-name="iacute" unicode="&#xed;" horiz-adv-x="493" 
d="M236 1556h243l-338 -358h-127zM334 0h-174v1075h174v-1075z" />
    <glyph glyph-name="icircumflex" unicode="&#xee;" horiz-adv-x="493" 
d="M37 1198h-133l241 358h203l242 -358h-131l-211 244zM334 0h-174v1075h174v-1075z" />
    <glyph glyph-name="idieresis" unicode="&#xef;" horiz-adv-x="493" 
d="M166 1384h-154v172h154v-172zM479 1384h-153v172h153v-172zM334 0h-174v1075h174v-1075z" />
    <glyph glyph-name="eth" unicode="&#xf0;" horiz-adv-x="1181" 
d="M801 1346q149 -156 231 -353t82 -418q0 -278 -137.5 -443t-370.5 -165q-158 0 -276 75t-178 200.5t-60 281.5q0 242 138 405t335 163q201 0 293 -103q-61 132 -211 285l-264 -127l-82 125l234 108q-99 92 -218 176h220q93 -58 151 -104l221 104l78 -120zM590 119
q161 0 251.5 112t90.5 293q0 183 -90.5 294.5t-251.5 111.5q-158 0 -242 -109.5t-84 -296.5t84 -296t242 -109z" />
    <glyph glyph-name="ntilde" unicode="&#xf1;" horiz-adv-x="1193" 
d="M453 1513q41 0 78.5 -20.5t60.5 -45t52.5 -45t55.5 -20.5q34 0 57 33.5t23 87.5h129q0 -129 -52 -195.5t-136 -66.5q-38 0 -71 14t-56 33.5t-43.5 39.5t-41.5 34t-42 14q-34 0 -54 -34.5t-20 -90.5h-129q0 114 53.5 188t135.5 74zM305 913q61 102 160 148.5t203 46.5
q177 0 282 -120t105 -308v-680h-174v637q0 145 -66 230t-188 85q-135 0 -228.5 -95.5t-93.5 -258.5v-598h-174v1075h174v-162z" />
    <glyph glyph-name="ograve" unicode="&#xf2;" horiz-adv-x="1165" 
d="M686 1198l-338 358h244l221 -358h-127zM584 -33q-150 0 -269 76.5t-183 206.5t-64 289q0 250 143.5 409.5t372.5 159.5q230 0 371 -159t141 -410q0 -159 -62.5 -289t-180.5 -206.5t-269 -76.5zM582 123q162 0 251 113.5t89 302.5q0 188 -89 300.5t-251 112.5t-250 -112.5
t-88 -300.5q0 -189 88 -302.5t250 -113.5z" />
    <glyph glyph-name="oacute" unicode="&#xf3;" horiz-adv-x="1165" 
d="M569 1556h244l-338 -358h-127zM584 -33q-150 0 -269 76.5t-183 206.5t-64 289q0 250 143.5 409.5t372.5 159.5q230 0 371 -159t141 -410q0 -159 -62.5 -289t-180.5 -206.5t-269 -76.5zM582 123q162 0 251 113.5t89 302.5q0 188 -89 300.5t-251 112.5t-250 -112.5
t-88 -300.5q0 -189 88 -302.5t250 -113.5z" />
    <glyph glyph-name="ocircumflex" unicode="&#xf4;" horiz-adv-x="1165" 
d="M371 1198h-133l241 358h203l242 -358h-131l-211 244zM584 -33q-150 0 -269 76.5t-183 206.5t-64 289q0 250 143.5 409.5t372.5 159.5q230 0 371 -159t141 -410q0 -159 -62.5 -289t-180.5 -206.5t-269 -76.5zM582 123q162 0 251 113.5t89 302.5q0 188 -89 300.5
t-251 112.5t-250 -112.5t-88 -300.5q0 -189 88 -302.5t250 -113.5z" />
    <glyph glyph-name="otilde" unicode="&#xf5;" horiz-adv-x="1165" 
d="M446 1513q41 0 78.5 -20.5t61 -45t53 -45t55.5 -20.5q34 0 57 33.5t23 87.5h129q0 -129 -52 -195.5t-136 -66.5q-38 0 -71 14t-56 33.5t-43.5 39.5t-41.5 34t-42 14q-34 0 -54 -34.5t-20 -90.5h-129q0 114 53 188t135 74zM584 -33q-150 0 -269 76.5t-183 206.5t-64 289
q0 250 143.5 409.5t372.5 159.5q230 0 371 -159t141 -410q0 -159 -62.5 -289t-180.5 -206.5t-269 -76.5zM582 123q162 0 251 113.5t89 302.5q0 188 -89 300.5t-251 112.5t-250 -112.5t-88 -300.5q0 -189 88 -302.5t250 -113.5z" />
    <glyph glyph-name="odieresis" unicode="&#xf6;" horiz-adv-x="1165" 
d="M502 1384h-154v172h154v-172zM815 1384h-153v172h153v-172zM584 -33q-150 0 -269 76.5t-183 206.5t-64 289q0 250 143.5 409.5t372.5 159.5q230 0 371 -159t141 -410q0 -159 -62.5 -289t-180.5 -206.5t-269 -76.5zM582 123q162 0 251 113.5t89 302.5q0 188 -89 300.5
t-251 112.5t-250 -112.5t-88 -300.5q0 -189 88 -302.5t250 -113.5z" />
    <glyph glyph-name="divide" unicode="&#xf7;" horiz-adv-x="1200" 
d="M705 838h-222v217h222v-217zM1065 594v-133h-942v133h942zM705 0h-222v217h222v-217z" />
    <glyph glyph-name="oslash" unicode="&#xf8;" horiz-adv-x="1216" 
d="M965 952q143 -159 143 -413q0 -159 -62.5 -289t-180.5 -206.5t-269 -76.5q-124 0 -227 53l-148 -233h-153l194 305q-87 78 -134.5 194.5t-47.5 252.5q0 250 143.5 409.5t372.5 159.5q146 0 268 -72l131 207h154zM256 539q0 -200 94 -310l428 672q-79 51 -184 51
q-162 0 -250 -112.5t-88 -300.5zM934 539q0 159 -66 266l-415 -653q66 -29 141 -29q162 0 251 113.5t89 302.5z" />
    <glyph glyph-name="ugrave" unicode="&#xf9;" horiz-adv-x="1153" 
d="M666 1198l-338 358h243l222 -358h-127zM477 -33q-182 0 -280.5 112.5t-98.5 338.5v657h174v-661q0 -291 240 -291q150 0 243 94.5t93 259.5v598h174v-1075h-174v184q-114 -217 -371 -217z" />
    <glyph glyph-name="uacute" unicode="&#xfa;" horiz-adv-x="1153" 
d="M549 1556h244l-338 -358h-127zM477 -33q-182 0 -280.5 112.5t-98.5 338.5v657h174v-661q0 -291 240 -291q150 0 243 94.5t93 259.5v598h174v-1075h-174v184q-114 -217 -371 -217z" />
    <glyph glyph-name="ucircumflex" unicode="&#xfb;" horiz-adv-x="1153" 
d="M350 1198h-133l242 358h203l241 -358h-131l-211 244zM477 -33q-182 0 -280.5 112.5t-98.5 338.5v657h174v-661q0 -291 240 -291q150 0 243 94.5t93 259.5v598h174v-1075h-174v184q-114 -217 -371 -217z" />
    <glyph glyph-name="udieresis" unicode="&#xfc;" horiz-adv-x="1153" 
d="M485 1384h-153v172h153v-172zM799 1384h-154v172h154v-172zM477 -33q-182 0 -280.5 112.5t-98.5 338.5v657h174v-661q0 -291 240 -291q150 0 243 94.5t93 259.5v598h174v-1075h-174v184q-114 -217 -371 -217z" />
    <glyph glyph-name="yacute" unicode="&#xfd;" horiz-adv-x="1042" 
d="M510 1556h244l-338 -358h-127zM225 1075l258 -756l37 -98h4l37 98l256 756h197l-377 -973l-199 -594h-166l166 492l-409 1075h196z" />
    <glyph glyph-name="thorn" unicode="&#xfe;" horiz-adv-x="1226" 
d="M666 1108q221 0 357 -156t136 -411q0 -258 -132.5 -416t-350.5 -158q-110 0 -212.5 47.5t-158.5 122.5v-629h-174v2048h168v-628q65 82 164.5 131t202.5 49zM651 125q149 0 240.5 113t91.5 297q0 189 -92 303t-244 114q-154 0 -248 -100t-94 -264v-127
q0 -151 95.5 -243.5t250.5 -92.5z" />
    <glyph glyph-name="ydieresis" unicode="&#xff;" horiz-adv-x="1042" 
d="M446 1384h-153v172h153v-172zM760 1384h-154v172h154v-172zM225 1075l258 -756l37 -98h4l37 98l256 756h197l-377 -973l-199 -594h-166l166 492l-409 1075h196z" />
    <glyph glyph-name="Amacron" unicode="&#x100;" horiz-adv-x="1546" 
d="M1094 1956v-144h-639v144h639zM1489 0h-197l-180 471h-676l-182 -471h-197l617 1556h198zM504 649h540l-270 688z" />
    <glyph glyph-name="amacron" unicode="&#x101;" horiz-adv-x="1249" 
d="M903 1475v-144h-639v144h639zM457 -23q-83 0 -149 20t-108 52t-69.5 76t-39 88.5t-11.5 91.5q0 151 119 242q72 56 201 84t370 28h55v64q0 225 -252 225q-137 0 -199.5 -52t-66.5 -124h-172q1 37 10 73t28.5 75t53.5 71.5t81 58.5t116.5 41t153.5 15q78 0 140.5 -13.5
t116.5 -46t89.5 -84t56 -131t20.5 -184.5v-387q0 -75 23.5 -99t93.5 -20v-157h2q-112 -4 -186.5 42t-85.5 124h-2q-58 -74 -167 -123.5t-222 -49.5zM481 129q82 0 151 24t109.5 60t63 73.5t22.5 69.5v166h-65q-75 0 -135 -3.5t-121 -12t-105 -24.5t-79.5 -40t-53.5 -59.5
t-18 -81.5q0 -80 58.5 -126t172.5 -46z" />
    <glyph glyph-name="Abreve" unicode="&#x102;" horiz-adv-x="1546" 
d="M1141 2038q0 -161 -100.5 -260t-266.5 -99t-267 99t-101 260h153q0 -97 59 -155t156 -58t155 58t58 155h154zM1489 0h-197l-180 471h-676l-182 -471h-197l617 1556h198zM504 649h540l-270 688z" />
    <glyph glyph-name="abreve" unicode="&#x103;" horiz-adv-x="1249" 
d="M950 1556q0 -161 -100 -259.5t-266 -98.5t-267.5 98.5t-101.5 259.5h154q0 -97 59 -155t156 -58t155 58t58 155h153zM457 -23q-83 0 -149 20t-108 52t-69.5 76t-39 88.5t-11.5 91.5q0 151 119 242q72 56 201 84t370 28h55v64q0 225 -252 225q-137 0 -199.5 -52
t-66.5 -124h-172q1 37 10 73t28.5 75t53.5 71.5t81 58.5t116.5 41t153.5 15q78 0 140.5 -13.5t116.5 -46t89.5 -84t56 -131t20.5 -184.5v-387q0 -75 23.5 -99t93.5 -20v-157h2q-112 -4 -186.5 42t-85.5 124h-2q-58 -74 -167 -123.5t-222 -49.5zM481 129q82 0 151 24
t109.5 60t63 73.5t22.5 69.5v166h-65q-75 0 -135 -3.5t-121 -12t-105 -24.5t-79.5 -40t-53.5 -59.5t-18 -81.5q0 -80 58.5 -126t172.5 -46z" />
    <glyph glyph-name="Aogonek" unicode="&#x104;" horiz-adv-x="1546" 
d="M1227 -199q0 -43 34.5 -66.5t100.5 -23.5q34 0 61 4v-121q-41 -6 -96 -6q-115 0 -173 55t-58 126q0 19 4.5 38t11 35t18 32.5t20.5 28.5t24.5 26.5t25 23t26 20t23 16t20.5 14t15 9.5h4l-176 459h-676l-182 -471h-197l617 1556h198l617 -1556h-127q-135 -109 -135 -199z
M504 649h540l-270 688z" />
    <glyph glyph-name="aogonek" unicode="&#x105;" horiz-adv-x="1249" 
d="M1012 -6q-129 -108 -129 -195q0 -43 34.5 -66.5t100.5 -23.5q34 0 61 4v-121q-41 -6 -96 -6q-115 0 -173 55t-58 126q0 19 4.5 38t11 35t18 32.5t20.5 28.5t24.5 26.5t25 23t26 20t23 16t20.5 14t15 9.5h23q-103 45 -115 140h-2q-58 -74 -167 -123.5t-222 -49.5
q-83 0 -149 20t-108 52t-69.5 76t-39 88.5t-11.5 91.5q0 151 119 242q72 56 201 84t370 28h55v64q0 225 -252 225q-137 0 -199.5 -52t-66.5 -124h-172q1 37 10 73t28.5 75t53.5 71.5t81 58.5t116.5 41t153.5 15q78 0 140.5 -13.5t116.5 -46t89.5 -84t56 -131t20.5 -184.5
v-387q0 -75 23.5 -99t93.5 -20v-157h2q-55 -3 -108 10zM762 522q-75 0 -135 -3.5t-121 -12t-105 -24.5t-79.5 -40t-53.5 -59.5t-18 -81.5q0 -80 58.5 -126t172.5 -46q82 0 151 24t109.5 60t63 73.5t22.5 69.5v166h-65z" />
    <glyph glyph-name="Cacute" unicode="&#x106;" horiz-adv-x="1632" 
d="M809 2038h244l-338 -359h-127zM846 -33q-214 0 -380 99t-258.5 282.5t-92.5 423.5q0 243 92 429t259.5 287t385.5 101q265 0 452.5 -158t227.5 -419h-186q-32 182 -172.5 291.5t-335.5 109.5q-240 0 -386.5 -173.5t-146.5 -461.5q0 -286 148.5 -460.5t388.5 -174.5
q194 0 333 111t171 293h186q-38 -262 -228 -421t-458 -159z" />
    <glyph glyph-name="cacute" unicode="&#x107;" horiz-adv-x="1126" 
d="M543 1556h243l-337 -358h-127zM578 -33q-122 0 -220 44.5t-161 122t-96 181t-33 224.5q0 256 133.5 412.5t371.5 156.5q202 0 330.5 -111.5t140.5 -296.5h-172q-45 252 -297 252q-161 0 -246 -112t-85 -301q0 -190 84.5 -303t246.5 -113q117 0 193.5 61.5t103.5 155.5
h172q-8 -68 -40.5 -132t-88 -119t-143 -88.5t-194.5 -33.5z" />
    <glyph glyph-name="Cdotaccent" unicode="&#x10a;" horiz-adv-x="1632" 
d="M821 1810q-56 0 -94.5 38.5t-38.5 93.5q0 54 38.5 91.5t94.5 37.5q53 0 92 -38t39 -91q0 -55 -39 -93.5t-92 -38.5zM846 -33q-214 0 -380 99t-258.5 282.5t-92.5 423.5q0 243 92 429t259.5 287t385.5 101q265 0 452.5 -158t227.5 -419h-186q-32 182 -172.5 291.5
t-335.5 109.5q-240 0 -386.5 -173.5t-146.5 -461.5q0 -286 148.5 -460.5t388.5 -174.5q194 0 333 111t171 293h186q-38 -262 -228 -421t-458 -159z" />
    <glyph glyph-name="cdotaccent" unicode="&#x10b;" horiz-adv-x="1126" 
d="M555 1329q-56 0 -94.5 38t-38.5 93q0 54 38.5 91.5t94.5 37.5q53 0 92 -38t39 -91q0 -55 -39 -93t-92 -38zM578 -33q-122 0 -220 44.5t-161 122t-96 181t-33 224.5q0 256 133.5 412.5t371.5 156.5q202 0 330.5 -111.5t140.5 -296.5h-172q-45 252 -297 252
q-161 0 -246 -112t-85 -301q0 -190 84.5 -303t246.5 -113q117 0 193.5 61.5t103.5 155.5h172q-8 -68 -40.5 -132t-88 -119t-143 -88.5t-194.5 -33.5z" />
    <glyph glyph-name="Ccaron" unicode="&#x10c;" horiz-adv-x="1632" 
d="M477 2038h133l211 -244l211 244h131l-241 -359h-203zM846 -33q-214 0 -380 99t-258.5 282.5t-92.5 423.5q0 243 92 429t259.5 287t385.5 101q265 0 452.5 -158t227.5 -419h-186q-32 182 -172.5 291.5t-335.5 109.5q-240 0 -386.5 -173.5t-146.5 -461.5
q0 -286 148.5 -460.5t388.5 -174.5q194 0 333 111t171 293h186q-38 -262 -228 -421t-458 -159z" />
    <glyph glyph-name="ccaron" unicode="&#x10d;" horiz-adv-x="1126" 
d="M211 1556h133l211 -243l211 243h131l-242 -358h-202zM578 -33q-122 0 -220 44.5t-161 122t-96 181t-33 224.5q0 256 133.5 412.5t371.5 156.5q202 0 330.5 -111.5t140.5 -296.5h-172q-45 252 -297 252q-161 0 -246 -112t-85 -301q0 -190 84.5 -303t246.5 -113
q117 0 193.5 61.5t103.5 155.5h172q-8 -68 -40.5 -132t-88 -119t-143 -88.5t-194.5 -33.5z" />
    <glyph glyph-name="Dcaron" unicode="&#x10e;" horiz-adv-x="1564" 
d="M436 2038h133l211 -244l211 244h131l-241 -359h-203zM758 1556q158 0 286 -49t220.5 -145t143 -247t50.5 -347q0 -173 -39.5 -312.5t-118.5 -243t-205 -159.5t-292 -55l-598 2l2 1556h551zM764 176q232 0 369 154t137 450q0 134 -31 242.5t-92.5 189t-159 124.5
t-223.5 44h-379v-1204h379z" />
    <glyph glyph-name="dcaron" unicode="&#x10f;" horiz-adv-x="1204" 
d="M948 0v137q-55 -75 -161 -122.5t-216 -47.5q-218 0 -350.5 158t-132.5 416q0 255 137 411t361 156q100 0 195.5 -48.5t160.5 -131.5v628h174v-1556h-168zM1300 1556h197l-215 -358h-80zM942 616q0 151 -93.5 242.5t-248.5 91.5q-152 0 -244 -111.5t-92 -295.5
q0 -189 93 -303.5t247 -114.5q153 0 245.5 99.5t92.5 264.5v127z" />
    <glyph glyph-name="Dcroat" unicode="&#x110;" horiz-adv-x="1564" 
d="M758 1556q158 0 286 -49t220.5 -145t143 -247t50.5 -347q0 -173 -39.5 -312.5t-118.5 -243t-205 -159.5t-292 -55l-598 2v707h-144v141h146v708h551zM764 176q232 0 369 154t137 450q0 134 -31 242.5t-92.5 189t-159 124.5t-223.5 44h-379v-532h315v-141h-315v-531h379z
" />
    <glyph glyph-name="dcroat" unicode="&#x111;" horiz-adv-x="1239" 
d="M1120 0h-168v137q-55 -75 -161 -122.5t-216 -47.5q-218 0 -350.5 158t-132.5 416q0 255 137 411t361 156q100 0 195.5 -48.5t160.5 -131.5v264h-237v141h237v223h174v-223h228v-141h-228v-1192zM946 616q0 151 -93.5 242.5t-248.5 91.5q-152 0 -244 -111.5t-92 -295.5
q0 -189 93 -303.5t247 -114.5q153 0 245.5 99.5t92.5 264.5v127z" />
    <glyph glyph-name="Emacron" unicode="&#x112;" horiz-adv-x="1470" 
d="M1055 1956v-144h-639v144h639zM205 0v1556h1028v-172h-850v-473h764v-178h-764v-561h885v-172h-1063z" />
    <glyph glyph-name="emacron" unicode="&#x113;" horiz-adv-x="1126" 
d="M874 1475v-144h-638v144h638zM578 -33q-122 0 -220 44t-161 121.5t-96 182t-33 226.5q0 254 133.5 410.5t365.5 156.5q211 0 344 -127.5t133 -331.5v-178l-796 -2q14 -161 97.5 -253.5t227.5 -92.5q112 0 190.5 55t108.5 123h172q-6 -42 -27 -86.5t-60.5 -89.5
t-91.5 -79.5t-127 -56.5t-160 -22zM872 623q0 163 -86.5 246t-222.5 83q-134 0 -223.5 -83.5t-89.5 -245.5h622z" />
    <glyph glyph-name="Edotaccent" unicode="&#x116;" horiz-adv-x="1470" 
d="M735 1810q-56 0 -94.5 38.5t-38.5 93.5q0 54 38.5 91.5t94.5 37.5q53 0 92 -38t39 -91q0 -55 -39 -93.5t-92 -38.5zM205 0v1556h1028v-172h-850v-473h764v-178h-764v-561h885v-172h-1063z" />
    <glyph glyph-name="edotaccent" unicode="&#x117;" horiz-adv-x="1126" 
d="M555 1329q-56 0 -94.5 38t-38.5 93q0 54 38.5 91.5t94.5 37.5q53 0 92 -38t39 -91q0 -55 -39 -93t-92 -38zM578 -33q-122 0 -220 44t-161 121.5t-96 182t-33 226.5q0 254 133.5 410.5t365.5 156.5q211 0 344 -127.5t133 -331.5v-178l-796 -2q14 -161 97.5 -253.5
t227.5 -92.5q112 0 190.5 55t108.5 123h172q-6 -42 -27 -86.5t-60.5 -89.5t-91.5 -79.5t-127 -56.5t-160 -22zM872 623q0 163 -86.5 246t-222.5 83q-134 0 -223.5 -83.5t-89.5 -245.5h622z" />
    <glyph glyph-name="Eogonek" unicode="&#x118;" horiz-adv-x="1470" 
d="M1241 -289q35 0 62 4v-121q-40 -6 -97 -6q-115 0 -173 55t-58 126q0 40 17 77.5t49 68.5t53 48t51 37h-940v1556h1028v-172h-850v-473h764v-178h-764v-561h885v-172h-27q-135 -109 -135 -199q0 -43 34.5 -66.5t100.5 -23.5z" />
    <glyph glyph-name="eogonek" unicode="&#x119;" horiz-adv-x="1169" 
d="M248 469q14 -161 97.5 -253.5t227.5 -92.5q112 0 190.5 55t108.5 123h172q-7 -50 -36 -102.5t-77.5 -101.5t-126 -84t-169.5 -44q-100 -92 -100 -168q0 -43 34.5 -66.5t100.5 -23.5q34 0 61 4v-121q-40 -6 -96 -6q-115 0 -173.5 55t-58.5 126q0 106 125 200
q-219 17 -339.5 175.5t-120.5 396.5q0 254 133.5 410.5t365.5 156.5q211 0 344 -127.5t133 -331.5v-178zM872 623q0 163 -86.5 246t-222.5 83q-134 0 -223.5 -83.5t-89.5 -245.5h622z" />
    <glyph glyph-name="Ecaron" unicode="&#x11a;" horiz-adv-x="1470" 
d="M391 2038h133l211 -244l211 244h131l-241 -359h-203zM205 0v1556h1028v-172h-850v-473h764v-178h-764v-561h885v-172h-1063z" />
    <glyph glyph-name="ecaron" unicode="&#x11b;" horiz-adv-x="1126" 
d="M211 1556h133l211 -243l211 243h131l-242 -358h-202zM578 -33q-122 0 -220 44t-161 121.5t-96 182t-33 226.5q0 254 133.5 410.5t365.5 156.5q211 0 344 -127.5t133 -331.5v-178l-796 -2q14 -161 97.5 -253.5t227.5 -92.5q112 0 190.5 55t108.5 123h172q-6 -42 -27 -86.5
t-60.5 -89.5t-91.5 -79.5t-127 -56.5t-160 -22zM872 623q0 163 -86.5 246t-222.5 83q-134 0 -223.5 -83.5t-89.5 -245.5h622z" />
    <glyph glyph-name="Gbreve" unicode="&#x11e;" horiz-adv-x="1671" 
d="M1227 2038q0 -161 -100.5 -260t-266.5 -99t-267 99t-101 260h153q0 -97 59 -155t156 -58t155 58t58 155h154zM905 -33q-234 0 -413.5 101t-278 286t-98.5 426q0 363 202 586t529 223q268 0 456.5 -148.5t229.5 -393.5h-186q-35 165 -175.5 265.5t-334.5 100.5
q-239 0 -385 -176t-146 -463q0 -283 166.5 -457t437.5 -174q133 0 255 51.5t188 135.5v272h-549v184h729v-530q-91 -129 -264 -209t-363 -80z" />
    <glyph glyph-name="gbreve" unicode="&#x11f;" horiz-adv-x="1226" 
d="M973 1556q0 -161 -100.5 -259.5t-266.5 -98.5t-267 98.5t-101 259.5h153q0 -97 59 -155t156 -58t155 58t58 155h154zM1098 53q0 -110 -17 -196.5t-50 -145.5t-75.5 -99.5t-99.5 -62.5t-115 -31.5t-129 -9.5q-209 0 -335 86t-168 275h176q54 -199 321 -199
q178 0 248 100.5t70 327.5v64q-120 -195 -371 -195q-154 0 -265 76t-165.5 206t-54.5 300q0 117 27 215.5t82.5 177t148.5 122.5t217 44q261 0 381 -203v170h174v-1022zM924 616q0 150 -97.5 242t-251.5 92q-166 0 -256 -110.5t-90 -296.5q0 -189 91.5 -303.5t259.5 -114.5
q157 0 250.5 97.5t93.5 266.5v127z" />
    <glyph glyph-name="Gdotaccent" unicode="&#x120;" horiz-adv-x="1671" 
d="M860 1810q-56 0 -94.5 38.5t-38.5 93.5q0 54 38.5 91.5t94.5 37.5q53 0 92 -38t39 -91q0 -55 -39 -93.5t-92 -38.5zM905 -33q-234 0 -413.5 101t-278 286t-98.5 426q0 363 202 586t529 223q268 0 456.5 -148.5t229.5 -393.5h-186q-35 165 -175.5 265.5t-334.5 100.5
q-239 0 -385 -176t-146 -463q0 -283 166.5 -457t437.5 -174q133 0 255 51.5t188 135.5v272h-549v184h729v-530q-91 -129 -264 -209t-363 -80z" />
    <glyph glyph-name="gdotaccent" unicode="&#x121;" horiz-adv-x="1226" 
d="M606 1329q-56 0 -94.5 38t-38.5 93q0 54 38.5 91.5t94.5 37.5q53 0 92 -38t39 -91q0 -55 -39 -93t-92 -38zM1098 53q0 -110 -17 -196.5t-50 -145.5t-75.5 -99.5t-99.5 -62.5t-115 -31.5t-129 -9.5q-209 0 -335 86t-168 275h176q54 -199 321 -199q178 0 248 100.5
t70 327.5v64q-120 -195 -371 -195q-154 0 -265 76t-165.5 206t-54.5 300q0 117 27 215.5t82.5 177t148.5 122.5t217 44q261 0 381 -203v170h174v-1022zM924 616q0 150 -97.5 242t-251.5 92q-166 0 -256 -110.5t-90 -296.5q0 -189 91.5 -303.5t259.5 -114.5q157 0 250.5 97.5
t93.5 266.5v127z" />
    <glyph glyph-name="Gcommaaccent" unicode="&#x122;" horiz-adv-x="1671" 
d="M905 -33q-234 0 -413.5 101t-278 286t-98.5 426q0 363 202 586t529 223q268 0 456.5 -148.5t229.5 -393.5h-186q-35 165 -175.5 265.5t-334.5 100.5q-239 0 -385 -176t-146 -463q0 -283 166.5 -457t437.5 -174q133 0 255 51.5t188 135.5v272h-549v184h729v-530
q-91 -129 -264 -209t-363 -80zM844 -492h-96l69 349h156z" />
    <glyph glyph-name="gcommaaccent" unicode="&#x123;" horiz-adv-x="1226" 
d="M717 1198h-221v211l102 213h119l-82 -213h82v-211zM1098 53q0 -110 -17 -196.5t-50 -145.5t-75.5 -99.5t-99.5 -62.5t-115 -31.5t-129 -9.5q-209 0 -335 86t-168 275h176q54 -199 321 -199q178 0 248 100.5t70 327.5v64q-120 -195 -371 -195q-154 0 -265 76t-165.5 206
t-54.5 300q0 117 27 215.5t82.5 177t148.5 122.5t217 44q261 0 381 -203v170h174v-1022zM924 616q0 150 -97.5 242t-251.5 92q-166 0 -256 -110.5t-90 -296.5q0 -189 91.5 -303.5t259.5 -114.5q157 0 250.5 97.5t93.5 266.5v127z" />
    <glyph glyph-name="Hbar" unicode="&#x126;" horiz-adv-x="1556" 
d="M1352 0h-181v735h-786v-735h-180v1112h-64v141h64v303h180v-303h786v303h181v-303h63v-141h-63v-1112zM385 911h786v201h-786v-201z" />
    <glyph glyph-name="hbar" unicode="&#x127;" horiz-adv-x="1173" 
d="M668 1108q177 0 282 -121t105 -309v-678h-174v637q0 145 -66 230t-188 85q-135 0 -228.5 -95.5t-93.5 -258.5v-598h-174v1210h-139v142h139v204h174v-204h326v-142h-326v-297q61 102 160 148.5t203 46.5z" />
    <glyph glyph-name="Imacron" unicode="&#x12a;" horiz-adv-x="497" 
d="M565 1956v-144h-639v144h639zM340 0h-182v1556h182v-1556z" />
    <glyph glyph-name="imacron" unicode="&#x12b;" horiz-adv-x="493" 
d="M567 1475v-144h-639v144h639zM334 0h-174v1075h174v-1075z" />
    <glyph glyph-name="Iogonek" unicode="&#x12e;" horiz-adv-x="497" 
d="M324 -289q34 0 61 4v-121q-41 -6 -96 -6q-115 0 -173.5 55t-58.5 126q0 40 17 77.5t49 68.5t53 48t51 37h-69v1556h182v-1556h-16q-136 -109 -136 -199q0 -43 35 -66.5t101 -23.5z" />
    <glyph glyph-name="iogonek" unicode="&#x12f;" horiz-adv-x="458" 
d="M131 1556h197v-192h-197v192zM283 -289q34 0 61 4v-121q-41 -6 -96 -6q-115 0 -173.5 55t-58.5 126q0 40 17 77.5t49 68.5t53 48t51 37h-45v1075h174v-1075h-32q-136 -109 -136 -199q0 -43 35 -66.5t101 -23.5z" />
    <glyph glyph-name="Idotaccent" unicode="&#x130;" horiz-adv-x="497" 
d="M246 1810q-56 0 -94.5 38.5t-38.5 93.5q0 54 38.5 91.5t94.5 37.5q53 0 92 -38t39 -91q0 -55 -39 -93.5t-92 -38.5zM340 0h-182v1556h182v-1556z" />
    <glyph glyph-name="dotlessi" unicode="&#x131;" horiz-adv-x="493" 
d="M334 0h-174v1075h174v-1075z" />
    <glyph glyph-name="Kcommaaccent" unicode="&#x136;" horiz-adv-x="1349" 
d="M385 731v-731h-180v1556h180v-716l647 716h230l-689 -759l719 -797h-231zM639 -492h-96l69 349h156z" />
    <glyph glyph-name="kcommaaccent" unicode="&#x137;" horiz-adv-x="985" 
d="M305 496v-496h-174v1556h174v-952l393 471h211l-442 -536l489 -539h-211zM461 -492h-96l69 349h156z" />
    <glyph glyph-name="Lacute" unicode="&#x139;" horiz-adv-x="1249" 
d="M612 2038h244l-338 -359h-127zM205 0v1556h178v-1384h829v-172h-1007z" />
    <glyph glyph-name="lacute" unicode="&#x13a;" horiz-adv-x="436" 
d="M207 1995h244l-338 -359h-127zM305 0h-174v1556h174v-1556z" />
    <glyph glyph-name="Lcommaaccent" unicode="&#x13b;" horiz-adv-x="1249" 
d="M205 0v1556h178v-1384h829v-172h-1007zM608 -492h-96l70 349h155z" />
    <glyph glyph-name="lcommaaccent" unicode="&#x13c;" horiz-adv-x="436" 
d="M305 0h-174v1556h174v-1556zM193 -492h-97l70 349h156z" />
    <glyph glyph-name="Lcaron" unicode="&#x13d;" horiz-adv-x="1273" 
d="M205 0v1556h178v-1384h829v-172h-1007zM1038 1556h199l-215 -358h-82z" />
    <glyph glyph-name="lcaron" unicode="&#x13e;" horiz-adv-x="552" 
d="M315 0h-174v1556h174v-1556zM555 1556h197l-215 -358h-80z" />
    <glyph glyph-name="Lslash" unicode="&#x141;" horiz-adv-x="1249" 
d="M205 0v756l-195 -131v194l195 131v606h178v-487l215 143v-194l-215 -144v-702h829v-172h-1007z" />
    <glyph glyph-name="lslash" unicode="&#x142;" horiz-adv-x="436" 
d="M305 0h-174v604l-205 -137v195l205 137v757h174v-641l209 140v-195l-209 -139v-721z" />
    <glyph glyph-name="Nacute" unicode="&#x143;" horiz-adv-x="1556" 
d="M762 2038h244l-338 -359h-127zM1171 274v1282h181v-1556h-193l-774 1225v-1225h-180v1556h180z" />
    <glyph glyph-name="nacute" unicode="&#x144;" horiz-adv-x="1193" 
d="M575 1556h244l-338 -358h-127zM305 913q61 102 160 148.5t203 46.5q177 0 282 -120t105 -308v-680h-174v637q0 145 -66 230t-188 85q-135 0 -228.5 -95.5t-93.5 -258.5v-598h-174v1075h174v-162z" />
    <glyph glyph-name="Ncommaaccent" unicode="&#x145;" horiz-adv-x="1556" 
d="M1171 274v1282h181v-1556h-193l-774 1225v-1225h-180v1556h180zM758 -492h-96l69 349h156z" />
    <glyph glyph-name="ncommaaccent" unicode="&#x146;" horiz-adv-x="1193" 
d="M305 913q61 102 160 148.5t203 46.5q177 0 282 -120t105 -308v-680h-174v637q0 145 -66 230t-188 85q-135 0 -228.5 -95.5t-93.5 -258.5v-598h-174v1075h174v-162zM571 -492h-96l70 349h155z" />
    <glyph glyph-name="Ncaron" unicode="&#x147;" horiz-adv-x="1556" 
d="M430 2038h133l211 -244l211 244h131l-242 -359h-202zM1171 274v1282h181v-1556h-193l-774 1225v-1225h-180v1556h180z" />
    <glyph glyph-name="ncaron" unicode="&#x148;" horiz-adv-x="1193" 
d="M244 1556h133l211 -243l211 243h131l-242 -358h-203zM305 913q61 102 160 148.5t203 46.5q177 0 282 -120t105 -308v-680h-174v637q0 145 -66 230t-188 85q-135 0 -228.5 -95.5t-93.5 -258.5v-598h-174v1075h174v-162z" />
    <glyph glyph-name="Eng" unicode="&#x14a;" horiz-adv-x="1556" 
d="M965 -492q-72 0 -132.5 14.5t-101.5 38t-73 56.5t-50.5 66.5t-30 71.5t-15 68.5t-3.5 59.5h191q-1 -15 1 -34t13.5 -50t31.5 -55.5t62.5 -42.5t99.5 -18q46 0 80.5 10.5t56 33t35.5 47t21.5 62.5t10 68.5t3.5 75.5l-776 1245v-1225h-184v1556h186l776 -1282v1282h185
v-1556q0 -42 -1 -72t-5 -73t-11.5 -75t-21.5 -70t-33 -65.5t-48.5 -54.5t-67 -44t-88 -27.5t-111.5 -10.5z" />
    <glyph glyph-name="eng" unicode="&#x14b;" horiz-adv-x="1193" 
d="M768 -492q-25 0 -54.5 3t-45.5 7l-17 3v162q23 -7 66 -7q86 0 125 34t39 104v848q0 70 -13.5 122.5t-35.5 83.5t-54.5 50.5t-65 26.5t-71.5 7q-149 0 -242.5 -94.5t-93.5 -259.5v-598h-174v1075h174v-162q119 195 371 195q182 0 280.5 -112.5t98.5 -338.5v-821
q0 -328 -287 -328z" />
    <glyph glyph-name="Omacron" unicode="&#x14c;" horiz-adv-x="1714" 
d="M1178 1956v-144h-639v144h639zM860 -33q-219 0 -388 99.5t-263 284t-94 427.5t94 427.5t263 284t388 99.5q163 0 300 -58t234 -162.5t151 -256.5t54 -334t-54 -334t-151 -256.5t-234 -162.5t-300 -58zM858 143q249 0 401 173t152 462t-152 462t-401 173
q-250 0 -402.5 -173t-152.5 -462t152.5 -462t402.5 -173z" />
    <glyph glyph-name="omacron" unicode="&#x14d;" horiz-adv-x="1165" 
d="M901 1475v-144h-639v144h639zM584 -33q-150 0 -269 76.5t-183 206.5t-64 289q0 250 143.5 409.5t372.5 159.5q230 0 371 -159t141 -410q0 -159 -62.5 -289t-180.5 -206.5t-269 -76.5zM582 123q162 0 251 113.5t89 302.5q0 188 -89 300.5t-251 112.5t-250 -112.5
t-88 -300.5q0 -189 88 -302.5t250 -113.5z" />
    <glyph glyph-name="Ohungarumlaut" unicode="&#x150;" horiz-adv-x="1714" 
d="M635 2038h244l-338 -359h-127zM1057 2038h243l-337 -359h-127zM860 -33q-219 0 -388 99.5t-263 284t-94 427.5t94 427.5t263 284t388 99.5q163 0 300 -58t234 -162.5t151 -256.5t54 -334t-54 -334t-151 -256.5t-234 -162.5t-300 -58zM858 143q249 0 401 173t152 462
t-152 462t-401 173q-250 0 -402.5 -173t-152.5 -462t152.5 -462t402.5 -173z" />
    <glyph glyph-name="ohungarumlaut" unicode="&#x151;" horiz-adv-x="1165" 
d="M358 1556h244l-338 -358h-127zM780 1556h244l-338 -358h-127zM584 -33q-150 0 -269 76.5t-183 206.5t-64 289q0 250 143.5 409.5t372.5 159.5q230 0 371 -159t141 -410q0 -159 -62.5 -289t-180.5 -206.5t-269 -76.5zM582 123q162 0 251 113.5t89 302.5q0 188 -89 300.5
t-251 112.5t-250 -112.5t-88 -300.5q0 -189 88 -302.5t250 -113.5z" />
    <glyph glyph-name="OE" unicode="&#x152;" horiz-adv-x="2678" 
d="M858 -33q-333 0 -538 222t-205 589t205 589t538 222q342 0 553 -233v205h1028v-172h-842v-474h758v-174h-758v-565h877v-172h-1063v199q-209 -236 -553 -236zM854 143q250 0 402.5 173t152.5 462t-152.5 462t-402.5 173q-248 0 -400.5 -173.5t-152.5 -461.5t152.5 -461.5
t400.5 -173.5z" />
    <glyph glyph-name="oe" unicode="&#x153;" horiz-adv-x="2025" 
d="M606 -33q-121 0 -223 44.5t-170.5 121.5t-106.5 182t-38 224q0 252 147 410.5t393 158.5q146 0 259 -58.5t182 -164.5q66 107 174.5 165t251.5 58q208 0 332 -127t137 -377v-129l-2 -4l-795 -2q14 -161 98 -253.5t230 -92.5q124 0 203.5 64t93.5 159h172
q-1 -69 -33 -135.5t-90 -121.5t-148.5 -88.5t-197.5 -33.5q-145 0 -253 60t-173 168q-70 -106 -184 -167t-259 -61zM606 123q178 0 269.5 112.5t91.5 303.5q0 190 -91.5 301.5t-269.5 111.5q-179 0 -270.5 -111.5t-91.5 -301.5q0 -191 91.5 -303.5t270.5 -112.5zM1772 635
q-23 171 -99.5 244t-197.5 73q-137 0 -220.5 -84t-105.5 -233h623z" />
    <glyph glyph-name="Racute" unicode="&#x154;" horiz-adv-x="1349" 
d="M662 2038h243l-338 -359h-127zM739 1556q249 0 382.5 -100.5t133.5 -306.5q0 -180 -139 -285.5t-381 -101.5q-17 0 -59.5 1t-61.5 1l699 -764h-228l-702 768v-768h-178v1556h534zM778 922q79 0 145 24.5t110 78.5t44 130q0 110 -81.5 173t-252.5 63h-360v-469h395z" />
    <glyph glyph-name="racute" unicode="&#x155;" horiz-adv-x="698" 
d="M330 1556h243l-337 -358h-127zM295 883q63 124 194 184q76 35 195 35v-184h-45q-137 0 -235.5 -99.5t-98.5 -261.5v-557h-174v1075h164v-192z" />
    <glyph glyph-name="Rcommaaccent" unicode="&#x156;" horiz-adv-x="1349" 
d="M739 1556q249 0 382.5 -100.5t133.5 -306.5q0 -180 -139 -285.5t-381 -101.5q-17 0 -59.5 1t-61.5 1l699 -764h-228l-702 768v-768h-178v1556h534zM778 922q79 0 145 24.5t110 78.5t44 130q0 110 -81.5 173t-252.5 63h-360v-469h395zM657 -492h-96l70 349h155z" />
    <glyph glyph-name="rcommaaccent" unicode="&#x157;" horiz-adv-x="698" 
d="M295 883q63 124 194 184q76 35 195 35v-184h-45q-137 0 -235.5 -99.5t-98.5 -261.5v-557h-174v1075h164v-192zM338 -492h-96l69 349h156z" />
    <glyph glyph-name="Rcaron" unicode="&#x158;" horiz-adv-x="1349" 
d="M330 2038h133l211 -244l211 244h131l-242 -359h-203zM739 1556q249 0 382.5 -100.5t133.5 -306.5q0 -180 -139 -285.5t-381 -101.5q-17 0 -59.5 1t-61.5 1l699 -764h-228l-702 768v-768h-178v1556h534zM778 922q79 0 145 24.5t110 78.5t44 130q0 110 -81.5 173t-252.5 63
h-360v-469h395z" />
    <glyph glyph-name="rcaron" unicode="&#x159;" horiz-adv-x="698" 
d="M-2 1556h133l211 -243l211 243h131l-242 -358h-202zM295 883q63 124 194 184q76 35 195 35v-184h-45q-137 0 -235.5 -99.5t-98.5 -261.5v-557h-174v1075h164v-192z" />
    <glyph glyph-name="Sacute" unicode="&#x15a;" horiz-adv-x="1366" 
d="M662 2019h243l-338 -358h-127zM743 -33q-167 0 -296 43t-208 118.5t-121.5 169.5t-51.5 206h184q20 -84 56.5 -147.5t83.5 -104.5t110 -66t130.5 -35t149.5 -10q166 0 260.5 61.5t94.5 184.5q0 52 -18.5 94.5t-44 68.5t-66 48t-69.5 32t-69 21q-17 5 -154.5 38.5
t-228.5 64.5q-62 21 -107.5 43t-89 53.5t-70.5 69.5t-43.5 90.5t-16.5 117.5q0 99 33.5 179.5t88 132t127.5 86t147.5 49t152.5 14.5q258 0 401.5 -143.5t148.5 -376.5h-180q-7 82 -35 145t-66.5 99.5t-90.5 60t-100.5 31.5t-102.5 8q-38 0 -75.5 -4.5t-88 -20t-88 -42
t-64 -75.5t-26.5 -114q0 -88 46.5 -138.5t150.5 -88.5q27 -10 53 -18t43 -13t46 -11.5t40.5 -9.5t49.5 -11t52 -11q6 -2 21 -5q43 -10 70 -17.5t80.5 -26.5t89.5 -39t81 -55t72 -75.5t46 -99t19 -126.5q0 -230 -136.5 -337.5t-420.5 -107.5z" />
    <glyph glyph-name="sacute" unicode="&#x15b;" horiz-adv-x="1071" 
d="M539 1556h243l-338 -358h-127zM592 -33q-105 0 -190 20t-143.5 55t-99.5 84.5t-61.5 105t-25.5 120.5h176q30 -130 116.5 -181.5t243.5 -51.5q98 0 153.5 40t55.5 120q0 40 -17 70t-50.5 50t-66.5 32t-81 24q-210 51 -284 82q-135 57 -172 156q-16 42 -17 95
q-1 69 22.5 124t64 91t97 60t119 34.5t133.5 10.5q183 0 286.5 -98.5t109.5 -261.5h-177q-5 61 -28 103.5t-58 63.5t-71 30t-78 9q-49 0 -86.5 -5.5t-77 -20t-61 -46.5t-21.5 -79q0 -74 60 -108.5t233 -71.5q156 -34 223 -66q168 -80 168 -262q0 -328 -395 -328z" />
    <glyph glyph-name="Scedilla" unicode="&#x15e;" horiz-adv-x="1366" 
d="M662 -104q72 0 115.5 -36.5t43.5 -95.5q0 -68 -51 -110.5t-127 -42.5h-117v92h103q42 0 67 16t25 43q0 25 -25.5 39.5t-66.5 14.5h-82v80l71 77q-135 15 -239.5 63t-169 121t-100 159.5t-43.5 187.5h184q20 -84 56.5 -147.5t83.5 -104.5t110 -66t130.5 -35t149.5 -10
q166 0 260.5 61.5t94.5 184.5q0 52 -18.5 94.5t-44 68.5t-66 48t-69.5 32t-69 21q-17 5 -154.5 38.5t-228.5 64.5q-62 21 -107.5 43t-89 53.5t-70.5 69.5t-43.5 90.5t-16.5 117.5q0 99 33.5 179.5t88 132t127.5 86t147.5 49t152.5 14.5q258 0 401.5 -143.5t148.5 -376.5
h-180q-7 82 -35 145t-66.5 99.5t-90.5 60t-100.5 31.5t-102.5 8q-38 0 -75.5 -4.5t-88 -20t-88 -42t-64 -75.5t-26.5 -114q0 -88 46.5 -138.5t150.5 -88.5q27 -10 53 -18t43 -13t46 -11.5t40.5 -9.5t49.5 -11t52 -11q6 -2 21 -5q43 -10 70 -17.5t80.5 -26.5t89.5 -39t81 -55
t72 -75.5t46 -99t19 -126.5q0 -230 -136.5 -337.5t-420.5 -107.5h-32l-76 -71h27z" />
    <glyph glyph-name="scedilla" unicode="&#x15f;" horiz-adv-x="1071" 
d="M539 -104q72 0 115.5 -36.5t43.5 -95.5q0 -68 -51 -110.5t-127 -42.5h-117v92h103q42 0 67 16t25 43q0 25 -25.5 39.5t-66.5 14.5h-82v80l70 75q-104 11 -184.5 45.5t-129.5 86.5t-76 114t-32 135h176q30 -130 116.5 -181.5t243.5 -51.5q98 0 153.5 40t55.5 120
q0 40 -17 70t-50.5 50t-66.5 32t-81 24q-210 51 -284 82q-135 57 -172 156q-16 42 -17 95q-1 69 22.5 124t64 91t97 60t119 34.5t133.5 10.5q183 0 286.5 -98.5t109.5 -261.5h-177q-5 61 -28 103.5t-58 63.5t-71 30t-78 9q-49 0 -86.5 -5.5t-77 -20t-61 -46.5t-21.5 -79
q0 -74 60 -108.5t233 -71.5q156 -34 223 -66q168 -80 168 -262q0 -328 -395 -328h-6l-74 -71h27z" />
    <glyph glyph-name="Scaron" unicode="&#x160;" horiz-adv-x="1366" 
d="M330 2019h133l211 -243l211 243h131l-242 -358h-203zM743 -33q-167 0 -296 43t-208 118.5t-121.5 169.5t-51.5 206h184q20 -84 56.5 -147.5t83.5 -104.5t110 -66t130.5 -35t149.5 -10q166 0 260.5 61.5t94.5 184.5q0 52 -18.5 94.5t-44 68.5t-66 48t-69.5 32t-69 21
q-17 5 -154.5 38.5t-228.5 64.5q-62 21 -107.5 43t-89 53.5t-70.5 69.5t-43.5 90.5t-16.5 117.5q0 99 33.5 179.5t88 132t127.5 86t147.5 49t152.5 14.5q258 0 401.5 -143.5t148.5 -376.5h-180q-7 82 -35 145t-66.5 99.5t-90.5 60t-100.5 31.5t-102.5 8q-38 0 -75.5 -4.5
t-88 -20t-88 -42t-64 -75.5t-26.5 -114q0 -88 46.5 -138.5t150.5 -88.5q27 -10 53 -18t43 -13t46 -11.5t40.5 -9.5t49.5 -11t52 -11q6 -2 21 -5q43 -10 70 -17.5t80.5 -26.5t89.5 -39t81 -55t72 -75.5t46 -99t19 -126.5q0 -230 -136.5 -337.5t-420.5 -107.5z" />
    <glyph glyph-name="scaron" unicode="&#x161;" horiz-adv-x="1071" 
d="M207 1556h133l211 -243l211 243h131l-242 -358h-202zM592 -33q-105 0 -190 20t-143.5 55t-99.5 84.5t-61.5 105t-25.5 120.5h176q30 -130 116.5 -181.5t243.5 -51.5q98 0 153.5 40t55.5 120q0 40 -17 70t-50.5 50t-66.5 32t-81 24q-210 51 -284 82q-135 57 -172 156
q-16 42 -17 95q-1 69 22.5 124t64 91t97 60t119 34.5t133.5 10.5q183 0 286.5 -98.5t109.5 -261.5h-177q-5 61 -28 103.5t-58 63.5t-71 30t-78 9q-49 0 -86.5 -5.5t-77 -20t-61 -46.5t-21.5 -79q0 -74 60 -108.5t233 -71.5q156 -34 223 -66q168 -80 168 -262
q0 -328 -395 -328z" />
    <glyph glyph-name="uni0162" unicode="&#x162;" horiz-adv-x="1251" 
d="M614 -104q72 0 116 -36.5t44 -95.5q0 -68 -51 -110.5t-127 -42.5h-117v92h103q42 0 67 16t25 43q0 25 -25.5 39.5t-66.5 14.5h-82v80l96 104h-59v1384h-480v172h1135l2 -172h-477v-1339h26l-26 -25v-20h-21l-108 -104h26z" />
    <glyph glyph-name="uni0163" unicode="&#x163;" horiz-adv-x="673" 
d="M541 123q38 0 71 4v-141q-70 -6 -104 -6q-66 0 -107 8l-96 -92h27q72 0 116 -36.5t44 -95.5q0 -68 -51.5 -110.5t-127.5 -42.5h-116v92h102q42 0 67 16t25 43q0 25 -25.5 39.5t-66.5 14.5h-82v80l107 114q-138 59 -138 266v652h-147v129q94 0 125 41t31 143v111h165v-277
h246v-147h-246v-621q0 -106 39.5 -145t141.5 -39z" />
    <glyph glyph-name="Tcaron" unicode="&#x164;" horiz-adv-x="1251" 
d="M283 2038h133l211 -244l211 244h131l-242 -359h-203zM537 0v1384h-480v172h1135l2 -172h-477v-1384h-180z" />
    <glyph glyph-name="tcaron" unicode="&#x165;" horiz-adv-x="673" 
d="M637 1556h199l-215 -358h-82zM496 -20q-175 0 -248.5 72t-73.5 224v652h-147v129q94 0 124.5 41t30.5 143v111h166v-277h246v-147h-246v-621q0 -106 39 -145t141 -39q39 0 72 4v-141q-70 -6 -104 -6z" />
    <glyph glyph-name="Tbar" unicode="&#x166;" horiz-adv-x="1251" 
d="M946 707h-229v-707h-180v707h-230v141h230v536h-480v172h1135l2 -172h-477v-536h229v-141z" />
    <glyph glyph-name="tbar" unicode="&#x167;" horiz-adv-x="806" 
d="M578 147q13 0 29.5 0.5t31 1.5t27.5 2.5t22 2.5h8v-162h-3q-3 -1 -9 -1.5t-14.5 -1.5t-19 -2t-21.5 -2t-23.5 -2t-24.5 -1.5l-24 -1t-22 -0.5q-158 0 -230 77t-72 228v182h-147v141h147v310h-147v147q156 0 156 192v95h166v-277h245v-157h-245v-310h245v-141h-245v-137
q0 -103 38.5 -143t131.5 -40z" />
    <glyph glyph-name="Umacron" unicode="&#x16a;" horiz-adv-x="1492" 
d="M1094 1956v-144h-639v144h639zM778 -33q-114 0 -203.5 24t-149.5 61.5t-102 101.5t-65 123.5t-35 150.5t-15 160t-3 172v796h180v-811q0 -81 2.5 -139.5t12 -126t26 -113.5t46 -91t70.5 -72t100.5 -43.5t135.5 -16.5t135.5 16.5t100.5 43.5t70.5 72t46 91t26 113.5
t12 126t2.5 139.5v811h181v-796q0 -103 -3 -172.5t-15.5 -160t-35 -150.5t-65 -123.5t-102.5 -101t-149.5 -61.5t-203.5 -24z" />
    <glyph glyph-name="umacron" unicode="&#x16b;" horiz-adv-x="1153" 
d="M881 1475v-144h-639v144h639zM477 -33q-182 0 -280.5 112.5t-98.5 338.5v657h174v-661q0 -291 240 -291q150 0 243 94.5t93 259.5v598h174v-1075h-174v184q-114 -217 -371 -217z" />
    <glyph glyph-name="Uring" unicode="&#x16e;" horiz-adv-x="1492" 
d="M774 1729q-78 0 -125 46t-47 123q0 75 47 120.5t125 45.5q77 0 123.5 -45.5t46.5 -120.5q0 -76 -46.5 -122.5t-123.5 -46.5zM774 1821q34 0 55 20.5t21 54.5q0 35 -21 55.5t-55 20.5q-35 0 -56.5 -20.5t-21.5 -55.5q0 -34 21.5 -54.5t56.5 -20.5zM778 -33
q-114 0 -203.5 24t-149.5 61.5t-102 101.5t-65 123.5t-35 150.5t-15 160t-3 172v796h180v-811q0 -81 2.5 -139.5t12 -126t26 -113.5t46 -91t70.5 -72t100.5 -43.5t135.5 -16.5t135.5 16.5t100.5 43.5t70.5 72t46 91t26 113.5t12 126t2.5 139.5v811h181v-796
q0 -103 -3 -172.5t-15.5 -160t-35 -150.5t-65 -123.5t-102.5 -101t-149.5 -61.5t-203.5 -24z" />
    <glyph glyph-name="uring" unicode="&#x16f;" horiz-adv-x="1153" 
d="M561 1247q-78 0 -125 46.5t-47 123.5q0 75 47 120.5t125 45.5q77 0 123.5 -45.5t46.5 -120.5q0 -77 -46.5 -123.5t-123.5 -46.5zM561 1339q34 0 55 21t21 55q0 35 -21 55.5t-55 20.5q-35 0 -56.5 -20.5t-21.5 -55.5q0 -34 21.5 -55t56.5 -21zM477 -33
q-182 0 -280.5 112.5t-98.5 338.5v657h174v-661q0 -291 240 -291q150 0 243 94.5t93 259.5v598h174v-1075h-174v184q-114 -217 -371 -217z" />
    <glyph glyph-name="Uhungarumlaut" unicode="&#x170;" horiz-adv-x="1492" 
d="M551 2038h244l-338 -359h-127zM973 2038h244l-338 -359h-127zM778 -33q-114 0 -203.5 24t-149.5 61.5t-102 101.5t-65 123.5t-35 150.5t-15 160t-3 172v796h180v-811q0 -81 2.5 -139.5t12 -126t26 -113.5t46 -91t70.5 -72t100.5 -43.5t135.5 -16.5t135.5 16.5t100.5 43.5
t70.5 72t46 91t26 113.5t12 126t2.5 139.5v811h181v-796q0 -103 -3 -172.5t-15.5 -160t-35 -150.5t-65 -123.5t-102.5 -101t-149.5 -61.5t-203.5 -24z" />
    <glyph glyph-name="uhungarumlaut" unicode="&#x171;" horiz-adv-x="1153" 
d="M338 1556h244l-338 -358h-127zM760 1556h244l-338 -358h-127zM477 -33q-182 0 -280.5 112.5t-98.5 338.5v657h174v-661q0 -291 240 -291q150 0 243 94.5t93 259.5v598h174v-1075h-174v184q-114 -217 -371 -217z" />
    <glyph glyph-name="Uogonek" unicode="&#x172;" horiz-adv-x="1492" 
d="M1352 760q0 -100 -2.5 -168t-14.5 -157t-33 -148t-60.5 -123t-95 -102t-139 -64.5t-190.5 -30.5q-98 -90 -98 -166q0 -43 34.5 -66.5t100.5 -23.5q34 0 61 4v-121q-41 -6 -96 -6q-115 0 -173 55t-58 126q0 106 125 200q-79 5 -144.5 23t-114.5 44t-87.5 66.5t-64.5 81
t-44.5 98t-28.5 107.5t-15.5 119.5t-7 123t-1.5 128.5v796h180v-811q0 -81 2.5 -139.5t12 -126t26 -113.5t46 -91t70.5 -72t100.5 -43.5t135.5 -16.5t135.5 16.5t100.5 43.5t70.5 72t46 91t26 113.5t12 126t2.5 139.5v811h181v-796z" />
    <glyph glyph-name="uogonek" unicode="&#x173;" horiz-adv-x="1153" 
d="M983 -289q34 0 61 4v-121q-41 -6 -96 -6q-115 0 -173 55t-58 126q0 40 17 77.5t49 68.5t53 48t51 37h-39v184q-114 -217 -371 -217q-182 0 -280.5 112.5t-98.5 338.5v657h174v-661q0 -291 240 -291q150 0 243 94.5t93 259.5v598h174v-1075h-39q-135 -109 -135 -199
q0 -43 34.5 -66.5t100.5 -23.5z" />
    <glyph glyph-name="Wcircumflex" unicode="&#x174;" horiz-adv-x="2209" 
d="M895 1679h-133l242 359h202l242 -359h-131l-211 244zM569 219l418 1337h236l419 -1337l328 1337h203l-434 -1556h-197l-436 1368l-438 -1368h-197l-434 1556h205z" />
    <glyph glyph-name="wcircumflex" unicode="&#x175;" horiz-adv-x="1771" 
d="M676 1198h-133l241 358h203l242 -358h-131l-211 244zM520 227h4l258 848h207l260 -848h4l293 848h197l-412 -1075h-164l-278 870h-4l-281 -870h-166l-409 1075h196z" />
    <glyph glyph-name="Ycircumflex" unicode="&#x176;" horiz-adv-x="1372" 
d="M477 1679h-133l242 359h202l242 -359h-131l-211 244zM260 1556l428 -847l426 847h207l-545 -1017v-539h-182v539l-543 1017h209z" />
    <glyph glyph-name="ycircumflex" unicode="&#x177;" horiz-adv-x="1042" 
d="M311 1198h-133l242 358h203l241 -358h-131l-211 244zM225 1075l258 -756l37 -98h4l37 98l256 756h197l-377 -973l-199 -594h-166l166 492l-409 1075h196z" />
    <glyph glyph-name="Ydieresis" unicode="&#x178;" horiz-adv-x="1372" 
d="M602 1866h-153v172h153v-172zM915 1866h-153v172h153v-172zM260 1556l428 -847l426 847h207l-545 -1017v-539h-182v539l-543 1017h209z" />
    <glyph glyph-name="Zacute" unicode="&#x179;" horiz-adv-x="1308" 
d="M647 2038h244l-338 -359h-127zM88 0v172l856 1212h-835v172h1038l2 -172l-856 -1212h942v-172h-1147z" />
    <glyph glyph-name="zacute" unicode="&#x17a;" horiz-adv-x="1099" 
d="M543 1556h243l-337 -358h-127zM66 0v154l731 768h-723v153h927l3 -153l-732 -768h770v-154h-976z" />
    <glyph glyph-name="Zdotaccent" unicode="&#x17b;" horiz-adv-x="1308" 
d="M659 1810q-56 0 -94.5 38.5t-38.5 93.5q0 54 38.5 91.5t94.5 37.5q53 0 92.5 -38t39.5 -91q0 -55 -39.5 -93.5t-92.5 -38.5zM88 0v172l856 1212h-835v172h1038l2 -172l-856 -1212h942v-172h-1147z" />
    <glyph glyph-name="zdotaccent" unicode="&#x17c;" horiz-adv-x="1099" 
d="M555 1329q-56 0 -94.5 38t-38.5 93q0 54 38.5 91.5t94.5 37.5q53 0 92 -38t39 -91q0 -55 -39 -93t-92 -38zM66 0v154l731 768h-723v153h927l3 -153l-732 -768h770v-154h-976z" />
    <glyph glyph-name="Zcaron" unicode="&#x17d;" horiz-adv-x="1308" 
d="M315 2038h134l210 -244l211 244h131l-241 -359h-203zM88 0v172l856 1212h-835v172h1038l2 -172l-856 -1212h942v-172h-1147z" />
    <glyph glyph-name="zcaron" unicode="&#x17e;" horiz-adv-x="1099" 
d="M211 1556h133l211 -243l211 243h131l-242 -358h-202zM66 0v154l731 768h-723v153h927l3 -153l-732 -768h770v-154h-976z" />
    <glyph glyph-name="AEacute" unicode="&#x1fc;" horiz-adv-x="2390" 
d="M1196 2038h244l-338 -359h-127zM1122 0v465h-622l-238 -465h-205l791 1556h1304v-186h-843v-452h757v-187h-757v-545h878v-186h-1065zM1122 1370h-164l-364 -717h528v717z" />
    <glyph glyph-name="aeacute" unicode="&#x1fd;" horiz-adv-x="1906" 
d="M944 1556h244l-338 -358h-127zM489 -33q-96 0 -170 21t-118 54t-72 78t-38.5 88.5t-10.5 90.5q0 52 12.5 98.5t49.5 97t96 86.5t160.5 59.5t234.5 23.5h215q0 50 -5.5 88t-23 76.5t-46.5 62.5t-79 39.5t-119 15.5q-137 0 -202 -54t-68 -140h-180q2 53 16.5 101.5t48 96
t84 82t131 55.5t181.5 21q279 0 383 -168q139 168 387 168q208 0 333 -127t138 -377v-129l-2 -4l-797 -2q14 -161 98.5 -253.5t231.5 -92.5q124 0 203 64t92 159h174q-1 -67 -33.5 -133.5t-89.5 -121.5t-146 -89.5t-192 -34.5q-147 0 -258 65t-158 161q-135 -226 -461 -226z
M1653 633q-22 172 -98 245.5t-197 73.5q-137 0 -220.5 -84t-107.5 -235h623zM502 131q167 0 257.5 67t90.5 185v135h-225q-371 0 -371 -213q0 -88 59.5 -131t188.5 -43z" />
    <glyph glyph-name="Scommaaccent" unicode="&#x218;" horiz-adv-x="1366" 
d="M743 -33q-167 0 -296 43t-208 118.5t-121.5 169.5t-51.5 206h184q20 -84 56.5 -147.5t83.5 -104.5t110 -66t130.5 -35t149.5 -10q166 0 260.5 61.5t94.5 184.5q0 52 -18.5 94.5t-44 68.5t-66 48t-69.5 32t-69 21q-17 5 -154.5 38.5t-228.5 64.5q-62 21 -107.5 43
t-89 53.5t-70.5 69.5t-43.5 90.5t-16.5 117.5q0 99 33.5 179.5t88 132t127.5 86t147.5 49t152.5 14.5q258 0 401.5 -143.5t148.5 -376.5h-180q-7 82 -35 145t-66.5 99.5t-90.5 60t-100.5 31.5t-102.5 8q-38 0 -75.5 -4.5t-88 -20t-88 -42t-64 -75.5t-26.5 -114
q0 -88 46.5 -138.5t150.5 -88.5q27 -10 53 -18t43 -13t46 -11.5t40.5 -9.5t49.5 -11t52 -11q6 -2 21 -5q43 -10 70 -17.5t80.5 -26.5t89.5 -39t81 -55t72 -75.5t46 -99t19 -126.5q0 -230 -136.5 -337.5t-420.5 -107.5zM657 -492h-96l70 349h155z" />
    <glyph glyph-name="scommaaccent" unicode="&#x219;" horiz-adv-x="1071" 
d="M592 -33q-105 0 -190 20t-143.5 55t-99.5 84.5t-61.5 105t-25.5 120.5h176q30 -130 116.5 -181.5t243.5 -51.5q98 0 153.5 40t55.5 120q0 40 -17 70t-50.5 50t-66.5 32t-81 24q-210 51 -284 82q-135 57 -172 156q-16 42 -17 95q-1 69 22.5 124t64 91t97 60t119 34.5
t133.5 10.5q183 0 286.5 -98.5t109.5 -261.5h-177q-5 61 -28 103.5t-58 63.5t-71 30t-78 9q-49 0 -86.5 -5.5t-77 -20t-61 -46.5t-21.5 -79q0 -74 60 -108.5t233 -71.5q156 -34 223 -66q168 -80 168 -262q0 -328 -395 -328zM535 -492h-97l70 349h156z" />
    <glyph glyph-name="uni021A" unicode="&#x21a;" horiz-adv-x="1251" 
d="M537 0v1384h-480v172h1135l2 -172h-477v-1384h-180zM610 -492h-96l70 349h155z" />
    <glyph glyph-name="uni021B" unicode="&#x21b;" horiz-adv-x="673" 
d="M508 -20q-175 0 -248.5 72t-73.5 224v652h-147v129q94 0 125 41t31 143v111h165v-277h246v-147h-246v-621q0 -106 39.5 -145t141.5 -39q38 0 71 4v-141q-70 -6 -104 -6zM328 -492h-97l70 349h156z" />
    <glyph glyph-name="circumflex" unicode="&#x2c6;" horiz-adv-x="894" 
d="M20 1198h-133l242 358h203l241 -358h-131l-211 244z" />
    <glyph glyph-name="caron" unicode="&#x2c7;" horiz-adv-x="894" 
d="M-111 1556h134l210 -243l211 243h131l-241 -358h-203z" />
    <glyph glyph-name="breve" unicode="&#x2d8;" horiz-adv-x="933" 
d="M682 1556q0 -161 -100.5 -259.5t-266.5 -98.5t-267 98.5t-101 259.5h153q0 -97 59 -155t156 -58t155 58t58 155h154z" />
    <glyph glyph-name="dotaccent" unicode="&#x2d9;" horiz-adv-x="530" 
d="M8 1329q-56 0 -94.5 38t-38.5 93q0 54 38.5 91.5t94.5 37.5q53 0 92 -38t39 -91q0 -55 -39 -93t-92 -38z" />
    <glyph glyph-name="ring" unicode="&#x2da;" horiz-adv-x="600" 
d="M121 1247q-78 0 -125 46.5t-47 123.5q0 75 47 120.5t125 45.5q77 0 123.5 -45.5t46.5 -120.5q0 -77 -46.5 -123.5t-123.5 -46.5zM121 1339q34 0 55 21t21 55q0 35 -21 55.5t-55 20.5q-35 0 -56.5 -20.5t-21.5 -55.5q0 -34 21.5 -55t56.5 -21z" />
    <glyph glyph-name="ogonek" unicode="&#x2db;" horiz-adv-x="528" 
d="M342 -412q-115 0 -173 55t-58 126q0 19 4.5 38t11 35t18 32.5t20.5 28.5t24.5 26.5t25 23t26 20t23 16t20.5 14t15 9.5h94q-151 -116 -151 -211q0 -43 34.5 -66.5t100.5 -23.5q34 0 61 4v-121q-40 -6 -96 -6z" />
    <glyph glyph-name="tilde" unicode="&#x2dc;" horiz-adv-x="894" 
d="M170 1513q41 0 78.5 -20.5t61 -45t53 -45t55.5 -20.5q34 0 57 33.5t23 87.5h129q0 -129 -52.5 -195.5t-136.5 -66.5q-38 0 -71 14t-56 33.5t-43.5 39.5t-41.5 34t-42 14q-33 0 -53 -34.5t-20 -90.5h-129q0 114 53 188t135 74z" />
    <glyph glyph-name="hungarumlaut" unicode="&#x2dd;" horiz-adv-x="980" 
d="M279 1556h243l-338 -358h-127zM700 1556h244l-338 -358h-127z" />
    <glyph glyph-name="gravecomb" unicode="&#x300;" 
d="M-184 1198l-338 358h243l222 -358h-127z" />
    <glyph glyph-name="acutecomb" unicode="&#x301;" 
d="M-281 1556h244l-338 -358h-127z" />
    <glyph glyph-name="uni0302" unicode="&#x302;" 
d="M-657 1198h-134l242 358h203l242 -358h-132l-210 244z" />
    <glyph glyph-name="tildecomb" unicode="&#x303;" 
d="M-584 1513q41 0 78.5 -20.5t61 -45t53 -45t55.5 -20.5q34 0 57 33.5t23 87.5h129q0 -129 -52 -195.5t-136 -66.5q-38 0 -71 14t-56 33.5t-43.5 39.5t-41.5 34t-42 14q-34 0 -54 -34.5t-20 -90.5h-129q0 114 53 188t135 74z" />
    <glyph glyph-name="uni0304" unicode="&#x304;" 
d="M-160 1475v-144h-639v144h639z" />
    <glyph glyph-name="uni0306" unicode="&#x306;" 
d="M-100 1556q0 -161 -100.5 -259.5t-266.5 -98.5t-267.5 98.5t-101.5 259.5h154q0 -97 59 -155t156 -58t155 58t58 155h154z" />
    <glyph glyph-name="uni0307" unicode="&#x307;" 
d="M-264 1329q-56 0 -94.5 38t-38.5 93q0 54 38.5 91.5t94.5 37.5q53 0 92 -38t39 -91q0 -55 -39 -93t-92 -38z" />
    <glyph glyph-name="uni0308" unicode="&#x308;" 
d="M-455 1384h-153v172h153v-172zM-244 1384h-153v172h153v-172z" />
    <glyph glyph-name="uni030A" unicode="&#x30a;" 
d="M-299 1247q-78 0 -125 46.5t-47 123.5q0 75 47 120.5t125 45.5q77 0 123.5 -45.5t46.5 -120.5q0 -77 -46.5 -123.5t-123.5 -46.5zM-299 1339q34 0 55 21t21 55q0 35 -21 55.5t-55 20.5q-35 0 -56.5 -20.5t-21.5 -55.5q0 -34 21.5 -55t56.5 -21z" />
    <glyph glyph-name="uni030B" unicode="&#x30b;" 
d="M-702 1556h243l-338 -358h-127zM-281 1556h244l-338 -358h-127z" />
    <glyph glyph-name="uni030C" unicode="&#x30c;" 
d="M-791 1556h134l211 -243l210 243h132l-242 -358h-203z" />
    <glyph glyph-name="uni0312" unicode="&#x312;" 
d="M-145 1198h-222v211l103 213h119l-82 -213h82v-211z" />
    <glyph glyph-name="uni0326" unicode="&#x326;" 
d="M-223 -492h-96l69 349h156z" />
    <glyph glyph-name="uni0327" unicode="&#x327;" 
d="M-270 -104q72 0 115.5 -36.5t43.5 -95.5q0 -68 -51 -110.5t-127 -42.5h-117v92h103q42 0 67 16t25 43q0 25 -25.5 39.5t-66.5 14.5h-82v80l137 149h107l-156 -149h27z" />
    <glyph glyph-name="uni0328" unicode="&#x328;" 
d="M-186 -412q-115 0 -173.5 55t-58.5 126q0 19 4.5 38t11 35t18 32.5t21 28.5t25 26.5t25 23t25.5 20t23 16l21 13.5t15 10h94q-152 -116 -152 -211q0 -43 34.5 -66.5t100.5 -23.5q35 0 62 4v-121q-40 -6 -96 -6z" />
    <glyph glyph-name="uni0335" unicode="&#x335;" 
d="M-160 612v-141h-639v141h639z" />
    <glyph glyph-name="uni0336" unicode="&#x336;" 
d="M-1434 612h1274v-141h-1274v141z" />
    <glyph glyph-name="uni0337" unicode="&#x337;" 
d="M-659 543v194l587 393v-194z" />
    <glyph glyph-name="uni0338" unicode="&#x338;" 
d="M-1151 -238h-154l1141 1794h154z" />
    <glyph glyph-name="Wgrave" unicode="&#x1e80;" horiz-adv-x="2209" 
d="M1210 1679l-338 359h244l221 -359h-127zM569 219l418 1337h236l419 -1337l328 1337h203l-434 -1556h-197l-436 1368l-438 -1368h-197l-434 1556h205z" />
    <glyph glyph-name="wgrave" unicode="&#x1e81;" horiz-adv-x="1771" 
d="M991 1198l-338 358h244l221 -358h-127zM520 227h4l258 848h207l260 -848h4l293 848h197l-412 -1075h-164l-278 870h-4l-281 -870h-166l-409 1075h196z" />
    <glyph glyph-name="Wacute" unicode="&#x1e82;" horiz-adv-x="2209" 
d="M1094 2038h243l-338 -359h-127zM569 219l418 1337h236l419 -1337l328 1337h203l-434 -1556h-197l-436 1368l-438 -1368h-197l-434 1556h205z" />
    <glyph glyph-name="wacute" unicode="&#x1e83;" horiz-adv-x="1771" 
d="M874 1556h244l-338 -358h-127zM520 227h4l258 848h207l260 -848h4l293 848h197l-412 -1075h-164l-278 870h-4l-281 -870h-166l-409 1075h196z" />
    <glyph glyph-name="Wdieresis" unicode="&#x1e84;" horiz-adv-x="2209" 
d="M1026 1866h-154v172h154v-172zM1339 1866h-153v172h153v-172zM569 219l418 1337h236l419 -1337l328 1337h203l-434 -1556h-197l-436 1368l-438 -1368h-197l-434 1556h205z" />
    <glyph glyph-name="wdieresis" unicode="&#x1e85;" horiz-adv-x="1771" 
d="M815 1384h-153v172h153v-172zM1128 1384h-153v172h153v-172zM520 227h4l258 848h207l260 -848h4l293 848h197l-412 -1075h-164l-278 870h-4l-281 -870h-166l-409 1075h196z" />
    <glyph glyph-name="Ygrave" unicode="&#x1ef2;" horiz-adv-x="1372" 
d="M793 1679l-338 359h243l222 -359h-127zM260 1556l428 -847l426 847h207l-545 -1017v-539h-182v539l-543 1017h209z" />
    <glyph glyph-name="ygrave" unicode="&#x1ef3;" horiz-adv-x="1042" 
d="M627 1198l-338 358h243l222 -358h-127zM225 1075l258 -756l37 -98h4l37 98l256 756h197l-377 -973l-199 -594h-166l166 492l-409 1075h196z" />
    <glyph glyph-name="uni2009" unicode="&#x2009;" horiz-adv-x="413" 
 />
    <glyph glyph-name="endash" unicode="&#x2013;" horiz-adv-x="1374" 
d="M1214 451h-1054v161h1054v-161z" />
    <glyph glyph-name="emdash" unicode="&#x2014;" horiz-adv-x="2367" 
d="M160 451v161h2048v-161h-2048z" />
    <glyph glyph-name="quoteleft" unicode="&#x2018;" horiz-adv-x="440" 
d="M334 1104h-228v219l105 217h121l-82 -217h84v-219z" />
    <glyph glyph-name="quoteright" unicode="&#x2019;" horiz-adv-x="440" 
d="M106 1538h228v-217l-105 -219h-123l84 219h-84v217z" />
    <glyph glyph-name="quotesinglbase" unicode="&#x201a;" horiz-adv-x="440" 
d="M106 217h228v-217l-105 -217h-123l84 217h-84v217z" />
    <glyph glyph-name="quotedblleft" unicode="&#x201c;" horiz-adv-x="790" 
d="M332 1540l-82 -217h84v-219h-228v219l105 217h121zM684 1540l-82 -217h82v-219h-225v219l102 217h123z" />
    <glyph glyph-name="quotedblright" unicode="&#x201d;" horiz-adv-x="790" 
d="M106 1538h228v-217l-105 -219h-123l84 219h-84v217zM459 1538h225v-217l-102 -219h-123l82 219h-82v217z" />
    <glyph glyph-name="quotedblbase" unicode="&#x201e;" horiz-adv-x="790" 
d="M106 217h228v-217l-105 -217h-123l84 217h-84v217zM459 217h225v-217l-102 -217h-123l82 217h-82v217z" />
    <glyph glyph-name="dagger" unicode="&#x2020;" horiz-adv-x="1136" 
d="M98 322h385v1234h174v-1234h383v-121h-383v-693h-174v693h-385v121z" />
    <glyph glyph-name="daggerdbl" unicode="&#x2021;" horiz-adv-x="1179" 
d="M1061 322v-121h-383v-693h-174v693h-385v121h385v301h-385v120h385v813h174v-813h383v-120h-383v-301h383z" />
    <glyph glyph-name="bullet" unicode="&#x2022;" horiz-adv-x="602" 
d="M301 346q-82 0 -138.5 57t-56.5 140q0 80 56.5 136t138.5 56q79 0 138 -56.5t59 -135.5q0 -82 -59 -139.5t-138 -57.5z" />
    <glyph glyph-name="ellipsis" unicode="&#x2026;" horiz-adv-x="1157" 
d="M328 0h-222v211h222v-211zM688 0h-221v211h221v-211zM1051 0h-222v211h222v-211z" />
    <glyph glyph-name="perthousand" unicode="&#x2030;" horiz-adv-x="2891" 
d="M391 696q-91 0 -162 36t-113 98.5t-63.5 141.5t-21.5 171t21.5 170.5t63.5 141t113 98.5t162 36q92 0 163 -36t113.5 -98.5t63.5 -141t21 -170.5t-21 -171t-63.5 -141.5t-113.5 -98.5t-163 -36zM565 -33h-135l944 1622h135zM391 819q114 0 172 92.5t58 231.5
q0 89 -23 159.5t-76 117t-131 46.5q-114 0 -171.5 -92t-57.5 -231t57.5 -231.5t171.5 -92.5zM1516 -18q-91 0 -162 36t-113.5 98.5t-64 141t-21.5 170.5t21.5 170.5t64 141t113.5 98.5t162 36q92 0 163 -36t113 -98.5t63 -141t21 -170.5t-21 -170.5t-63 -141t-113 -98.5
t-163 -36zM2431 -18q-92 0 -163 36t-113 98.5t-63 141t-21 170.5t21 170.5t63 141t113 98.5t163 36t163 -36t113 -98.5t63 -141t21 -170.5t-21 -170.5t-63 -141t-113 -98.5t-163 -36zM1516 104q114 0 171.5 92.5t57.5 231.5t-57.5 231.5t-171.5 92.5t-172 -92.5t-58 -231.5
t58 -231.5t172 -92.5zM2431 104q114 0 171.5 92.5t57.5 231.5t-57.5 231.5t-171.5 92.5t-171.5 -92.5t-57.5 -231.5t57.5 -231.5t171.5 -92.5z" />
    <glyph glyph-name="guilsinglleft" unicode="&#x2039;" horiz-adv-x="686" 
d="M434 88l-368 455l368 454h189l-369 -454l369 -455h-189z" />
    <glyph glyph-name="guilsinglright" unicode="&#x203a;" horiz-adv-x="686" 
d="M252 88h-189l369 455l-369 454h189l369 -454z" />
    <glyph glyph-name="fraction" unicode="&#x2044;" horiz-adv-x="471" 
d="M-168 -33h-137l944 1622h137z" />
    <glyph glyph-name="uni2070" unicode="&#x2070;" horiz-adv-x="835" 
d="M420 678q-91 0 -161.5 35.5t-113.5 98t-64.5 141.5t-21.5 171q0 73 13.5 138.5t42 122.5t70 98t102 64.5t133.5 23.5q90 0 159.5 -35.5t112 -98t63.5 -142t21 -171.5t-21 -171t-63.5 -141.5t-112 -98t-159.5 -35.5zM418 793q113 0 172 93t59 238t-59 238.5t-172 93.5
t-171.5 -93.5t-58.5 -238.5t58.5 -238t171.5 -93z" />
    <glyph glyph-name="uni2074" unicode="&#x2074;" horiz-adv-x="790" 
d="M563 696h-123v181h-381v137l312 538h139l-313 -551h243v209h123v-209h168v-124h-168v-181z" />
    <glyph glyph-name="uni2075" unicode="&#x2075;" horiz-adv-x="798" 
d="M387 678q-136 0 -228.5 57.5t-99.5 149.5h134q4 -41 59.5 -67.5t130.5 -26.5q108 0 170.5 52.5t62.5 139.5t-60 142t-153 55q-68 0 -118.5 -32.5t-71.5 -84.5h-139l125 489h469v-120h-379l-56 -207q68 65 201 65q136 0 220.5 -85.5t84.5 -221.5q0 -139 -94.5 -222
t-257.5 -83z" />
    <glyph glyph-name="uni2076" unicode="&#x2076;" horiz-adv-x="765" 
d="M383 680q-164 0 -244 106t-80 297q0 217 93.5 351.5t250.5 134.5q108 0 179.5 -57t81.5 -152h-132q-7 46 -45.5 74t-89.5 28q-88 0 -145 -86t-66 -229q34 60 96 93.5t142 33.5q126 0 204.5 -80.5t78.5 -210.5q0 -137 -88.5 -220t-235.5 -83zM387 791q85 0 138 51t53 137
q0 83 -53 133.5t-138 50.5t-137.5 -50.5t-52.5 -133.5q0 -85 52 -136.5t138 -51.5z" />
    <glyph glyph-name="uni2077" unicode="&#x2077;" horiz-adv-x="669" 
d="M59 1552h551v-122l-358 -734h-137l362 734h-418v122z" />
    <glyph glyph-name="uni2078" unicode="&#x2078;" horiz-adv-x="860" 
d="M432 676q-91 0 -160 23.5t-108 63t-57.5 84t-18.5 93.5q0 75 41 131t119 82q-119 65 -119 176q0 45 17.5 86.5t52.5 76.5t95.5 56t137.5 21q79 0 139.5 -20.5t95 -55t51.5 -74.5t17 -84q0 -116 -121 -182q77 -26 118.5 -81.5t41.5 -131.5q0 -49 -18 -93.5t-55.5 -84
t-107 -63t-161.5 -23.5zM430 1204q87 0 130.5 35.5t43.5 89.5q0 57 -43.5 95t-130.5 38t-130.5 -38t-43.5 -95q0 -54 43.5 -89.5t130.5 -35.5zM430 788q110 0 161.5 45t51.5 105q0 63 -50 107.5t-163 44.5q-111 0 -161 -42.5t-50 -109.5q0 -60 50.5 -105t160.5 -45z" />
    <glyph glyph-name="uni2079" unicode="&#x2079;" horiz-adv-x="786" 
d="M375 678q-131 0 -217 57t-97 148h134q8 -43 56 -70t120 -27q103 0 168 80.5t65 204.5v21q-40 -51 -109.5 -82t-144.5 -31q-131 0 -212 81.5t-81 211.5q0 131 90 215t240 84q163 0 252.5 -102.5t89.5 -315.5q0 -214 -96 -344.5t-258 -130.5zM385 1090q95 0 152 49t57 131
q0 85 -57 136.5t-152 51.5q-94 0 -150.5 -51.5t-56.5 -136.5q0 -82 56.5 -131t150.5 -49z" />
    <glyph glyph-name="Euro" unicode="&#x20ac;" horiz-adv-x="1478" 
d="M1128 -33q-143 0 -258.5 35.5t-197 100t-136 147.5t-87.5 186h-334l39 146h264q-12 80 -12 157q0 36 2 54h-236l37 145h215q22 123 73 223.5t134.5 180.5t210 124.5t286.5 44.5q134 0 250 -22v-164q-137 27 -252 27q-221 0 -355 -113t-183 -301h506l-35 -145h-492
q-2 -18 -2 -58q0 -79 15 -153h462l-36 -146h-383q62 -144 187 -226.5t314 -82.5q117 0 254 27v-164q-121 -23 -250 -23z" />
    <glyph glyph-name="trademark" unicode="&#x2122;" horiz-adv-x="815" 
d="M211 1167h-35v355h-121v34h275v-34h-119v-355zM657 1167v285l-88 -285h-63l-90 285v-285h-35v389h39l115 -350l118 350h39v-389h-35z" />
    <glyph glyph-name="oneeighth" unicode="&#x215b;" horiz-adv-x="1667" 
d="M301 -33h-133l944 1622h133zM31 1556h299v-856h-129v727h-170v129zM1225 -20q-91 0 -160 23.5t-108 63t-57.5 84t-18.5 93.5q0 75 40.5 131t118.5 82q-118 64 -118 176q0 45 17.5 86t52.5 76t95.5 56t137.5 21q152 0 227.5 -69.5t75.5 -163.5q0 -116 -121 -182
q77 -26 118.5 -81.5t41.5 -131.5q0 -49 -18 -93.5t-55.5 -84t-107 -63t-161.5 -23.5zM1223 508q87 0 130.5 35.5t43.5 89.5q0 57 -43.5 95t-130.5 38t-130.5 -38t-43.5 -95q0 -54 43.5 -89.5t130.5 -35.5zM1223 92q110 0 161.5 45t51.5 105q0 63 -50 107t-163 44
q-111 0 -161 -42t-50 -109q0 -60 50.5 -105t160.5 -45z" />
    <glyph glyph-name="threeeighths" unicode="&#x215c;" horiz-adv-x="1828" 
d="M508 -33h-135l944 1622h135zM401 682q-146 0 -241 59.5t-101 147.5h138q4 -42 65 -66t141 -24q111 0 162 45.5t51 118.5q0 167 -284 167h-68v115l264 178h-419v133h593v-139l-282 -186l10 -4q135 0 225 -69.5t90 -190.5q0 -53 -18.5 -101t-57.5 -90.5t-108 -68
t-160 -25.5zM1430 -20q-91 0 -160.5 23.5t-108 63t-57.5 84t-19 93.5q0 75 41 131t119 82q-119 65 -119 176q0 45 18 86t53 76t95.5 56t137.5 21q152 0 227.5 -69.5t75.5 -163.5q0 -116 -121 -182q77 -26 118.5 -81.5t41.5 -131.5q0 -49 -18 -93.5t-55.5 -84t-107 -63
t-161.5 -23.5zM1427 508q87 0 131 35.5t44 89.5q0 57 -44 95t-131 38t-130.5 -38t-43.5 -95q0 -54 43.5 -89.5t130.5 -35.5zM1427 92q110 0 161.5 45t51.5 105q0 63 -50 107t-163 44q-111 0 -160.5 -42t-49.5 -109q0 -60 50 -105t160 -45z" />
    <glyph glyph-name="fiveeighths" unicode="&#x215d;" horiz-adv-x="1986" 
d="M666 -33h-136l945 1622h135zM387 682q-136 0 -228.5 57.5t-99.5 149.5h134q4 -41 59.5 -67.5t130.5 -26.5q108 0 170.5 52.5t62.5 139.5t-60 142t-153 55q-68 0 -118.5 -32.5t-71.5 -84.5h-139l125 489h469v-120h-379l-56 -207q68 65 201 65q136 0 220.5 -85.5
t84.5 -221.5q0 -139 -94.5 -222t-257.5 -83zM1587 -20q-91 0 -160 23.5t-108 63t-57.5 84t-18.5 93.5q0 75 41 131t119 82q-119 65 -119 176q0 45 17.5 86t52.5 76t95.5 56t137.5 21q152 0 227.5 -69.5t75.5 -163.5q0 -116 -121 -182q77 -26 118.5 -81.5t41.5 -131.5
q0 -49 -18 -93.5t-55.5 -84t-107 -63t-161.5 -23.5zM1585 508q87 0 130.5 35.5t43.5 89.5q0 57 -43.5 95t-130.5 38t-130.5 -38t-43.5 -95q0 -54 43.5 -89.5t130.5 -35.5zM1585 92q110 0 161.5 45t51.5 105q0 63 -50 107t-163 44q-111 0 -161 -42t-50 -109q0 -60 50.5 -105
t160.5 -45z" />
    <glyph glyph-name="seveneighths" unicode="&#x215e;" horiz-adv-x="1642" 
d="M319 -33h-133l944 1622h134zM59 1556h559v-139l-362 -717h-141l366 727h-422v129zM1243 -20q-91 0 -160 23.5t-108 63t-57.5 84t-18.5 93.5q0 75 41 131t119 82q-119 65 -119 176q0 45 17.5 86t52.5 76t95.5 56t137.5 21q152 0 227.5 -69.5t75.5 -163.5q0 -116 -121 -182
q77 -26 118.5 -81.5t41.5 -131.5q0 -49 -18 -93.5t-55.5 -84t-107 -63t-161.5 -23.5zM1241 508q87 0 130.5 35.5t43.5 89.5q0 57 -43.5 95t-130.5 38t-130.5 -38t-43.5 -95q0 -54 43.5 -89.5t130.5 -35.5zM1241 92q110 0 161.5 45t51.5 105q0 63 -50 107t-163 44
q-111 0 -161 -42t-50 -109q0 -60 50.5 -105t160.5 -45z" />
    <glyph glyph-name="arrowleft" unicode="&#x2190;" horiz-adv-x="1871" 
d="M496 315l-433 287l433 287v-223l1013 24v-176l-1013 25v-224z" />
    <glyph glyph-name="arrowup" unicode="&#x2191;" horiz-adv-x="970" 
d="M772 1014h-223l24 -1014h-176l25 1014h-223l286 432z" />
    <glyph glyph-name="arrowright" unicode="&#x2192;" horiz-adv-x="1871" 
d="M1276 885l432 -287l-432 -287v224l-1014 -25v176l1014 -24v223z" />
    <glyph glyph-name="arrowdown" unicode="&#x2193;" horiz-adv-x="970" 
d="M772 338l-287 -432l-286 432h223l-25 1014h176l-24 -1014h223z" />
    <glyph glyph-name="arrowboth" unicode="&#x2194;" horiz-adv-x="2402" 
d="M1907 315v224h-1411v-224l-433 287l433 287v-223h1411v223l432 -287z" />
    <glyph glyph-name="arrowupdn" unicode="&#x2195;" horiz-adv-x="970" 
d="M545 432h223l-287 -432l-286 432h223v692l-223 2l288 430l285 -432h-221l-2 -344v-348z" />
    <glyph glyph-name="uni2196" unicode="&#x2196;" horiz-adv-x="1880" 
d="M160 1556l649 -188l-399 -4l1312 -1307l-57 -57l-1311 1300l-8 -395z" />
    <glyph glyph-name="uni2197" unicode="&#x2197;" horiz-adv-x="1880" 
d="M1071 1368l649 188l-186 -651l-8 395l-1311 -1300l-57 57l1312 1307z" />
    <glyph glyph-name="uni2198" unicode="&#x2198;" horiz-adv-x="1880" 
d="M1720 0l-649 188l399 5l-1312 1306l57 57l1311 -1300l8 395z" />
    <glyph glyph-name="uni2199" unicode="&#x2199;" horiz-adv-x="1880" 
d="M809 188l-649 -188l186 651l8 -395l1311 1300l57 -57l-1312 -1306z" />
    <glyph glyph-name="partialdiff" unicode="&#x2202;" horiz-adv-x="1341" 
d="M643 -33q-224 0 -354.5 131t-130.5 357q0 124 42 229t114.5 176t170.5 110.5t209 39.5q274 0 393 -236q6 321 -98 484t-330 163q-57 0 -108.5 -10t-102.5 -35.5t-89.5 -63.5t-65 -99t-33.5 -138h-145q28 219 183 350t384 131q545 0 545 -768q0 -176 -29.5 -316
t-81.5 -233.5t-126.5 -155.5t-160 -89t-186.5 -27zM649 96q94 0 168.5 34.5t121 93t71 132.5t24.5 156q0 160 -90 260t-260 100q-172 0 -277.5 -104.5t-105.5 -292.5q0 -174 91.5 -276.5t256.5 -102.5z" />
    <glyph glyph-name="emptyset" unicode="&#x2205;" horiz-adv-x="1460" 
d="M1081 1047q114 -77 176 -203.5t62 -286.5q0 -265 -162 -427.5t-426 -162.5q-143 0 -250 45l-155 -266h-136l189 322q-114 77 -176 203t-62 286q0 265 162.5 427.5t427.5 162.5q141 0 248 -45l156 266h135zM256 557q0 -126 46.5 -225.5t133.5 -163.5l486 831
q-97 33 -191 33q-214 0 -344.5 -130.5t-130.5 -344.5zM731 82q214 0 343.5 130.5t129.5 344.5q0 126 -46.5 225.5t-133.5 163.5l-483 -831q94 -33 190 -33z" />
    <glyph glyph-name="product" unicode="&#x220f;" horiz-adv-x="1542" 
d="M1339 -238h-151v1643h-834v-1643h-149v1794h1134v-1794z" />
    <glyph glyph-name="summation" unicode="&#x2211;" horiz-adv-x="1542" 
d="M354 -86h985v-152h-1134v172l442 766l-442 684v172h1114v-151h-965l463 -705z" />
    <glyph glyph-name="minus" unicode="&#x2212;" horiz-adv-x="1155" 
d="M1049 592v-121h-943v121h943z" />
    <glyph glyph-name="radical" unicode="&#x221a;" horiz-adv-x="1447" 
d="M498 -233h-166l-303 784h186l154 -451l45 -116h4l43 116l495 1456h396v-159h-275z" />
    <glyph glyph-name="infinity" unicode="&#x221e;" horiz-adv-x="1830" 
d="M481 172q-177 0 -295 115.5t-118 300.5q0 183 117.5 297t295.5 114q134 0 245.5 -66.5t188.5 -184.5q79 119 190.5 185t246.5 66q176 0 293.5 -114t117.5 -297q0 -185 -117.5 -300.5t-293.5 -115.5q-134 0 -246 67.5t-191 186.5q-77 -119 -189 -186.5t-245 -67.5z
M496 287q119 0 209.5 79.5t144.5 219.5q-57 144 -145.5 221.5t-204.5 77.5q-127 0 -216 -83t-89 -216q0 -132 87 -215.5t214 -83.5zM1337 287q126 0 212.5 83.5t86.5 215.5q0 133 -89 216t-216 83q-118 0 -207.5 -77.5t-144.5 -221.5q53 -140 144.5 -219.5t213.5 -79.5z" />
    <glyph glyph-name="integral" unicode="&#x222b;" horiz-adv-x="1157" 
d="M940 1589q82 0 123 -12l-29 -162l-4 1q-3 0 -8.5 1t-12.5 2t-18 1.5t-22 0.5q-86 0 -131.5 -33t-57.5 -104l-225 -1284q-30 -171 -111.5 -254.5t-226.5 -83.5q-20 0 -39.5 1t-34 3t-25.5 4t-18 3l-6 1l29 162q0 1 1.5 0.5t8 -1.5t13.5 -2t18.5 -2t23.5 -1q87 0 132 33
t57 104l225 1286q30 171 111.5 253.5t226.5 82.5z" />
    <glyph glyph-name="approxequal" unicode="&#x2248;" horiz-adv-x="1372" 
d="M899 612q-56 0 -105 20.5t-84.5 49t-68 57.5t-69.5 49.5t-74 20.5q-22 0 -43.5 -6.5t-44 -22t-36.5 -47.5t-14 -76v-34h-122v30q0 115 71 193t187 78q56 0 106 -20.5t86.5 -50t70 -58.5t72 -49.5t78.5 -20.5q103 0 103 141v25h123v-21q0 -106 -60.5 -182t-175.5 -76z
M899 233q-56 0 -105 20.5t-84.5 49.5t-68 57.5t-69.5 49t-74 20.5q-22 0 -43.5 -7t-44 -22.5t-36.5 -48t-14 -76.5v-32h-122v30q0 114 71.5 192.5t186.5 78.5q56 0 106 -20.5t86.5 -50.5t70 -59.5t72 -50t78.5 -20.5q103 0 103 143v25h123v-20q0 -107 -60.5 -183t-175.5 -76
z" />
    <glyph glyph-name="notequal" unicode="&#x2260;" horiz-adv-x="1255" 
d="M1100 389v-121h-488l-84 -268h-141l84 268h-313v121h352l104 328h-456v121h493l76 237h141l-73 -237h305v-121h-344l-103 -328h447z" />
    <glyph glyph-name="lessequal" unicode="&#x2264;" horiz-adv-x="1196" 
d="M1022 1249v-125l-803 -462l844 -463v-199h-942v121h856l-815 438v207z" />
    <glyph glyph-name="greaterequal" unicode="&#x2265;" horiz-adv-x="1191" 
d="M129 0v199l844 463l-803 462v125l860 -483v-207l-815 -438h856v-121h-942z" />
    <glyph glyph-name="lozenge" unicode="&#x25ca;" horiz-adv-x="985" 
d="M592 1307l364 -670l-364 -670h-195l-368 670l368 670h195zM180 637l314 -594l315 594l-315 594z" />
    <glyph glyph-name="I.ss01" horiz-adv-x="1452" 
d="M637 1384h-479v172h1134l2 -172h-477v-1212h477l-2 -172h-1134v172h479v1212z" />
    <glyph glyph-name="Iacute.ss01" horiz-adv-x="1452" 
d="M715 2038h243l-337 -359h-127zM637 1384h-479v172h1134l2 -172h-477v-1212h477l-2 -172h-1134v172h479v1212z" />
    <glyph glyph-name="Icircumflex.ss01" horiz-adv-x="1452" 
d="M516 1679h-133l242 359h202l242 -359h-131l-211 244zM637 1384h-479v172h1134l2 -172h-477v-1212h477l-2 -172h-1134v172h479v1212z" />
    <glyph glyph-name="Idieresis.ss01" horiz-adv-x="1452" 
d="M567 1845q-38 0 -66 28.5t-28 70.5q0 36 28.5 63t65.5 27q43 0 70 -26t27 -64q0 -42 -28.5 -70.5t-68.5 -28.5zM868 1845q-39 0 -66.5 28.5t-27.5 70.5q0 37 28 63.5t66 26.5q42 0 69.5 -26.5t27.5 -63.5q0 -42 -29 -70.5t-68 -28.5zM637 1384h-479v172h1134l2 -172h-477
v-1212h477l-2 -172h-1134v172h479v1212z" />
    <glyph glyph-name="Idotaccent.ss01" horiz-adv-x="1452" 
d="M727 1810q-56 0 -94.5 38.5t-38.5 93.5q0 54 38.5 91.5t94.5 37.5q53 0 92 -38t39 -91q0 -55 -39 -93.5t-92 -38.5zM637 1384h-479v172h1134l2 -172h-477v-1212h477l-2 -172h-1134v172h479v1212z" />
    <glyph glyph-name="Igrave.ss01" horiz-adv-x="1452" 
d="M831 1679l-337 359h243l221 -359h-127zM637 1384h-479v172h1134l2 -172h-477v-1212h477l-2 -172h-1134v172h479v1212z" />
    <glyph glyph-name="Imacron.ss01" horiz-adv-x="1452" 
d="M1047 1956v-144h-639v144h639zM637 1384h-479v172h1134l2 -172h-477v-1212h477l-2 -172h-1134v172h479v1212z" />
    <glyph glyph-name="Iogonek.ss01" horiz-adv-x="1452" 
d="M1292 0h-518q-135 -109 -135 -199q0 -43 34.5 -66.5t100.5 -23.5q35 0 62 4v-121q-40 -6 -97 -6q-115 0 -173 55t-58 126q0 40 17 77.5t49 68.5t53 48t51 37h-520v172h479v1212h-479v172h1134l2 -172h-477v-1212h477z" />
    <glyph glyph-name="J.ss01" horiz-adv-x="1177" 
d="M559 -33q-233 0 -369 125t-153 361h180q41 -310 328 -310q43 0 78 6t63 20.5t49.5 31t38 46.5t28 56.5t19 71t12 81.5t6.5 96.5t2.5 105.5t0.5 120v606h-682v172h860v-757q0 -89 -0.5 -139.5t-3.5 -128t-9.5 -122t-17.5 -106.5t-29 -98t-42.5 -80t-58.5 -68.5
t-77.5 -47.5t-99.5 -32.5t-123 -9.5z" />
    <glyph glyph-name="K.ss01" horiz-adv-x="1390" 
d="M766 614l-363 -614l-18 4v-4h-182v1556h182v-1247l711 1247h207l-433 -755l461 -801h-207z" />
    <glyph glyph-name="Kcommaaccent.ss01" horiz-adv-x="1390" 
d="M766 614l-363 -614l-18 4v-4h-182v1556h182v-1247l711 1247h207l-433 -755l461 -801h-207zM674 -492h-96l69 349h156z" />
    <glyph glyph-name="M.ss01" horiz-adv-x="1742" 
d="M870 494l463 1062h205v-1556h-178v1235l-387 -893h-203l-387 893v-1235h-178v1556h205z" />
    <glyph glyph-name="Q.ss01" horiz-adv-x="1714" 
d="M860 -33q-68 0 -117 8l-96 -149h598v-164h-784v164l123 188q-218 81 -343.5 281.5t-125.5 482.5q0 243 94 427.5t263 284t388 99.5q163 0 300 -58t234 -162.5t151 -256.5t54 -334t-54 -334t-151 -256.5t-234 -162.5t-300 -58zM303 778q0 -289 152.5 -462t402.5 -173
q249 0 401 173t152 462t-152 462t-401 173q-250 0 -402.5 -173t-152.5 -462z" />
    <glyph glyph-name="R.ss01" horiz-adv-x="1370" 
d="M739 1556q249 0 382.5 -100t133.5 -305q0 -184 -131.5 -287t-392.5 -104l582 -760h-211l-600 766h-119v-766h-178v1556h534zM778 922q79 0 145 24t110 78t44 129q0 111 -81.5 174.5t-252.5 63.5h-360v-469h395z" />
    <glyph glyph-name="Racute.ss01" horiz-adv-x="1349" 
d="M745 2038h244l-338 -359h-127zM739 1556q249 0 382.5 -100t133.5 -305q0 -184 -131.5 -287t-392.5 -104l582 -760h-211l-600 766h-119v-766h-178v1556h534zM778 922q79 0 145 24t110 78t44 129q0 111 -81.5 174.5t-252.5 63.5h-360v-469h395z" />
    <glyph glyph-name="Rcaron.ss01" horiz-adv-x="1349" 
d="M414 2038h133l211 -244l211 244h131l-242 -359h-203zM739 1556q249 0 382.5 -100t133.5 -305q0 -184 -131.5 -287t-392.5 -104l582 -760h-211l-600 766h-119v-766h-178v1556h534zM778 922q79 0 145 24t110 78t44 129q0 111 -81.5 174.5t-252.5 63.5h-360v-469h395z" />
    <glyph glyph-name="Rcommaaccent.ss01" horiz-adv-x="1349" 
d="M739 1556q249 0 382.5 -100t133.5 -305q0 -184 -131.5 -287t-392.5 -104l582 -760h-211l-600 766h-119v-766h-178v1556h534zM778 922q79 0 145 24t110 78t44 129q0 111 -81.5 174.5t-252.5 63.5h-360v-469h395zM741 -492h-96l70 349h155z" />
    <glyph glyph-name="U.ss01" horiz-adv-x="1492" 
d="M772 -33q-113 0 -201 22.5t-147.5 58t-101 97t-64 120t-35 148t-15.5 160t-3 175.5v808h180v-821q0 -83 2.5 -141.5t12 -124.5t26 -111t46 -89t70.5 -69.5t100.5 -41t135.5 -15.5t135.5 15.5t100.5 41t70.5 69.5t46 89t26 111t12 124.5t2.5 141.5v821h181v-1556h-181v156
q-58 -104 -152 -146.5t-247 -42.5z" />
    <glyph glyph-name="Uacute.ss01" horiz-adv-x="1492" 
d="M762 2038h244l-338 -359h-127zM772 -33q-113 0 -201 22.5t-147.5 58t-101 97t-64 120t-35 148t-15.5 160t-3 175.5v808h180v-821q0 -83 2.5 -141.5t12 -124.5t26 -111t46 -89t70.5 -69.5t100.5 -41t135.5 -15.5t135.5 15.5t100.5 41t70.5 69.5t46 89t26 111t12 124.5
t2.5 141.5v821h181v-1556h-181v156q-58 -104 -152 -146.5t-247 -42.5z" />
    <glyph glyph-name="Ucircumflex.ss01" horiz-adv-x="1488" 
d="M563 1679h-133l242 359h202l242 -359h-131l-211 244zM774 -33q-113 0 -201 22.5t-147.5 58t-101 97t-64 120t-35 148t-15.5 160t-3 175.5v808h180v-821q0 -83 2.5 -141.5t12 -124.5t26 -111t46 -89t70.5 -69.5t100.5 -41t135.5 -15.5q67 0 121 11t93.5 34t69 51.5
t49 71.5t32 85.5t19 102t8.5 112t2 124.5v821h180v-1556h-180v156q-58 -104 -152.5 -146.5t-247.5 -42.5z" />
    <glyph glyph-name="Udieresis.ss01" horiz-adv-x="1492" 
d="M698 1866h-153v172h153v-172zM1012 1866h-154v172h154v-172zM772 -33q-113 0 -201 22.5t-147.5 58t-101 97t-64 120t-35 148t-15.5 160t-3 175.5v808h180v-821q0 -83 2.5 -141.5t12 -124.5t26 -111t46 -89t70.5 -69.5t100.5 -41t135.5 -15.5t135.5 15.5t100.5 41
t70.5 69.5t46 89t26 111t12 124.5t2.5 141.5v821h181v-1556h-181v156q-58 -104 -152 -146.5t-247 -42.5z" />
    <glyph glyph-name="Ugrave.ss01" horiz-adv-x="1492" 
d="M879 1679l-338 359h243l222 -359h-127zM772 -33q-113 0 -201 22.5t-147.5 58t-101 97t-64 120t-35 148t-15.5 160t-3 175.5v808h180v-821q0 -83 2.5 -141.5t12 -124.5t26 -111t46 -89t70.5 -69.5t100.5 -41t135.5 -15.5t135.5 15.5t100.5 41t70.5 69.5t46 89t26 111
t12 124.5t2.5 141.5v821h181v-1556h-181v156q-58 -104 -152 -146.5t-247 -42.5z" />
    <glyph glyph-name="Uhungarumlaut.ss01" horiz-adv-x="1490" 
d="M551 2038h244l-338 -359h-127zM973 2038h244l-338 -359h-127zM772 -33q-113 0 -201 22.5t-147.5 58t-101 97t-64 120t-35 148t-15.5 160t-3 175.5v808h180v-821q0 -83 2.5 -141.5t12 -124.5t26 -111t46 -89t70.5 -69.5t100.5 -41t135.5 -15.5t135.5 15.5t100.5 41
t70.5 69.5t46 89t26 111t12 124.5t2.5 141.5v821h181v-1556h-181v156q-58 -104 -152 -146.5t-247 -42.5z" />
    <glyph glyph-name="Umacron.ss01" horiz-adv-x="1492" 
d="M1094 1956v-144h-639v144h639zM772 -33q-113 0 -201 22.5t-147.5 58t-101 97t-64 120t-35 148t-15.5 160t-3 175.5v808h180v-821q0 -83 2.5 -141.5t12 -124.5t26 -111t46 -89t70.5 -69.5t100.5 -41t135.5 -15.5t135.5 15.5t100.5 41t70.5 69.5t46 89t26 111t12 124.5
t2.5 141.5v821h181v-1556h-181v156q-58 -104 -152 -146.5t-247 -42.5z" />
    <glyph glyph-name="Uogonek.ss01" horiz-adv-x="1492" 
d="M1171 0v156q-52 -91 -128.5 -134.5t-192.5 -52.5q-100 -92 -100 -168q0 -43 34.5 -66.5t100.5 -23.5q34 0 61 4v-121q-40 -6 -96 -6q-113 0 -171 55t-58 126q0 103 122 198q-107 3 -190.5 27.5t-140 60.5t-96 98t-61 119.5t-33 146t-14.5 157.5t-3 172v808h180v-821
q0 -83 2.5 -141.5t12 -124.5t26 -111t46 -89t70.5 -69.5t100.5 -41t135.5 -15.5t135.5 15.5t100.5 41t70.5 69.5t46 89t26 111t12 124.5t2.5 141.5v821h181v-1556h-181z" />
    <glyph glyph-name="Uring.ss01" horiz-adv-x="1492" 
d="M774 1729q-78 0 -125 46t-47 123q0 75 47 120.5t125 45.5q77 0 123.5 -45.5t46.5 -120.5q0 -76 -46.5 -122.5t-123.5 -46.5zM774 1821q34 0 55 20.5t21 54.5q0 35 -21 55.5t-55 20.5q-35 0 -56.5 -20.5t-21.5 -55.5q0 -34 21.5 -54.5t56.5 -20.5zM772 -33
q-113 0 -201 22.5t-147.5 58t-101 97t-64 120t-35 148t-15.5 160t-3 175.5v808h180v-821q0 -83 2.5 -141.5t12 -124.5t26 -111t46 -89t70.5 -69.5t100.5 -41t135.5 -15.5t135.5 15.5t100.5 41t70.5 69.5t46 89t26 111t12 124.5t2.5 141.5v821h181v-1556h-181v156
q-58 -104 -152 -146.5t-247 -42.5z" />
    <glyph glyph-name="X.ss01" horiz-adv-x="1439" 
d="M307 1556l414 -684l412 684h221l-486 -772l514 -784h-219l-442 698l-445 -698h-219l514 784l-483 772h219z" />
    <glyph glyph-name="i.loclTRK" horiz-adv-x="493" 
d="M248 1329q-56 0 -94.5 38t-38.5 93q0 54 38.5 91.5t94.5 37.5q53 0 92 -38t39 -91q0 -55 -39 -93t-92 -38zM334 0h-174v1075h174v-1075z" />
    <glyph glyph-name="a.ss01" horiz-adv-x="1239" 
d="M563 -33q-153 0 -264 76.5t-165 205t-54 292.5q0 120 30.5 221.5t89.5 179.5t154.5 122t218.5 44q241 0 361 -201v168h174v-1075h-174v162q-122 -195 -371 -195zM592 125q156 0 249 97t93 267v127q0 151 -96 242.5t-250 91.5q-166 0 -256 -110.5t-90 -296.5
q0 -190 91 -304t259 -114z" />
    <glyph glyph-name="aacute.ss01" horiz-adv-x="1239" 
d="M584 1554h243l-338 -358h-127zM563 -33q-153 0 -264 76.5t-165 205t-54 292.5q0 120 30.5 221.5t89.5 179.5t154.5 122t218.5 44q241 0 361 -201v168h174v-1075h-174v162q-122 -195 -371 -195zM592 125q156 0 249 97t93 267v127q0 151 -96 242.5t-250 91.5
q-166 0 -256 -110.5t-90 -296.5q0 -190 91 -304t259 -114z" />
    <glyph glyph-name="abreve.ss01" horiz-adv-x="1239" 
d="M963 1554q0 -161 -100.5 -259.5t-266.5 -98.5t-267.5 98.5t-101.5 259.5h154q0 -97 59 -155t156 -58t155 58t58 155h154zM563 -33q-153 0 -264 76.5t-165 205t-54 292.5q0 120 30.5 221.5t89.5 179.5t154.5 122t218.5 44q241 0 361 -201v168h174v-1075h-174v162
q-122 -195 -371 -195zM592 125q156 0 249 97t93 267v127q0 151 -96 242.5t-250 91.5q-166 0 -256 -110.5t-90 -296.5q0 -190 91 -304t259 -114z" />
    <glyph glyph-name="acircumflex.ss01" horiz-adv-x="1239" 
d="M385 1196h-133l242 358h202l242 -358h-131l-211 244zM563 -33q-153 0 -264 76.5t-165 205t-54 292.5q0 120 30.5 221.5t89.5 179.5t154.5 122t218.5 44q241 0 361 -201v168h174v-1075h-174v162q-122 -195 -371 -195zM592 125q156 0 249 97t93 267v127q0 151 -96 242.5
t-250 91.5q-166 0 -256 -110.5t-90 -296.5q0 -190 91 -304t259 -114z" />
    <glyph glyph-name="adieresis.ss01" horiz-adv-x="1239" 
d="M455 1364q-38 0 -66.5 28t-28.5 70q0 36 29 63t66 27q43 0 69.5 -26t26.5 -64q0 -42 -28 -70t-68 -28zM756 1364q-39 0 -66.5 28t-27.5 70q0 37 28 63.5t66 26.5q42 0 69 -26t27 -64q0 -42 -28.5 -70t-67.5 -28zM563 -33q-153 0 -264 76.5t-165 205t-54 292.5
q0 120 30.5 221.5t89.5 179.5t154.5 122t218.5 44q241 0 361 -201v168h174v-1075h-174v162q-122 -195 -371 -195zM592 125q156 0 249 97t93 267v127q0 151 -96 242.5t-250 91.5q-166 0 -256 -110.5t-90 -296.5q0 -190 91 -304t259 -114z" />
    <glyph glyph-name="agrave.ss01" horiz-adv-x="1239" 
d="M700 1196l-338 358h244l221 -358h-127zM563 -33q-153 0 -264 76.5t-165 205t-54 292.5q0 120 30.5 221.5t89.5 179.5t154.5 122t218.5 44q241 0 361 -201v168h174v-1075h-174v162q-122 -195 -371 -195zM592 125q156 0 249 97t93 267v127q0 151 -96 242.5t-250 91.5
q-166 0 -256 -110.5t-90 -296.5q0 -190 91 -304t259 -114z" />
    <glyph glyph-name="amacron.ss01" horiz-adv-x="1239" 
d="M913 1473v-144h-639v144h639zM563 -33q-153 0 -264 76.5t-165 205t-54 292.5q0 120 30.5 221.5t89.5 179.5t154.5 122t218.5 44q241 0 361 -201v168h174v-1075h-174v162q-122 -195 -371 -195zM592 125q156 0 249 97t93 267v127q0 151 -96 242.5t-250 91.5
q-166 0 -256 -110.5t-90 -296.5q0 -190 91 -304t259 -114z" />
    <glyph glyph-name="aogonek.ss01" horiz-adv-x="1239" 
d="M1020 0q-139 -112 -139 -201q0 -43 34.5 -66.5t100.5 -23.5q34 0 61 4v-121q-41 -6 -96 -6q-115 0 -173 55t-58 126q0 21 4.5 40.5t14 38t18.5 33.5t25 31l26 26t28.5 24t25.5 19.5t24 16.5t18 12v154q-122 -195 -371 -195q-153 0 -264 76.5t-165 205t-54 292.5
q0 120 30.5 221.5t89.5 179.5t154.5 122t218.5 44q241 0 361 -201v168h174v-1075h-88zM592 125q156 0 249 97t93 267v127q0 151 -96 242.5t-250 91.5q-166 0 -256 -110.5t-90 -296.5q0 -190 91 -304t259 -114z" />
    <glyph glyph-name="aring.ss01" horiz-adv-x="1239" 
d="M596 1245q-78 0 -125 46.5t-47 123.5q0 75 47 120.5t125 45.5q77 0 123.5 -45.5t46.5 -120.5q0 -77 -47 -123.5t-123 -46.5zM596 1337q34 0 55 21t21 55q0 35 -21 55.5t-55 20.5q-35 0 -56.5 -20.5t-21.5 -55.5q0 -34 21.5 -55t56.5 -21zM563 -33q-153 0 -264 76.5
t-165 205t-54 292.5q0 120 30.5 221.5t89.5 179.5t154.5 122t218.5 44q241 0 361 -201v168h174v-1075h-174v162q-122 -195 -371 -195zM592 125q156 0 249 97t93 267v127q0 151 -96 242.5t-250 91.5q-166 0 -256 -110.5t-90 -296.5q0 -190 91 -304t259 -114z" />
    <glyph glyph-name="atilde.ss01" horiz-adv-x="1239" 
d="M461 1511q41 0 78.5 -20.5t61 -45t53 -45t55.5 -20.5q34 0 56.5 33t22.5 88h130q0 -129 -52.5 -195.5t-136.5 -66.5q-38 0 -71 14t-56 33.5t-43.5 39.5t-41.5 34t-42 14q-34 0 -54 -34.5t-20 -90.5h-129q0 114 53.5 188t135.5 74zM563 -33q-153 0 -264 76.5t-165 205
t-54 292.5q0 120 30.5 221.5t89.5 179.5t154.5 122t218.5 44q241 0 361 -201v168h174v-1075h-174v162q-122 -195 -371 -195zM592 125q156 0 249 97t93 267v127q0 151 -96 242.5t-250 91.5q-166 0 -256 -110.5t-90 -296.5q0 -190 91 -304t259 -114z" />
    <glyph glyph-name="d.ss01" horiz-adv-x="1257" 
d="M551 -33q-218 0 -350.5 160.5t-132.5 421.5q0 252 136 405.5t359 153.5q104 0 203 -49t156 -129v626h174v-1556h-92l-82 137q-59 -75 -161.5 -122.5t-209.5 -47.5zM580 125q155 0 248.5 100t93.5 264v127q0 151 -95 242.5t-252 91.5q-149 0 -240 -111.5t-91 -295.5
q0 -189 92 -303.5t244 -114.5z" />
    <glyph glyph-name="i.ss01" horiz-adv-x="495" 
d="M248 1323q-48 0 -82.5 33.5t-34.5 83.5q0 47 34.5 79.5t82.5 32.5q51 0 84 -33t33 -79q0 -50 -34.5 -83.5t-82.5 -33.5zM336 0h-174v1075h174v-1075z" />
    <glyph glyph-name="idieresis.ss01" horiz-adv-x="493" 
d="M88 1364q-38 0 -66 28t-28 70q0 36 28.5 63t65.5 27q43 0 69.5 -26t26.5 -64q0 -42 -28 -70t-68 -28zM389 1364q-39 0 -66.5 28t-27.5 70q0 37 28 63.5t66 26.5q42 0 69 -26t27 -64q0 -42 -28.5 -70t-67.5 -28zM334 0h-174v1075h174v-1075z" />
    <glyph glyph-name="j.ss01" horiz-adv-x="493" 
d="M246 1323q-48 0 -82.5 33.5t-34.5 83.5q0 47 34.5 79.5t82.5 32.5t82 -32.5t34 -79.5q0 -50 -34 -83.5t-82 -33.5zM47 -492q-25 0 -54.5 3t-46.5 7l-16 3v162q23 -7 66 -7q87 0 125.5 31t38.5 98v1270h174v-1243q0 -161 -66.5 -242.5t-220.5 -81.5z" />
    <glyph glyph-name="k.ss01" horiz-adv-x="1058" 
d="M305 0h-174v1556h174v-1263l508 782h201l-342 -518l358 -557h-209l-252 397z" />
    <glyph glyph-name="kcommaaccent.ss01" horiz-adv-x="1058" 
d="M305 0h-174v1556h174v-1263l508 782h201l-342 -518l358 -557h-209l-252 397zM584 -492h-97l70 349h156z" />
    <glyph glyph-name="l.ss01" horiz-adv-x="436" 
d="M305 1075v-1075h-174v1556h113z" />
    <glyph glyph-name="lacute.ss01" horiz-adv-x="499" 
d="M389 1995h244l-338 -359h-127zM315 1075v-1075h-174v1556h113z" />
    <glyph glyph-name="lcaron.ss01" horiz-adv-x="493" 
d="M315 1075v-1075h-174v1556h113zM555 1556h197l-215 -358h-80z" />
    <glyph glyph-name="lcommaaccent.ss01" horiz-adv-x="493" 
d="M315 1075v-1075h-174v1556h113zM193 -492h-97l70 349h156z" />
    <glyph glyph-name="lslash.ss01" horiz-adv-x="436" 
d="M289 0h-174v594l-189 -127v195l189 126v768h112l62 -481v-172l225 152v-195l-225 -151v-709z" />
    <glyph glyph-name="n.ss01" horiz-adv-x="1193" 
d="M1055 0h-174v901h-576v-901h-174v1075h924v-1075z" />
    <glyph glyph-name="nacute.ss01" horiz-adv-x="1193" 
d="M610 1556h244l-338 -358h-127zM1055 0h-174v901h-576v-901h-174v1075h924v-1075z" />
    <glyph glyph-name="ncaron.ss01" horiz-adv-x="1193" 
d="M279 1556h133l211 -243l211 243h131l-242 -358h-203zM1055 0h-174v901h-576v-901h-174v1075h924v-1075z" />
    <glyph glyph-name="ncommaaccent.ss01" horiz-adv-x="1193" 
d="M1055 0h-174v901h-576v-901h-174v1075h924v-1075zM606 -492h-96l70 349h155z" />
    <glyph glyph-name="ntilde.ss01" horiz-adv-x="1193" 
d="M487 1513q41 0 78.5 -20.5t61 -45t53 -45t55.5 -20.5q34 0 57 33.5t23 87.5h129q0 -129 -52 -195.5t-136 -66.5q-38 0 -71 14t-56 33.5t-43.5 39.5t-41.5 34t-42 14q-34 0 -54 -34.5t-20 -90.5h-129q0 114 53 188t135 74zM1055 0h-174v901h-576v-901h-174v1075h924v-1075
z" />
    <glyph glyph-name="q.ss01" horiz-adv-x="1257" 
d="M922 137q-59 -75 -161.5 -122.5t-209.5 -47.5q-218 0 -350.5 158t-132.5 416q0 255 136 411t357 156q105 0 204.5 -49t156.5 -129l82 145h92v-1567h-174v629zM580 125q155 0 248.5 100t93.5 264v127q0 151 -95 242.5t-252 91.5q-149 0 -240 -111.5t-91 -295.5
q0 -189 92 -303.5t244 -114.5z" />
    <glyph glyph-name="r.ss01" horiz-adv-x="718" 
d="M684 901h-379v-901h-174v1075h553v-174z" />
    <glyph glyph-name="racute.ss01" horiz-adv-x="751" 
d="M426 1556h244l-338 -358h-127zM686 901h-379v-901h-174v1075h553v-174z" />
    <glyph glyph-name="rcaron.ss01" horiz-adv-x="749" 
d="M94 1556h133l211 -243l211 243h131l-241 -358h-203zM686 901h-379v-901h-174v1075h553v-174z" />
    <glyph glyph-name="rcommaaccent.ss01" horiz-adv-x="749" 
d="M700 901h-378v-901h-175v1075h553v-174zM188 -492h-96l70 349h155z" />
    <glyph glyph-name="germandbls.ss01" horiz-adv-x="1490" 
d="M899 -33q-104 0 -193.5 33.5t-147.5 87.5t-91 120t-35 132h174q11 -91 89.5 -157t203.5 -66q161 0 249.5 112t88.5 279q0 160 -82.5 259t-228.5 99q-96 0 -161.5 -44.5t-113.5 -131.5l-39 -78l-182 -16l414 786h-539v-1382h-174v1556h891v-174l-223 -389h16q79 33 150 33
q120 0 220.5 -64.5t161 -182.5t60.5 -265q0 -108 -34 -206t-96.5 -174.5t-160.5 -121.5t-217 -45z" />
    <glyph glyph-name="t.ss01" horiz-adv-x="667" 
d="M39 1075h147v277h174v-277h246v-145h-246v-930h-174v930h-147v145z" />
    <glyph glyph-name="tbar.ss01" horiz-adv-x="735" 
d="M668 621v-142h-246v-479h-174v479h-148v142h148v309h-148v145h148v277h174v-277h246v-145h-246v-309h246z" />
    <glyph glyph-name="tcaron.ss01" horiz-adv-x="966" 
d="M637 1556h197l-216 -358h-79zM35 1075h147v277h174v-277h246v-145h-246v-930h-174v930h-147v145z" />
    <glyph glyph-name="uni0163.ss01" horiz-adv-x="663" 
d="M217 -104q72 0 116 -36.5t44 -95.5q0 -68 -51 -110.5t-127 -42.5h-117v92h102q42 0 67 16t25 43q0 25 -25.5 39.5t-66.5 14.5h-82v80l97 104h-15v930h-147v145h147v277h174v-277h246v-145h-246v-930h-59l-109 -104h27z" />
    <glyph glyph-name="uni021B.ss01" horiz-adv-x="669" 
d="M41 1075h147v277h174v-277h246v-145h-246v-930h-174v930h-147v145zM225 -492h-96l70 349h155z" />
    <glyph glyph-name="u.ss01" horiz-adv-x="1243" 
d="M334 174h575v901h174v-1075h-923v1075h174v-901z" />
    <glyph glyph-name="uacute.ss01" horiz-adv-x="1153" 
d="M551 1556h244l-338 -358h-127zM272 174h576v901h174v-1075h-924v1075h174v-901z" />
    <glyph glyph-name="ucircumflex.ss01" horiz-adv-x="1153" 
d="M352 1198h-133l242 358h203l241 -358h-131l-211 244zM272 174h576v901h174v-1075h-924v1075h174v-901z" />
    <glyph glyph-name="udieresis.ss01" horiz-adv-x="1153" 
d="M481 1384h-153v172h153v-172zM795 1384h-154v172h154v-172zM272 174h576v901h174v-1075h-924v1075h174v-901z" />
    <glyph glyph-name="ugrave.ss01" horiz-adv-x="1153" 
d="M668 1198l-338 358h243l222 -358h-127zM272 174h576v901h174v-1075h-924v1075h174v-901z" />
    <glyph glyph-name="uhungarumlaut.ss01" horiz-adv-x="1132" 
d="M332 1556h243l-337 -358h-127zM754 1556h243l-338 -358h-127zM262 174h576v901h174v-1075h-924v1075h174v-901z" />
    <glyph glyph-name="umacron.ss01" horiz-adv-x="1153" 
d="M881 1475v-144h-639v144h639zM272 174h576v901h174v-1075h-924v1075h174v-901z" />
    <glyph glyph-name="uogonek.ss01" horiz-adv-x="1153" 
d="M664 0q-136 -109 -136 -199q0 -43 35 -66.5t101 -23.5q34 0 61 4v-121q-41 -6 -96 -6q-115 0 -173.5 55t-58.5 126q0 40 17 77.5t49 68.5t53 48t51 37h-469v1075h174v-901h576v901h174v-1075h-358z" />
    <glyph glyph-name="uring.ss01" horiz-adv-x="1153" 
d="M563 1247q-78 0 -125 46.5t-47 123.5q0 75 47 120.5t125 45.5q77 0 123.5 -45.5t46.5 -120.5q0 -77 -46.5 -123.5t-123.5 -46.5zM563 1339q34 0 55 21t21 55q0 35 -21 55.5t-55 20.5q-35 0 -56.5 -20.5t-21.5 -55.5q0 -34 21.5 -55t56.5 -21zM272 174h576v901h174v-1075
h-924v1075h174v-901z" />
    <glyph glyph-name="y.ss01" horiz-adv-x="1046" 
d="M225 1075l260 -758l35 -96h6l39 96l256 758h197l-410 -1075v-492h-170v492l-409 1075h196z" />
    <glyph glyph-name="yacute.ss01" horiz-adv-x="1046" 
d="M512 1556h244l-338 -358h-127zM225 1075l260 -758l35 -96h6l39 96l256 758h197l-410 -1075v-492h-170v492l-409 1075h196z" />
    <glyph glyph-name="ycircumflex.ss01" horiz-adv-x="1046" 
d="M313 1198h-133l242 358h203l241 -358h-131l-211 244zM225 1075l260 -758l35 -96h6l39 96l256 758h197l-410 -1075v-492h-170v492l-409 1075h196z" />
    <glyph glyph-name="ydieresis.ss01" horiz-adv-x="1046" 
d="M444 1384h-153v172h153v-172zM758 1384h-154v172h154v-172zM225 1075l260 -758l35 -96h6l39 96l256 758h197l-410 -1075v-492h-170v492l-409 1075h196z" />
    <glyph glyph-name="ygrave.ss01" horiz-adv-x="1046" 
d="M580 1198l-338 358h243l222 -358h-127zM225 1075l260 -758l35 -96h6l39 96l256 758h197l-410 -1075v-492h-170v492l-409 1075h196z" />
    <glyph glyph-name="A.smcp" horiz-adv-x="1445" 
d="M1376 0h-198l-156 377h-598l-156 -377h-198l555 1323h196zM492 551h464l-233 557z" />
    <glyph glyph-name="Aacute.smcp" horiz-adv-x="1445" 
d="M711 1804h243l-338 -358h-127zM1376 0h-198l-156 377h-598l-156 -377h-198l555 1323h196zM492 551h464l-233 557z" />
    <glyph glyph-name="Abreve.smcp" horiz-adv-x="1445" 
d="M1090 1804q0 -161 -100.5 -259.5t-266.5 -98.5t-267.5 98.5t-101.5 259.5h154q0 -97 59 -155t156 -58t155 58t58 155h154zM1376 0h-198l-156 377h-598l-156 -377h-198l555 1323h196zM492 551h464l-233 557z" />
    <glyph glyph-name="Acircumflex.smcp" horiz-adv-x="1445" 
d="M512 1446h-133l242 358h202l242 -358h-131l-211 244zM1376 0h-198l-156 377h-598l-156 -377h-198l555 1323h196zM492 551h464l-233 557z" />
    <glyph glyph-name="Adieresis.smcp" horiz-adv-x="1445" 
d="M641 1632h-154v172h154v-172zM954 1632h-153v172h153v-172zM1376 0h-198l-156 377h-598l-156 -377h-198l555 1323h196zM492 551h464l-233 557z" />
    <glyph glyph-name="Agrave.smcp" horiz-adv-x="1445" 
d="M827 1446l-338 358h244l221 -358h-127zM1376 0h-198l-156 377h-598l-156 -377h-198l555 1323h196zM492 551h464l-233 557z" />
    <glyph glyph-name="Amacron.smcp" horiz-adv-x="1445" 
d="M1042 1722v-143h-639v143h639zM1376 0h-198l-156 377h-598l-156 -377h-198l555 1323h196zM492 551h464l-233 557z" />
    <glyph glyph-name="Aogonek.smcp" horiz-adv-x="1445" 
d="M1112 -201q0 -43 34.5 -66.5t100.5 -23.5q35 0 62 4v-121q-41 -6 -97 -6q-115 0 -173 55t-58 126q0 19 4.5 38t11 35t18 32.5t20.5 28.5t24.5 26.5t25 23t26 20t23 16t20.5 14t15 9.5h5l-152 367h-598l-156 -377h-198l555 1323h196l555 -1323h-125q-139 -112 -139 -201z
M492 551h464l-233 557z" />
    <glyph glyph-name="Aring.smcp" horiz-adv-x="1445" 
d="M723 1495q-78 0 -125 46.5t-47 123.5q0 75 47 120.5t125 45.5q77 0 123.5 -45.5t46.5 -120.5q0 -77 -46.5 -123.5t-123.5 -46.5zM723 1587q34 0 55 21t21 55q0 35 -21 55.5t-55 20.5q-35 0 -56.5 -20.5t-21.5 -55.5q0 -34 21.5 -55t56.5 -21zM1376 0h-198l-156 377h-598
l-156 -377h-198l555 1323h196zM492 551h464l-233 557z" />
    <glyph glyph-name="Atilde.smcp" horiz-adv-x="1445" 
d="M588 1761q41 0 78.5 -20.5t61 -45t53 -45t55.5 -20.5q34 0 56.5 33t22.5 88h129q0 -129 -52 -195.5t-136 -66.5q-38 0 -71 14t-56 33.5t-43.5 39.5t-41.5 34t-42 14q-34 0 -54 -34.5t-20 -90.5h-129q0 114 53.5 188t135.5 74zM1376 0h-198l-156 377h-598l-156 -377h-198
l555 1323h196zM492 551h464l-233 557z" />
    <glyph glyph-name="AE.smcp" horiz-adv-x="2187" 
d="M1022 0v373h-551l-201 -373h-200l698 1323h1190v-184h-752v-353h678v-182h-678v-420h783v-184h-967zM1022 1139h-145l-310 -582h455v582z" />
    <glyph glyph-name="AEacute.smcp" horiz-adv-x="2187" 
d="M1092 1804h243l-338 -358h-127zM1022 0v373h-551l-201 -373h-200l698 1323h1190v-184h-752v-353h678v-182h-678v-420h783v-184h-967zM1022 1139h-145l-310 -582h455v582z" />
    <glyph glyph-name="B.smcp" horiz-adv-x="1341" 
d="M686 1323q212 0 340.5 -89t128.5 -261q0 -93 -58.5 -165.5t-140.5 -96.5q109 -14 191 -107t82 -225q0 -177 -114 -278t-337 -101h-581v1323h489zM651 780q154 0 239 45.5t85 135.5q0 94 -71.5 147t-217.5 53h-307v-381h272zM721 162q149 0 238.5 58.5t89.5 174.5
q0 106 -89 166t-255 60h-326v-459h342z" />
    <glyph glyph-name="C.smcp" horiz-adv-x="1521" 
d="M784 -29q-197 0 -348 85.5t-233 241t-82 357.5q0 311 184.5 504t485.5 193q246 0 416 -140t204 -366h-188q-28 149 -150.5 241.5t-294.5 92.5q-211 0 -338 -142.5t-127 -375.5t128 -376t339 -143q172 0 293.5 93.5t149.5 242.5h188q-34 -226 -206.5 -367t-420.5 -141z
" />
    <glyph glyph-name="Cacute.smcp" horiz-adv-x="1521" 
d="M752 1804h243l-338 -358h-127zM784 -29q-197 0 -348 85.5t-233 241t-82 357.5q0 311 184.5 504t485.5 193q246 0 416 -140t204 -366h-188q-28 149 -150.5 241.5t-294.5 92.5q-211 0 -338 -142.5t-127 -375.5t128 -376t339 -143q172 0 293.5 93.5t149.5 242.5h188
q-34 -226 -206.5 -367t-420.5 -141z" />
    <glyph glyph-name="Ccaron.smcp" horiz-adv-x="1521" 
d="M420 1804h133l211 -243l211 243h131l-242 -358h-202zM784 -29q-197 0 -348 85.5t-233 241t-82 357.5q0 311 184.5 504t485.5 193q246 0 416 -140t204 -366h-188q-28 149 -150.5 241.5t-294.5 92.5q-211 0 -338 -142.5t-127 -375.5t128 -376t339 -143q172 0 293.5 93.5
t149.5 242.5h188q-34 -226 -206.5 -367t-420.5 -141z" />
    <glyph glyph-name="Ccedilla.smcp" horiz-adv-x="1521" 
d="M780 143q172 0 293.5 93.5t149.5 242.5h188q-34 -221 -200 -361.5t-406 -146.5l-80 -75h27q72 0 115.5 -36.5t43.5 -95.5q0 -68 -51 -110.5t-127 -42.5h-117v92h103q42 0 67 16t25 43q0 25 -25.5 39.5t-66.5 14.5h-82v80l72 79q-267 25 -427.5 210t-160.5 470
q0 311 184.5 504t485.5 193q246 0 416 -140t204 -366h-188q-28 149 -150.5 241.5t-294.5 92.5q-211 0 -338 -142.5t-127 -375.5t128 -376t339 -143z" />
    <glyph glyph-name="Cdotaccent.smcp" horiz-adv-x="1521" 
d="M764 1577q-56 0 -94.5 38t-38.5 93q0 54 38.5 91.5t94.5 37.5q53 0 92 -38t39 -91q0 -55 -39 -93t-92 -38zM784 -29q-197 0 -348 85.5t-233 241t-82 357.5q0 311 184.5 504t485.5 193q246 0 416 -140t204 -366h-188q-28 149 -150.5 241.5t-294.5 92.5q-211 0 -338 -142.5
t-127 -375.5t128 -376t339 -143q172 0 293.5 93.5t149.5 242.5h188q-34 -226 -206.5 -367t-420.5 -141z" />
    <glyph glyph-name="D.smcp" horiz-adv-x="1456" 
d="M709 1323q298 0 466 -166.5t168 -501.5q0 -314 -150 -486t-450 -171l-546 2l2 1323h510zM705 172q211 0 328.5 121t117.5 371q0 234 -111 360.5t-335 126.5h-324v-979h324z" />
    <glyph glyph-name="Eth.smcp" horiz-adv-x="1456" 
d="M709 1323q298 0 466 -166.5t168 -501.5q0 -314 -150 -486t-450 -171l-546 2v590h-148v141h150v592h510zM705 172q211 0 328.5 121t117.5 371q0 234 -111 360.5t-335 126.5h-324v-420h307v-141h-307v-418h324z" />
    <glyph glyph-name="Dcaron.smcp" horiz-adv-x="1456" 
d="M381 1804h133l211 -243l211 243h131l-242 -358h-202zM709 1323q298 0 466 -166.5t168 -501.5q0 -314 -150 -486t-450 -171l-546 2l2 1323h510zM705 172q211 0 328.5 121t117.5 371q0 234 -111 360.5t-335 126.5h-324v-979h324z" />
    <glyph glyph-name="Dcroat.smcp" horiz-adv-x="1456" 
d="M709 1323q298 0 466 -166.5t168 -501.5q0 -314 -150 -486t-450 -171l-546 2v590h-148v141h150v592h510zM705 172q211 0 328.5 121t117.5 371q0 234 -111 360.5t-335 126.5h-324v-420h307v-141h-307v-418h324z" />
    <glyph glyph-name="E.smcp" horiz-adv-x="1361" 
d="M197 0v1323h938v-174h-758v-367h684v-176h-684v-432h788v-174h-968z" />
    <glyph glyph-name="Eacute.smcp" horiz-adv-x="1361" 
d="M670 1804h243l-338 -358h-126zM197 0v1323h938v-174h-758v-367h684v-176h-684v-432h788v-174h-968z" />
    <glyph glyph-name="Ecaron.smcp" horiz-adv-x="1361" 
d="M338 1804h133l211 -243l211 243h131l-242 -358h-202zM197 0v1323h938v-174h-758v-367h684v-176h-684v-432h788v-174h-968z" />
    <glyph glyph-name="Ecircumflex.smcp" horiz-adv-x="1361" 
d="M471 1446h-133l242 358h202l242 -358h-131l-211 244zM197 0v1323h938v-174h-758v-367h684v-176h-684v-432h788v-174h-968z" />
    <glyph glyph-name="Edieresis.smcp" horiz-adv-x="1361" 
d="M602 1632h-153v172h153v-172zM915 1632h-153v172h153v-172zM197 0v1323h938v-174h-758v-367h684v-176h-684v-432h788v-174h-968z" />
    <glyph glyph-name="Edotaccent.smcp" horiz-adv-x="1361" 
d="M682 1577q-56 0 -94.5 38t-38.5 93q0 54 38.5 91.5t94.5 37.5q53 0 92 -38t39 -91q0 -55 -39 -93t-92 -38zM197 0v1323h938v-174h-758v-367h684v-176h-684v-432h788v-174h-968z" />
    <glyph glyph-name="Egrave.smcp" horiz-adv-x="1361" 
d="M786 1446l-337 358h243l221 -358h-127zM197 0v1323h938v-174h-758v-367h684v-176h-684v-432h788v-174h-968z" />
    <glyph glyph-name="Emacron.smcp" horiz-adv-x="1361" 
d="M1001 1722v-143h-639v143h639zM197 0v1323h938v-174h-758v-367h684v-176h-684v-432h788v-174h-968z" />
    <glyph glyph-name="Eogonek.smcp" horiz-adv-x="1361" 
d="M1135 -291q34 0 61 4v-121q-40 -6 -96 -6q-115 0 -173.5 55t-58.5 126q0 41 18 79.5t50 69.5t53.5 48t50.5 36h-843v1323h938v-174h-758v-367h684v-176h-684v-432h788v-174h-26q-140 -113 -140 -201q0 -43 35 -66.5t101 -23.5z" />
    <glyph glyph-name="F.smcp" horiz-adv-x="1173" 
d="M1026 782v-176h-647v-606h-182v1323h919v-174h-737v-367h647z" />
    <glyph glyph-name="G.smcp" horiz-adv-x="1556" 
d="M838 -29q-324 0 -520.5 190.5t-196.5 502.5q0 311 183 499.5t482 188.5q245 0 416.5 -128.5t208.5 -338.5h-188q-32 133 -154 214t-291 81q-210 0 -337.5 -142t-127.5 -376q0 -235 145 -377t386 -142q116 0 223.5 41.5t165.5 110.5v211h-488v176h666v-457
q-82 -114 -240 -184t-333 -70z" />
    <glyph glyph-name="Gbreve.smcp" horiz-adv-x="1556" 
d="M1165 1804q0 -161 -100 -259.5t-266 -98.5t-267.5 98.5t-101.5 259.5h154q0 -97 59 -155t156 -58t155 58t58 155h153zM838 -29q-324 0 -520.5 190.5t-196.5 502.5q0 311 183 499.5t482 188.5q245 0 416.5 -128.5t208.5 -338.5h-188q-32 133 -154 214t-291 81
q-210 0 -337.5 -142t-127.5 -376q0 -235 145 -377t386 -142q116 0 223.5 41.5t165.5 110.5v211h-488v176h666v-457q-82 -114 -240 -184t-333 -70z" />
    <glyph glyph-name="Gcommaaccent.smcp" horiz-adv-x="1556" 
d="M838 -29q-324 0 -520.5 190.5t-196.5 502.5q0 311 183 499.5t482 188.5q245 0 416.5 -128.5t208.5 -338.5h-188q-32 133 -154 214t-291 81q-210 0 -337.5 -142t-127.5 -376q0 -235 145 -377t386 -142q116 0 223.5 41.5t165.5 110.5v211h-488v176h666v-457
q-82 -114 -240 -184t-333 -70zM782 -492h-96l70 349h155z" />
    <glyph glyph-name="Gdotaccent.smcp" horiz-adv-x="1556" 
d="M799 1577q-56 0 -94.5 38t-38.5 93q0 54 38.5 91.5t94.5 37.5q53 0 92 -38t39 -91q0 -55 -39 -93t-92 -38zM838 -29q-324 0 -520.5 190.5t-196.5 502.5q0 311 183 499.5t482 188.5q245 0 416.5 -128.5t208.5 -338.5h-188q-32 133 -154 214t-291 81q-210 0 -337.5 -142
t-127.5 -376q0 -235 145 -377t386 -142q116 0 223.5 41.5t165.5 110.5v211h-488v176h666v-457q-82 -114 -240 -184t-333 -70z" />
    <glyph glyph-name="H.smcp" horiz-adv-x="1445" 
d="M1069 0v604h-690v-604h-182v1323h182v-541h690v541h180v-1323h-180z" />
    <glyph glyph-name="Hbar.smcp" horiz-adv-x="1445" 
d="M1249 0h-180v604h-690v-604h-182v934h-111v141h111v248h182v-248h690v248h180v-248h111v-141h-111v-934zM379 782h690v152h-690v-152z" />
    <glyph glyph-name="I.smcp" horiz-adv-x="501" 
d="M342 0h-182v1323h182v-1323z" />
    <glyph glyph-name="Iacute.smcp" horiz-adv-x="501" 
d="M238 1804h243l-338 -358h-127zM342 0h-182v1323h182v-1323z" />
    <glyph glyph-name="Icircumflex.smcp" horiz-adv-x="501" 
d="M39 1446h-133l241 358h203l242 -358h-131l-211 244zM342 0h-182v1323h182v-1323z" />
    <glyph glyph-name="Idieresis.smcp" horiz-adv-x="501" 
d="M170 1632h-154v172h154v-172zM483 1632h-153v172h153v-172zM342 0h-182v1323h182v-1323z" />
    <glyph glyph-name="Idotaccent.smcp" horiz-adv-x="501" 
d="M250 1577q-56 0 -94.5 38t-38.5 93q0 54 38.5 91.5t94.5 37.5q53 0 92 -38t39 -91q0 -55 -39 -93t-92 -38zM342 0h-182v1323h182v-1323z" />
    <glyph glyph-name="Igrave.smcp" horiz-adv-x="501" 
d="M354 1446l-338 358h244l221 -358h-127zM342 0h-182v1323h182v-1323z" />
    <glyph glyph-name="Imacron.smcp" horiz-adv-x="501" 
d="M569 1722v-143h-639v143h639zM342 0h-182v1323h182v-1323z" />
    <glyph glyph-name="Iogonek.smcp" horiz-adv-x="501" 
d="M322 -291q34 0 61 4v-121q-40 -6 -96 -6q-115 0 -173.5 55t-58.5 126q0 41 18 79.5t50 69.5t53.5 48t50.5 36h-67v1323h182v-1323h-16q-140 -113 -140 -201q0 -43 35 -66.5t101 -23.5z" />
    <glyph glyph-name="J.smcp" horiz-adv-x="1122" 
d="M532 -29q-218 0 -342 109t-139 317h182q19 -128 89 -191t198 -63q74 0 123 23.5t76 58t40 109.5t16 140t3 188v661h185v-674q0 -116 -3.5 -188.5t-16.5 -160t-41.5 -139.5t-75 -100t-120.5 -69t-174 -21z" />
    <glyph glyph-name="K.smcp" horiz-adv-x="1267" 
d="M379 0h-182v1323h182v-598l561 598h229l-610 -649l639 -674h-229l-590 612v-612z" />
    <glyph glyph-name="Kcommaaccent.smcp" horiz-adv-x="1267" 
d="M379 612v-612h-182v1323h182v-598l561 598h229l-610 -649l639 -674h-229zM598 -492h-96l69 349h156z" />
    <glyph glyph-name="L.smcp" horiz-adv-x="1167" 
d="M197 0v1323h180v-1149h739v-174h-919z" />
    <glyph glyph-name="Lacute.smcp" horiz-adv-x="1167" 
d="M569 1804h244l-338 -358h-127zM197 0v1323h180v-1149h739v-174h-919z" />
    <glyph glyph-name="Lcaron.smcp" horiz-adv-x="1198" 
d="M217 0v1323h180v-1149h740v-174h-920zM944 1323h203l-195 -305h-96z" />
    <glyph glyph-name="Lcommaaccent.smcp" horiz-adv-x="1167" 
d="M197 0v1323h180v-1149h739v-174h-919zM565 -492h-96l70 349h155z" />
    <glyph glyph-name="Lslash.smcp" horiz-adv-x="1167" 
d="M197 0v649l-193 -129v195l193 129v479h180v-358l215 143v-195l-215 -143v-596h739v-174h-919z" />
    <glyph glyph-name="M.smcp" horiz-adv-x="1632" 
d="M815 207l418 1116h203v-1323h-183v930l-338 -930h-198l-338 930v-930h-182v1323h198z" />
    <glyph glyph-name="N.smcp" horiz-adv-x="1445" 
d="M1069 283v1040h180v-1323h-192l-678 995v-995h-182v1323h182z" />
    <glyph glyph-name="Nacute.smcp" horiz-adv-x="1445" 
d="M707 1804h243l-338 -358h-127zM1069 283v1040h180v-1323h-192l-678 995v-995h-182v1323h182z" />
    <glyph glyph-name="Ncaron.smcp" horiz-adv-x="1445" 
d="M375 1804h133l211 -243l211 243h131l-242 -358h-203zM1069 283v1040h180v-1323h-192l-678 995v-995h-182v1323h182z" />
    <glyph glyph-name="Ncommaaccent.smcp" horiz-adv-x="1445" 
d="M1069 283v1040h180v-1323h-192l-678 995v-995h-182v1323h182zM702 -492h-96l70 349h155z" />
    <glyph glyph-name="Eng.smcp" horiz-adv-x="1445" 
d="M893 -418q-75 0 -136 15.5t-100 43t-67 60t-43 71t-21.5 70.5t-7.5 64h193q-1 -13 1 -29.5t12 -41.5t27.5 -44t53 -33t82.5 -14q46 0 79 14t51 33.5t28.5 55.5t14 64t5.5 75l-682 1009v-995h-186v1323h186l680 -1040v1040h186v-1323q0 -47 -2 -82t-10 -81.5t-22 -79.5
t-41 -68t-63.5 -57t-92 -36t-125.5 -14z" />
    <glyph glyph-name="Ntilde.smcp" horiz-adv-x="1445" 
d="M584 1761q41 0 78.5 -20.5t60.5 -45t52.5 -45t55.5 -20.5q34 0 57 33.5t23 87.5h129q0 -129 -52 -195.5t-136 -66.5q-38 0 -71 14t-56 33.5t-43.5 39.5t-41.5 34t-42 14q-34 0 -54 -34.5t-20 -90.5h-129q0 114 53.5 188t135.5 74zM1069 283v1040h180v-1323h-192l-678 995
v-995h-182v1323h182z" />
    <glyph glyph-name="O.smcp" horiz-adv-x="1589" 
d="M797 -29q-304 0 -490 190.5t-186 500.5q0 309 186 499.5t490 190.5q201 0 353.5 -86.5t235 -243t82.5 -360.5q0 -310 -184 -500.5t-487 -190.5zM797 143q217 0 349 143.5t132 375.5q0 231 -132 374.5t-349 143.5q-219 0 -352.5 -143.5t-133.5 -374.5t133.5 -375
t352.5 -144z" />
    <glyph glyph-name="Oacute.smcp" horiz-adv-x="1589" 
d="M784 1804h244l-338 -358h-127zM797 -29q-304 0 -490 190.5t-186 500.5q0 309 186 499.5t490 190.5q201 0 353.5 -86.5t235 -243t82.5 -360.5q0 -310 -184 -500.5t-487 -190.5zM797 143q217 0 349 143.5t132 375.5q0 231 -132 374.5t-349 143.5q-219 0 -352.5 -143.5
t-133.5 -374.5t133.5 -375t352.5 -144z" />
    <glyph glyph-name="Ocircumflex.smcp" horiz-adv-x="1589" 
d="M586 1446h-133l241 358h203l242 -358h-131l-211 244zM797 -29q-304 0 -490 190.5t-186 500.5q0 309 186 499.5t490 190.5q201 0 353.5 -86.5t235 -243t82.5 -360.5q0 -310 -184 -500.5t-487 -190.5zM797 143q217 0 349 143.5t132 375.5q0 231 -132 374.5t-349 143.5
q-219 0 -352.5 -143.5t-133.5 -374.5t133.5 -375t352.5 -144z" />
    <glyph glyph-name="Odieresis.smcp" horiz-adv-x="1589" 
d="M717 1632h-154v172h154v-172zM1030 1632h-153v172h153v-172zM797 -29q-304 0 -490 190.5t-186 500.5q0 309 186 499.5t490 190.5q201 0 353.5 -86.5t235 -243t82.5 -360.5q0 -310 -184 -500.5t-487 -190.5zM797 143q217 0 349 143.5t132 375.5q0 231 -132 374.5
t-349 143.5q-219 0 -352.5 -143.5t-133.5 -374.5t133.5 -375t352.5 -144z" />
    <glyph glyph-name="Ograve.smcp" horiz-adv-x="1589" 
d="M901 1446l-338 358h244l221 -358h-127zM797 -29q-304 0 -490 190.5t-186 500.5q0 309 186 499.5t490 190.5q201 0 353.5 -86.5t235 -243t82.5 -360.5q0 -310 -184 -500.5t-487 -190.5zM797 143q217 0 349 143.5t132 375.5q0 231 -132 374.5t-349 143.5
q-219 0 -352.5 -143.5t-133.5 -374.5t133.5 -375t352.5 -144z" />
    <glyph glyph-name="Ohungarumlaut.smcp" horiz-adv-x="1589" 
d="M573 1804h244l-338 -358h-127zM995 1804h244l-338 -358h-127zM797 -29q-304 0 -490 190.5t-186 500.5q0 309 186 499.5t490 190.5q201 0 353.5 -86.5t235 -243t82.5 -360.5q0 -310 -184 -500.5t-487 -190.5zM797 143q217 0 349 143.5t132 375.5q0 231 -132 374.5
t-349 143.5q-219 0 -352.5 -143.5t-133.5 -374.5t133.5 -375t352.5 -144z" />
    <glyph glyph-name="Omacron.smcp" horiz-adv-x="1589" 
d="M1116 1722v-143h-639v143h639zM797 -29q-304 0 -490 190.5t-186 500.5q0 309 186 499.5t490 190.5q201 0 353.5 -86.5t235 -243t82.5 -360.5q0 -310 -184 -500.5t-487 -190.5zM797 143q217 0 349 143.5t132 375.5q0 231 -132 374.5t-349 143.5q-219 0 -352.5 -143.5
t-133.5 -374.5t133.5 -375t352.5 -144z" />
    <glyph glyph-name="Oslash.smcp" horiz-adv-x="1589" 
d="M1225 1214q117 -92 180 -233.5t63 -318.5q0 -310 -184 -500.5t-487 -190.5q-175 0 -320 68l-174 -275h-153l219 345q-120 92 -184 233.5t-64 319.5q0 309 186 499.5t490 190.5q175 0 317 -68l176 275h154zM311 662q0 -252 156 -398l551 866q-95 50 -221 50
q-219 0 -352.5 -143.5t-133.5 -374.5zM797 143q217 0 349 143.5t132 375.5q0 250 -154 395l-549 -867q96 -47 222 -47z" />
    <glyph glyph-name="Otilde.smcp" horiz-adv-x="1589" 
d="M662 1761q41 0 78.5 -20.5t60.5 -45t52.5 -45t55.5 -20.5q34 0 57 33.5t23 87.5h129q0 -129 -52 -195.5t-136 -66.5q-38 0 -71 14t-56 33.5t-43.5 39.5t-41.5 34t-42 14q-34 0 -54 -34.5t-20 -90.5h-129q0 114 53.5 188t135.5 74zM797 -29q-304 0 -490 190.5t-186 500.5
q0 309 186 499.5t490 190.5q201 0 353.5 -86.5t235 -243t82.5 -360.5q0 -310 -184 -500.5t-487 -190.5zM797 143q217 0 349 143.5t132 375.5q0 231 -132 374.5t-349 143.5q-219 0 -352.5 -143.5t-133.5 -374.5t133.5 -375t352.5 -144z" />
    <glyph glyph-name="OE.smcp" horiz-adv-x="2445" 
d="M797 -29q-306 0 -491 190.5t-185 500.5t185 500t491 190q295 0 483 -185v158h936v-174h-752v-365h678v-176h-678v-432h785v-176h-969v156q-187 -187 -483 -187zM795 143q216 0 348.5 144t132.5 375t-132.5 374.5t-348.5 143.5q-218 0 -352 -143.5t-134 -374.5t134 -375
t352 -144z" />
    <glyph glyph-name="P.smcp" horiz-adv-x="1267" 
d="M721 1323q201 0 317.5 -94.5t116.5 -278.5q0 -172 -110.5 -270t-323.5 -98h-342v-582h-182v1323h524zM682 745q139 0 216 51t77 154q0 98 -72.5 154.5t-220.5 56.5h-303v-416h303z" />
    <glyph glyph-name="Thorn.smcp" horiz-adv-x="1267" 
d="M670 1051q55 0 100.5 -3.5t97 -13.5t91.5 -26.5t78 -45t63 -67t40 -94t15 -123.5t-14.5 -122.5t-38.5 -92t-61 -65.5t-76 -44.5t-89 -26.5t-94 -13t-98 -3h-301v-311h-186v1323h186v-272h287zM668 489q38 0 60.5 0.5t57 4.5t55.5 11t46 21t38.5 34t23 50.5t9.5 69.5
t-10 69t-23.5 49.5t-39 33.5t-46.5 21t-56 10.5t-56.5 4t-58.5 0.5h-285v-379h285z" />
    <glyph glyph-name="Q.smcp" horiz-adv-x="1589" 
d="M1468 662q0 -183 -66.5 -327.5t-189.5 -236.5l256 -213h-239l-160 135q-122 -49 -272 -49q-304 0 -490 190.5t-186 500.5q0 309 186 499.5t490 190.5q201 0 353.5 -86.5t235 -243t82.5 -360.5zM797 143q46 0 110 11l-235 196h239l156 -129q100 65 155.5 179.5t55.5 261.5
q0 231 -132.5 374.5t-348.5 143.5q-219 0 -351.5 -143.5t-132.5 -374.5q0 -232 132.5 -375.5t351.5 -143.5z" />
    <glyph glyph-name="R.smcp" horiz-adv-x="1263" 
d="M686 1323q225 0 347 -89t122 -267q0 -149 -120.5 -241t-327.5 -99h-105l608 -627h-225l-606 625v-625h-182v1323h489zM711 778q69 0 127 19.5t96.5 64t38.5 107.5q0 90 -72 141t-219 51h-303v-383h332z" />
    <glyph glyph-name="Racute.smcp" horiz-adv-x="1263" 
d="M616 1804h244l-338 -358h-127zM686 1323q225 0 347 -89t122 -267q0 -149 -120.5 -241t-327.5 -99h-105l608 -627h-225l-606 625v-625h-182v1323h489zM711 778q69 0 127 19.5t96.5 64t38.5 107.5q0 90 -72 141t-219 51h-303v-383h332z" />
    <glyph glyph-name="Rcaron.smcp" horiz-adv-x="1263" 
d="M285 1804h133l211 -243l211 243h131l-242 -358h-203zM686 1323q225 0 347 -89t122 -267q0 -149 -120.5 -241t-327.5 -99h-105l608 -627h-225l-606 625v-625h-182v1323h489zM711 778q69 0 127 19.5t96.5 64t38.5 107.5q0 90 -72 141t-219 51h-303v-383h332z" />
    <glyph glyph-name="Rcommaaccent.smcp" horiz-adv-x="1263" 
d="M686 1323q225 0 347 -89t122 -267q0 -149 -120.5 -241t-327.5 -99h-105l608 -627h-225l-606 625v-625h-182v1323h489zM711 778q69 0 127 19.5t96.5 64t38.5 107.5q0 90 -72 141t-219 51h-303v-383h332zM612 -492h-96l70 349h155z" />
    <glyph glyph-name="S.smcp" horiz-adv-x="1323" 
d="M707 -41q-150 0 -266.5 38t-188.5 104t-111 148.5t-47 178.5h187q22 -87 64 -147.5t102.5 -93.5t130 -47.5t157.5 -14.5q144 0 224.5 51.5t80.5 157.5q0 41 -19 75t-44.5 55t-72 41.5t-79 30.5t-88.5 25q-26 7 -76 20q-103 27 -153.5 42.5t-126.5 47.5t-112 66.5
t-64.5 91t-30.5 129.5q-2 83 28 151t79.5 111.5t116 73t135 42t139.5 12.5q235 0 366 -121t136 -318h-185q-6 64 -30 113.5t-57 78.5t-77.5 47.5t-86 25t-87.5 6.5q-32 0 -64.5 -3.5t-75.5 -15.5t-74.5 -32.5t-54 -58.5t-22.5 -89q0 -40 13.5 -70t36.5 -52t65.5 -40.5
t89 -32t119.5 -30.5q178 -41 192 -45q200 -56 276 -161q58 -80 58 -198q0 -203 -124 -298t-379 -95z" />
    <glyph glyph-name="Sacute.smcp" horiz-adv-x="1323" 
d="M633 1788h244l-338 -358h-127zM707 -41q-150 0 -266.5 38t-188.5 104t-111 148.5t-47 178.5h187q22 -87 64 -147.5t102.5 -93.5t130 -47.5t157.5 -14.5q144 0 224.5 51.5t80.5 157.5q0 41 -19 75t-44.5 55t-72 41.5t-79 30.5t-88.5 25q-26 7 -76 20q-103 27 -153.5 42.5
t-126.5 47.5t-112 66.5t-64.5 91t-30.5 129.5q-2 83 28 151t79.5 111.5t116 73t135 42t139.5 12.5q235 0 366 -121t136 -318h-185q-6 64 -30 113.5t-57 78.5t-77.5 47.5t-86 25t-87.5 6.5q-32 0 -64.5 -3.5t-75.5 -15.5t-74.5 -32.5t-54 -58.5t-22.5 -89q0 -40 13.5 -70
t36.5 -52t65.5 -40.5t89 -32t119.5 -30.5q178 -41 192 -45q200 -56 276 -161q58 -80 58 -198q0 -203 -124 -298t-379 -95z" />
    <glyph glyph-name="Scaron.smcp" horiz-adv-x="1323" 
d="M301 1788h133l211 -244l211 244h131l-242 -358h-202zM707 -41q-150 0 -266.5 38t-188.5 104t-111 148.5t-47 178.5h187q22 -87 64 -147.5t102.5 -93.5t130 -47.5t157.5 -14.5q144 0 224.5 51.5t80.5 157.5q0 41 -19 75t-44.5 55t-72 41.5t-79 30.5t-88.5 25q-26 7 -76 20
q-103 27 -153.5 42.5t-126.5 47.5t-112 66.5t-64.5 91t-30.5 129.5q-2 83 28 151t79.5 111.5t116 73t135 42t139.5 12.5q235 0 366 -121t136 -318h-185q-6 64 -30 113.5t-57 78.5t-77.5 47.5t-86 25t-87.5 6.5q-32 0 -64.5 -3.5t-75.5 -15.5t-74.5 -32.5t-54 -58.5
t-22.5 -89q0 -40 13.5 -70t36.5 -52t65.5 -40.5t89 -32t119.5 -30.5q178 -41 192 -45q200 -56 276 -161q58 -80 58 -198q0 -203 -124 -298t-379 -95z" />
    <glyph glyph-name="Scedilla.smcp" horiz-adv-x="1323" 
d="M633 -104q72 0 116 -36.5t44 -95.5q0 -68 -51.5 -110.5t-127.5 -42.5h-116v92h102q42 0 67 16t25 43q0 25 -25.5 39.5t-66.5 14.5h-82v80l66 71q-232 28 -353.5 154.5t-136.5 306.5h187q22 -87 64 -147.5t102.5 -93.5t130 -47.5t157.5 -14.5q144 0 224.5 51.5t80.5 157.5
q0 41 -19 75t-44.5 55t-72 41.5t-79 30.5t-88.5 25q-26 7 -76 20q-103 27 -153.5 42.5t-126.5 47.5t-112 66.5t-64.5 91t-30.5 129.5q-2 83 28 151t79.5 111.5t116 73t135 42t139.5 12.5q235 0 366 -121t136 -318h-185q-6 64 -30 113.5t-57 78.5t-77.5 47.5t-86 25
t-87.5 6.5q-32 0 -64.5 -3.5t-75.5 -15.5t-74.5 -32.5t-54 -58.5t-22.5 -89q0 -40 13.5 -70t36.5 -52t65.5 -40.5t89 -32t119.5 -30.5q178 -41 192 -45q200 -56 276 -161q58 -80 58 -198q0 -203 -124 -298t-379 -95h-33l-68 -63h27z" />
    <glyph glyph-name="Scommaaccent.smcp" horiz-adv-x="1323" 
d="M707 -41q-150 0 -266.5 38t-188.5 104t-111 148.5t-47 178.5h187q22 -87 64 -147.5t102.5 -93.5t130 -47.5t157.5 -14.5q144 0 224.5 51.5t80.5 157.5q0 41 -19 75t-44.5 55t-72 41.5t-79 30.5t-88.5 25q-26 7 -76 20q-103 27 -153.5 42.5t-126.5 47.5t-112 66.5
t-64.5 91t-30.5 129.5q-2 83 28 151t79.5 111.5t116 73t135 42t139.5 12.5q235 0 366 -121t136 -318h-185q-6 64 -30 113.5t-57 78.5t-77.5 47.5t-86 25t-87.5 6.5q-32 0 -64.5 -3.5t-75.5 -15.5t-74.5 -32.5t-54 -58.5t-22.5 -89q0 -40 13.5 -70t36.5 -52t65.5 -40.5
t89 -32t119.5 -30.5q178 -41 192 -45q200 -56 276 -161q58 -80 58 -198q0 -203 -124 -298t-379 -95zM629 -492h-97l70 349h156z" />
    <glyph glyph-name="T.smcp" horiz-adv-x="1179" 
d="M500 0v1149h-430v174h1038l2 -174h-428v-1149h-182z" />
    <glyph glyph-name="Tbar.smcp" horiz-adv-x="1179" 
d="M909 590h-227v-590h-182v590h-230v141h230v418h-430v174h1038l2 -174h-428v-418h227v-141z" />
    <glyph glyph-name="Tcaron.smcp" horiz-adv-x="1179" 
d="M246 1804h133l211 -243l211 243h131l-242 -358h-203zM500 0v1149h-430v174h1038l2 -174h-428v-1149h-182z" />
    <glyph glyph-name="uni0162.smcp" horiz-adv-x="1179" 
d="M578 -104q72 0 115.5 -36.5t43.5 -95.5q0 -68 -51 -110.5t-127 -42.5h-117v92h103q42 0 67 16t25 43q0 25 -25.5 39.5t-66.5 14.5h-82v80l96 104h-59v1149h-430v174h1038l2 -174h-428v-1104h25l-25 -25v-20h-23l-108 -104h27z" />
    <glyph glyph-name="uni021A.smcp" horiz-adv-x="1179" 
d="M500 0v1149h-430v174h1038l2 -174h-428v-1149h-182zM573 -492h-96l70 349h155z" />
    <glyph glyph-name="U.smcp" horiz-adv-x="1392" 
d="M723 -29q-101 0 -181 19t-134.5 49.5t-94 81t-61.5 101.5t-35 123t-16.5 133.5t-3.5 144.5v700h182v-686q0 -68 2.5 -116t10.5 -103.5t22.5 -93t40 -74.5t61.5 -58.5t88 -35t119 -13.5t119.5 13.5t88.5 35t62 58.5t40.5 74.5t22.5 93t10.5 103.5t2.5 116v686h180v-700
q0 -84 -3.5 -145.5t-16 -133.5t-34.5 -123t-61.5 -101t-94 -80.5t-134.5 -49.5t-182 -19z" />
    <glyph glyph-name="Uacute.smcp" horiz-adv-x="1392" 
d="M707 1804h243l-338 -358h-127zM723 -29q-101 0 -181 19t-134.5 49.5t-94 81t-61.5 101.5t-35 123t-16.5 133.5t-3.5 144.5v700h182v-686q0 -68 2.5 -116t10.5 -103.5t22.5 -93t40 -74.5t61.5 -58.5t88 -35t119 -13.5t119.5 13.5t88.5 35t62 58.5t40.5 74.5t22.5 93
t10.5 103.5t2.5 116v686h180v-700q0 -84 -3.5 -145.5t-16 -133.5t-34.5 -123t-61.5 -101t-94 -80.5t-134.5 -49.5t-182 -19z" />
    <glyph glyph-name="Ucircumflex.smcp" horiz-adv-x="1392" 
d="M508 1446h-133l241 358h203l242 -358h-131l-211 244zM723 -29q-101 0 -181 19t-134.5 49.5t-94 81t-61.5 101.5t-35 123t-16.5 133.5t-3.5 144.5v700h182v-686q0 -68 2.5 -116t10.5 -103.5t22.5 -93t40 -74.5t61.5 -58.5t88 -35t119 -13.5t119.5 13.5t88.5 35t62 58.5
t40.5 74.5t22.5 93t10.5 103.5t2.5 116v686h180v-700q0 -84 -3.5 -145.5t-16 -133.5t-34.5 -123t-61.5 -101t-94 -80.5t-134.5 -49.5t-182 -19z" />
    <glyph glyph-name="Udieresis.smcp" horiz-adv-x="1392" 
d="M635 1632h-154v172h154v-172zM948 1632h-153v172h153v-172zM723 -29q-101 0 -181 19t-134.5 49.5t-94 81t-61.5 101.5t-35 123t-16.5 133.5t-3.5 144.5v700h182v-686q0 -68 2.5 -116t10.5 -103.5t22.5 -93t40 -74.5t61.5 -58.5t88 -35t119 -13.5t119.5 13.5t88.5 35
t62 58.5t40.5 74.5t22.5 93t10.5 103.5t2.5 116v686h180v-700q0 -84 -3.5 -145.5t-16 -133.5t-34.5 -123t-61.5 -101t-94 -80.5t-134.5 -49.5t-182 -19z" />
    <glyph glyph-name="Ugrave.smcp" horiz-adv-x="1392" 
d="M823 1446l-338 358h244l221 -358h-127zM723 -29q-101 0 -181 19t-134.5 49.5t-94 81t-61.5 101.5t-35 123t-16.5 133.5t-3.5 144.5v700h182v-686q0 -68 2.5 -116t10.5 -103.5t22.5 -93t40 -74.5t61.5 -58.5t88 -35t119 -13.5t119.5 13.5t88.5 35t62 58.5t40.5 74.5
t22.5 93t10.5 103.5t2.5 116v686h180v-700q0 -84 -3.5 -145.5t-16 -133.5t-34.5 -123t-61.5 -101t-94 -80.5t-134.5 -49.5t-182 -19z" />
    <glyph glyph-name="Uhungarumlaut.smcp" horiz-adv-x="1392" 
d="M496 1804h243l-338 -358h-127zM918 1804h243l-338 -358h-127zM723 -29q-101 0 -181 19t-134.5 49.5t-94 81t-61.5 101.5t-35 123t-16.5 133.5t-3.5 144.5v700h182v-686q0 -68 2.5 -116t10.5 -103.5t22.5 -93t40 -74.5t61.5 -58.5t88 -35t119 -13.5t119.5 13.5t88.5 35
t62 58.5t40.5 74.5t22.5 93t10.5 103.5t2.5 116v686h180v-700q0 -84 -3.5 -145.5t-16 -133.5t-34.5 -123t-61.5 -101t-94 -80.5t-134.5 -49.5t-182 -19z" />
    <glyph glyph-name="Umacron.smcp" horiz-adv-x="1392" 
d="M1038 1722v-143h-639v143h639zM723 -29q-101 0 -181 19t-134.5 49.5t-94 81t-61.5 101.5t-35 123t-16.5 133.5t-3.5 144.5v700h182v-686q0 -68 2.5 -116t10.5 -103.5t22.5 -93t40 -74.5t61.5 -58.5t88 -35t119 -13.5t119.5 13.5t88.5 35t62 58.5t40.5 74.5t22.5 93
t10.5 103.5t2.5 116v686h180v-700q0 -84 -3.5 -145.5t-16 -133.5t-34.5 -123t-61.5 -101t-94 -80.5t-134.5 -49.5t-182 -19z" />
    <glyph glyph-name="Uogonek.smcp" horiz-adv-x="1392" 
d="M1249 623q0 -63 -2 -111t-8 -105t-16.5 -100t-29 -89.5t-44.5 -80t-63 -65.5t-84 -52.5t-109 -33.5t-137 -15q-105 -94 -105 -172q0 -43 34.5 -66.5t100.5 -23.5q35 0 62 4v-121q-41 -6 -96 -6q-115 0 -173.5 55t-58.5 126q0 106 133 206q-68 5 -125.5 19.5t-100.5 36
t-77.5 53.5t-58.5 66t-41.5 79.5t-27.5 88t-15.5 97.5t-7.5 102.5t-2 107.5v700h182v-686q0 -68 2.5 -116t10.5 -103.5t22.5 -93t40 -74.5t61.5 -58.5t88 -35t119 -13.5t119.5 13.5t88.5 35t62 58.5t40.5 74.5t22.5 93t10.5 103.5t2.5 116v686h180v-700z" />
    <glyph glyph-name="Uring.smcp" horiz-adv-x="1392" 
d="M719 1495q-78 0 -125 46.5t-47 123.5q0 75 47 120.5t125 45.5q77 0 123.5 -45.5t46.5 -120.5q0 -77 -46.5 -123.5t-123.5 -46.5zM719 1587q34 0 55 21t21 55q0 35 -21 55.5t-55 20.5q-35 0 -56.5 -20.5t-21.5 -55.5q0 -34 21.5 -55t56.5 -21zM723 -29q-101 0 -181 19
t-134.5 49.5t-94 81t-61.5 101.5t-35 123t-16.5 133.5t-3.5 144.5v700h182v-686q0 -68 2.5 -116t10.5 -103.5t22.5 -93t40 -74.5t61.5 -58.5t88 -35t119 -13.5t119.5 13.5t88.5 35t62 58.5t40.5 74.5t22.5 93t10.5 103.5t2.5 116v686h180v-700q0 -84 -3.5 -145.5t-16 -133.5
t-34.5 -123t-61.5 -101t-94 -80.5t-134.5 -49.5t-182 -19z" />
    <glyph glyph-name="V.smcp" horiz-adv-x="1409" 
d="M705 215l450 1108h203l-555 -1323h-197l-555 1323h205z" />
    <glyph glyph-name="W.smcp" horiz-adv-x="2041" 
d="M541 215l364 1108h234l364 -1108l285 1108h203l-387 -1323h-199l-383 1135l-383 -1135h-199l-389 1323h205z" />
    <glyph glyph-name="Wacute.smcp" horiz-adv-x="2041" 
d="M1010 1804h243l-338 -358h-127zM541 215l364 1108h234l364 -1108l285 1108h203l-387 -1323h-199l-383 1135l-383 -1135h-199l-389 1323h205z" />
    <glyph glyph-name="Wcircumflex.smcp" horiz-adv-x="2041" 
d="M811 1446h-133l242 358h202l242 -358h-131l-211 244zM541 215l364 1108h234l364 -1108l285 1108h203l-387 -1323h-199l-383 1135l-383 -1135h-199l-389 1323h205z" />
    <glyph glyph-name="Wdieresis.smcp" horiz-adv-x="2041" 
d="M938 1632h-154v172h154v-172zM1251 1632h-153v172h153v-172zM541 215l364 1108h234l364 -1108l285 1108h203l-387 -1323h-199l-383 1135l-383 -1135h-199l-389 1323h205z" />
    <glyph glyph-name="Wgrave.smcp" horiz-adv-x="2041" 
d="M1126 1446l-338 358h244l221 -358h-127zM541 215l364 1108h234l364 -1108l285 1108h203l-387 -1323h-199l-383 1135l-383 -1135h-199l-389 1323h205z" />
    <glyph glyph-name="X.smcp" horiz-adv-x="1288" 
d="M289 0h-219l465 668l-437 655h217l328 -506l328 506h219l-436 -655l465 -668h-222l-354 522z" />
    <glyph glyph-name="Y.smcp" horiz-adv-x="1292" 
d="M274 1323l373 -696l371 696h209l-490 -864v-459h-184v459l-487 864h208z" />
    <glyph glyph-name="Yacute.smcp" horiz-adv-x="1292" 
d="M635 1804h244l-338 -358h-127zM274 1323l373 -696l371 696h209l-490 -864v-459h-184v459l-487 864h208z" />
    <glyph glyph-name="Ycircumflex.smcp" horiz-adv-x="1292" 
d="M436 1446h-133l242 358h203l241 -358h-131l-211 244zM274 1323l373 -696l371 696h209l-490 -864v-459h-184v459l-487 864h208z" />
    <glyph glyph-name="Ydieresis.smcp" horiz-adv-x="1292" 
d="M563 1632h-153v172h153v-172zM877 1632h-154v172h154v-172zM274 1323l373 -696l371 696h209l-490 -864v-459h-184v459l-487 864h208z" />
    <glyph glyph-name="Ygrave.smcp" horiz-adv-x="1292" 
d="M752 1446l-338 358h243l222 -358h-127zM274 1323l373 -696l371 696h209l-490 -864v-459h-184v459l-487 864h208z" />
    <glyph glyph-name="Z.smcp" horiz-adv-x="1239" 
d="M100 0v174l762 975h-743v174h956l2 -174l-766 -975h840v-174h-1051z" />
    <glyph glyph-name="Zacute.smcp" horiz-adv-x="1239" 
d="M612 1804h244l-338 -358h-127zM100 0v174l762 975h-743v174h956l2 -174l-766 -975h840v-174h-1051z" />
    <glyph glyph-name="Zcaron.smcp" horiz-adv-x="1239" 
d="M281 1804h133l211 -243l211 243h131l-242 -358h-203zM100 0v174l762 975h-743v174h956l2 -174l-766 -975h840v-174h-1051z" />
    <glyph glyph-name="Zdotaccent.smcp" horiz-adv-x="1239" 
d="M625 1577q-56 0 -94.5 38t-38.5 93q0 54 38.5 91.5t94.5 37.5q53 0 92 -38t39 -91q0 -55 -39 -93t-92 -38zM100 0v174l762 975h-743v174h956l2 -174l-766 -975h840v-174h-1051z" />
    <glyph glyph-name="a.dnom" horiz-adv-x="933" 
d="M352 -633q-79 0 -138 22.5t-91.5 60.5t-48 81.5t-15.5 91.5q0 123 97 195q58 43 158.5 64.5t279.5 21.5h47v49q0 170 -184 170q-99 0 -145 -39.5t-48 -93.5h-160q1 38 10.5 73.5t35 72t64 63.5t102 44t143.5 17q170 0 259 -82t89 -282v-521h-152v129h-2
q-44 -60 -125.5 -98.5t-175.5 -38.5zM391 -502q114 0 183 56.5t69 111.5v123h-55q-82 0 -142 -6.5t-113.5 -23t-81.5 -50.5t-28 -84q0 -61 42.5 -94t125.5 -33z" />
    <glyph glyph-name="b.dnom" horiz-adv-x="989" 
d="M539 260q172 0 278.5 -122.5t106.5 -323.5q0 -204 -105 -329.5t-274 -125.5q-85 0 -166 36.5t-123 96.5v-106h-158v1228h164v-493q50 65 124 102t153 37zM514 -500q110 0 178 84.5t68 222.5q0 141 -68 227.5t-180 86.5q-113 0 -181.5 -75t-68.5 -198v-94
q0 -113 69.5 -183.5t182.5 -70.5z" />
    <glyph glyph-name="c.dnom" horiz-adv-x="915" 
d="M473 -641q-128 0 -221 61t-138.5 162t-45.5 230q0 202 106.5 325t296.5 123q164 0 267 -90t114 -238h-162q-34 189 -219 189q-116 0 -179 -83.5t-63 -225.5q0 -144 62.5 -229t179.5 -85q86 0 143.5 48t75.5 120h162q-6 -58 -33.5 -111.5t-73 -98t-116.5 -71t-156 -26.5z
" />
    <glyph glyph-name="d.dnom" horiz-adv-x="987" 
d="M737 -614v106q-42 -60 -122 -96.5t-164 -36.5q-170 0 -274.5 125.5t-104.5 329.5q0 201 106 323.5t279 122.5q80 0 153.5 -37.5t120.5 -101.5v493h164v-1228h-158zM731 -133q0 114 -68 184t-182 70q-112 0 -180 -84.5t-68 -222.5q0 -141 69 -227.5t183 -86.5
q110 0 178 76t68 199v92z" />
    <glyph glyph-name="e.dnom" horiz-adv-x="915" 
d="M473 -641q-192 0 -298.5 126.5t-106.5 326.5q0 201 106.5 324.5t292.5 123.5q169 0 277 -103t108 -270v-131l-619 -2q11 -118 73 -187t167 -69q82 0 139.5 41.5t77.5 93.5h162q-6 -46 -33.5 -92.5t-73 -88t-117 -67.5t-155.5 -26zM690 -119q0 119 -62.5 179.5
t-162.5 60.5q-99 0 -164 -61.5t-65 -178.5h454z" />
    <glyph glyph-name="f.dnom" horiz-adv-x="509" 
d="M35 236h112v129q0 137 56 206.5t184 69.5q65 0 105 -10v-135q-24 6 -52 6q-68 0 -98.5 -28t-30.5 -89v-149h174v-142h-174v-708h-164v708h-112v142z" />
    <glyph glyph-name="g.dnom" horiz-adv-x="972" 
d="M897 -555q0 -130 -28 -220.5t-82 -139t-120.5 -69t-156.5 -20.5q-346 0 -404 291h162q19 -76 81 -112.5t153 -36.5q129 0 181 75t52 242v53q-96 -149 -280 -149q-179 0 -280 127t-101 332q0 93 22 171.5t66 140t116 96t166 34.5q197 0 291 -154v130h162v-791zM735 -133
q0 115 -71 184.5t-183 69.5q-122 0 -188 -82.5t-66 -224.5q0 -144 67 -229t189 -85q114 0 183 73t69 202v92z" />
    <glyph glyph-name="h.dnom" horiz-adv-x="946" 
d="M262 106q49 81 125 117.5t158 36.5q144 0 226.5 -93.5t82.5 -246.5v-534h-164v485q0 120 -48.5 185t-141.5 65q-101 0 -169.5 -74.5t-68.5 -200.5v-460h-164v1228h164v-508z" />
    <glyph glyph-name="i.dnom" horiz-adv-x="374" 
d="M276 442h-178v172h178v-172zM270 -614h-164v850h164v-850z" />
    <glyph glyph-name="j.dnom" horiz-adv-x="425" 
d="M295 442h-180v172h180v-172zM47 -1004q-25 0 -51 3t-40 5l-13 3v139q18 -4 51 -4q68 0 98.5 27.5t30.5 82.5v984h164v-977q0 -263 -240 -263z" />
    <glyph glyph-name="k.dnom" horiz-adv-x="784" 
d="M262 -614h-164v1228h164v-751l287 373h184l-325 -424l358 -426h-186l-318 372v-372z" />
    <glyph glyph-name="l.dnom" horiz-adv-x="360" 
d="M262 -614h-164v1228h164v-1228z" />
    <glyph glyph-name="m.dnom" horiz-adv-x="1562" 
d="M1153 260q147 0 225 -88.5t78 -267.5v-518h-164v501q0 234 -180 234q-110 0 -179 -73.5t-69 -201.5v-460h-164v501q0 234 -182 234q-108 0 -177 -73.5t-69 -201.5v-460h-163v850h163v-130q93 154 289 154q206 0 273 -170q115 170 319 170z" />
    <glyph glyph-name="n.dnom" horiz-adv-x="970" 
d="M272 106q49 81 125 117.5t158 36.5q143 0 226 -94t83 -248v-532h-164v485q0 119 -49 184.5t-141 65.5q-101 0 -169.5 -74.5t-68.5 -200.5v-460h-163v850h163v-130z" />
    <glyph glyph-name="o.dnom" horiz-adv-x="958" 
d="M481 -641q-183 0 -298 129.5t-115 323.5q0 198 114 323t299 125q186 0 298 -124.5t112 -323.5q0 -194 -113 -323.5t-297 -129.5zM479 -502q118 0 184 85.5t66 228.5q0 142 -66 225.5t-184 83.5t-184 -83.5t-66 -225.5q0 -143 66 -228.5t184 -85.5z" />
    <glyph glyph-name="p.dnom" horiz-adv-x="999" 
d="M549 260q172 0 277.5 -122.5t105.5 -323.5q0 -204 -104 -329.5t-273 -125.5q-85 0 -162.5 36.5t-120.5 96.5v-496h-163v1240h159v-115q47 64 124 101.5t157 37.5zM524 -500q110 0 178 84.5t68 222.5q0 141 -68 227.5t-180 86.5q-113 0 -181.5 -75t-68.5 -198v-94
q0 -113 69.5 -183.5t182.5 -70.5z" />
    <glyph glyph-name="q.dnom" horiz-adv-x="1015" 
d="M727 -1004v496q-43 -60 -119.5 -96.5t-158.5 -36.5q-172 0 -276.5 125.5t-104.5 329.5q0 201 106 323.5t279 122.5q78 0 154.5 -37.5t127.5 -101.5v115h156v-1240h-164zM727 -133q0 114 -69 184t-183 70q-110 0 -178 -84.5t-68 -222.5q0 -141 68 -227.5t180 -86.5
q113 0 181.5 75.5t68.5 199.5v92z" />
    <glyph glyph-name="r.dnom" horiz-adv-x="579" 
d="M262 82q52 101 152 147q63 27 155 27v-170h-30q-117 0 -193 -78t-76 -207v-415h-164v850h156v-154z" />
    <glyph glyph-name="s.dnom" horiz-adv-x="821" 
d="M436 -641q-178 0 -275 85t-108 220h162q21 -92 79 -131t150 -39q73 0 113.5 29.5t40.5 87.5q0 23 -11 42t-23 30.5t-40.5 24t-43 17t-50.5 15.5q-49 14 -75 22t-67 23t-63.5 28t-50 33.5t-41.5 42.5t-24.5 52.5t-10.5 66.5q-1 66 26.5 116.5t73.5 79t100.5 42.5t115.5 14
q152 0 235 -77t88 -208h-159q-4 43 -21.5 74.5t-43.5 47.5t-53 23t-57 7q-23 0 -46 -4.5t-48 -15t-40 -34t-15 -55.5q0 -54 45.5 -80.5t161.5 -58.5q8 -2 39.5 -11t42.5 -12.5t39 -13.5t40 -16.5t35 -19.5t33.5 -24.5t26 -29t22 -36.5t12 -43t5.5 -52q0 -262 -320 -262z" />
    <glyph glyph-name="t.dnom" horiz-adv-x="557" 
d="M408 -631q-142 0 -201.5 60t-59.5 186v479h-112v123q70 0 94.5 32.5t24.5 110.5v93h155v-217h189v-142h-189v-444q0 -80 32 -109.5t112 -29.5h53v-136q-55 -6 -98 -6z" />
    <glyph glyph-name="u.dnom" horiz-adv-x="958" 
d="M379 -641q-144 0 -222.5 89.5t-78.5 268.5v519h164v-502q0 -236 180 -236q110 0 179 74.5t69 202.5v461h164v-850h-164v143q-91 -170 -291 -170z" />
    <glyph glyph-name="v.dnom" horiz-adv-x="843" 
d="M389 -326l33 -92h2l31 92l190 562h178l-323 -850h-156l-324 850h179z" />
    <glyph glyph-name="w.dnom" horiz-adv-x="1419" 
d="M422 -418h2l199 654h176l198 -654h2l222 654h178l-322 -850h-157l-207 667h-4l-209 -667h-156l-324 850h179z" />
    <glyph glyph-name="x.dnom" horiz-adv-x="772" 
d="M569 -614l-182 307l-186 -307h-181l267 426l-267 424h181l180 -316l188 316h185l-271 -424l271 -426h-185z" />
    <glyph glyph-name="y.dnom" horiz-adv-x="843" 
d="M199 236l194 -578l29 -80h2l29 80l192 578h178l-297 -775l-157 -465h-162l137 390l-324 850h179z" />
    <glyph glyph-name="z.dnom" horiz-adv-x="880" 
d="M53 -614v139l559 571h-551v140h740l2 -140l-559 -571h590v-139h-781z" />
    <glyph glyph-name="a.numr" horiz-adv-x="933" 
d="M352 688q-79 0 -138 22.5t-91.5 60.5t-48 81.5t-15.5 91.5q0 123 97 195q58 43 158.5 64.5t279.5 21.5h47v49q0 170 -184 170q-99 0 -145 -39.5t-48 -93.5h-160q1 38 10.5 73.5t35 72t64 63.5t102 44t143.5 17q170 0 259 -82t89 -282v-521h-152v129h-2
q-44 -60 -125.5 -98.5t-175.5 -38.5zM391 819q114 0 183 56.5t69 111.5v123h-55q-82 0 -142 -6.5t-113.5 -23t-81.5 -50.5t-28 -84q0 -61 42.5 -94t125.5 -33z" />
    <glyph glyph-name="b.numr" horiz-adv-x="989" 
d="M539 1581q172 0 278.5 -122.5t106.5 -323.5q0 -204 -105 -329.5t-274 -125.5q-85 0 -166 36.5t-123 96.5v-106h-158v1228h164v-493q50 65 124 102t153 37zM514 821q110 0 178 84.5t68 222.5q0 141 -68 227.5t-180 86.5q-113 0 -181.5 -75t-68.5 -198v-94
q0 -113 69.5 -183.5t182.5 -70.5z" />
    <glyph glyph-name="c.numr" horiz-adv-x="915" 
d="M473 680q-128 0 -221 61t-138.5 162t-45.5 230q0 202 106.5 325t296.5 123q164 0 267 -90t114 -238h-162q-34 189 -219 189q-116 0 -179 -83.5t-63 -225.5q0 -144 62.5 -229t179.5 -85q86 0 143.5 48t75.5 120h162q-6 -58 -33.5 -111.5t-73 -98t-116.5 -71t-156 -26.5z
" />
    <glyph glyph-name="d.numr" horiz-adv-x="987" 
d="M737 707v106q-42 -60 -122 -96.5t-164 -36.5q-170 0 -274.5 125.5t-104.5 329.5q0 201 106 323.5t279 122.5q80 0 153.5 -37.5t120.5 -101.5v493h164v-1228h-158zM731 1188q0 114 -68 184t-182 70q-112 0 -180 -84.5t-68 -222.5q0 -141 69 -227.5t183 -86.5q110 0 178 76
t68 199v92z" />
    <glyph glyph-name="e.numr" horiz-adv-x="915" 
d="M473 680q-192 0 -298.5 126.5t-106.5 326.5q0 201 106.5 324.5t292.5 123.5q169 0 277 -103t108 -270v-131l-619 -2q11 -118 73 -187t167 -69q82 0 139.5 41.5t77.5 93.5h162q-6 -46 -33.5 -92.5t-73 -88t-117 -67.5t-155.5 -26zM690 1202q0 119 -62.5 179.5t-162.5 60.5
q-99 0 -164 -61.5t-65 -178.5h454z" />
    <glyph glyph-name="f.numr" horiz-adv-x="509" 
d="M35 1556h112v130q0 137 56 206.5t184 69.5q65 0 105 -10v-135q-24 6 -52 6q-68 0 -98.5 -28t-30.5 -89v-150h174v-141h-174v-708h-164v708h-112v141z" />
    <glyph glyph-name="g.numr" horiz-adv-x="972" 
d="M897 766q0 -130 -28 -220.5t-82 -139t-120.5 -69t-156.5 -20.5q-346 0 -404 291h162q19 -76 81 -112.5t153 -36.5q129 0 181 75t52 242v53q-96 -149 -280 -149q-179 0 -280 127t-101 332q0 93 22 171.5t66 140t116 96t166 34.5q197 0 291 -154v129h162v-790zM735 1188
q0 115 -71 184.5t-183 69.5q-122 0 -188 -82.5t-66 -224.5q0 -144 67 -229t189 -85q114 0 183 73t69 202v92z" />
    <glyph glyph-name="h.numr" horiz-adv-x="946" 
d="M262 1427q49 81 125 117.5t158 36.5q144 0 226.5 -93.5t82.5 -246.5v-534h-164v485q0 120 -48.5 185t-141.5 65q-101 0 -169.5 -74.5t-68.5 -200.5v-460h-164v1228h164v-508z" />
    <glyph glyph-name="i.numr" horiz-adv-x="374" 
d="M276 1763h-178v172h178v-172zM270 707h-164v849h164v-849z" />
    <glyph glyph-name="j.numr" horiz-adv-x="393" 
d="M295 1763h-180v172h180v-172zM47 317q-25 0 -51 2.5t-40 5.5l-13 3v139q18 -4 51 -4q68 0 98.5 27.5t30.5 82.5v983h164v-976q0 -263 -240 -263z" />
    <glyph glyph-name="k.numr" horiz-adv-x="784" 
d="M262 707h-164v1228h164v-751l287 372h184l-325 -423l358 -426h-186l-318 372v-372z" />
    <glyph glyph-name="l.numr" horiz-adv-x="360" 
d="M262 707h-164v1228h164v-1228z" />
    <glyph glyph-name="m.numr" horiz-adv-x="1562" 
d="M1153 1581q147 0 225 -88.5t78 -267.5v-518h-164v501q0 234 -180 234q-110 0 -179 -73.5t-69 -201.5v-460h-164v501q0 234 -182 234q-108 0 -177 -73.5t-69 -201.5v-460h-163v849h163v-129q93 154 289 154q206 0 273 -170q115 170 319 170z" />
    <glyph glyph-name="n.numr" horiz-adv-x="970" 
d="M272 1427q49 81 125 117.5t158 36.5q143 0 226 -94t83 -248v-532h-164v485q0 119 -49 184.5t-141 65.5q-101 0 -169.5 -74.5t-68.5 -200.5v-460h-163v849h163v-129z" />
    <glyph glyph-name="o.numr" horiz-adv-x="958" 
d="M481 680q-183 0 -298 129.5t-115 323.5q0 198 114 323t299 125q186 0 298 -124.5t112 -323.5q0 -194 -113 -323.5t-297 -129.5zM479 819q118 0 184 85.5t66 228.5q0 142 -66 225.5t-184 83.5t-184 -83.5t-66 -225.5q0 -143 66 -228.5t184 -85.5z" />
    <glyph glyph-name="p.numr" horiz-adv-x="999" 
d="M549 1581q172 0 277.5 -122.5t105.5 -323.5q0 -204 -104 -329.5t-273 -125.5q-85 0 -162.5 36.5t-120.5 96.5v-496h-163v1239h159v-114q47 64 124 101.5t157 37.5zM524 821q110 0 178 84.5t68 222.5q0 141 -68 227.5t-180 86.5q-113 0 -181.5 -75t-68.5 -198v-94
q0 -113 69.5 -183.5t182.5 -70.5z" />
    <glyph glyph-name="q.numr" horiz-adv-x="1015" 
d="M727 317v496q-43 -60 -119.5 -96.5t-158.5 -36.5q-172 0 -276.5 125.5t-104.5 329.5q0 201 106 323.5t279 122.5q78 0 154.5 -37.5t127.5 -101.5v114h156v-1239h-164zM727 1188q0 114 -69 184t-183 70q-110 0 -178 -84.5t-68 -222.5q0 -141 68 -227.5t180 -86.5
q113 0 181.5 75.5t68.5 199.5v92z" />
    <glyph glyph-name="r.numr" horiz-adv-x="579" 
d="M262 1403q52 101 152 147q63 27 155 27v-170h-30q-117 0 -193 -78t-76 -207v-415h-164v849h156v-153z" />
    <glyph glyph-name="s.numr" horiz-adv-x="821" 
d="M436 680q-178 0 -275 85t-108 220h162q21 -92 79 -131t150 -39q73 0 113.5 29.5t40.5 87.5q0 23 -11 42t-23 30.5t-40.5 24t-43 17t-50.5 15.5q-49 14 -75 22t-67 23t-63.5 28t-50 33.5t-41.5 42.5t-24.5 52.5t-10.5 66.5q-1 66 26.5 116.5t73.5 79t100.5 42.5t115.5 14
q152 0 235 -77t88 -208h-159q-4 43 -21.5 74.5t-43.5 47.5t-53 23t-57 7q-23 0 -46 -4.5t-48 -15t-40 -34t-15 -55.5q0 -54 45.5 -80.5t161.5 -58.5q8 -2 39.5 -11t42.5 -12.5t39 -13.5t40 -16.5t35 -19.5t33.5 -24.5t26 -29t22 -36.5t12 -43t5.5 -52q0 -262 -320 -262z" />
    <glyph glyph-name="t.numr" horiz-adv-x="557" 
d="M408 690q-142 0 -201.5 60t-59.5 186v479h-112v123q70 0 94.5 32.5t24.5 110.5v93h155v-218h189v-141h-189v-444q0 -80 32 -110t112 -30h53v-135q-55 -6 -98 -6z" />
    <glyph glyph-name="u.numr" horiz-adv-x="958" 
d="M379 680q-144 0 -222.5 89.5t-78.5 268.5v518h164v-501q0 -236 180 -236q110 0 179 74.5t69 202.5v460h164v-849h-164v143q-91 -170 -291 -170z" />
    <glyph glyph-name="v.numr" horiz-adv-x="843" 
d="M389 995l33 -92h2l31 92l190 561h178l-323 -849h-156l-324 849h179z" />
    <glyph glyph-name="w.numr" horiz-adv-x="1419" 
d="M422 903h2l199 653h176l198 -653h2l222 653h178l-322 -849h-157l-207 667h-4l-209 -667h-156l-324 849h179z" />
    <glyph glyph-name="x.numr" horiz-adv-x="772" 
d="M569 707l-182 307l-186 -307h-181l267 426l-267 423h181l180 -315l188 315h185l-271 -423l271 -426h-185z" />
    <glyph glyph-name="y.numr" horiz-adv-x="843" 
d="M199 1556l194 -577l29 -80h2l29 80l192 577h178l-297 -774l-157 -465h-162l137 390l-324 849h179z" />
    <glyph glyph-name="z.numr" horiz-adv-x="880" 
d="M53 707v139l559 571h-551v139h740l2 -139l-559 -571h590v-139h-781z" />
    <glyph glyph-name="a.subs" horiz-adv-x="933" 
d="M352 -633q-79 0 -138 22.5t-91.5 60.5t-48 81.5t-15.5 91.5q0 123 97 195q58 43 158.5 64.5t279.5 21.5h47v49q0 170 -184 170q-99 0 -145 -39.5t-48 -93.5h-160q1 38 10.5 73.5t35 72t64 63.5t102 44t143.5 17q170 0 259 -82t89 -282v-521h-152v129h-2
q-44 -60 -125.5 -98.5t-175.5 -38.5zM391 -502q114 0 183 56.5t69 111.5v123h-55q-82 0 -142 -6.5t-113.5 -23t-81.5 -50.5t-28 -84q0 -61 42.5 -94t125.5 -33z" />
    <glyph glyph-name="b.subs" horiz-adv-x="989" 
d="M539 260q172 0 278.5 -122.5t106.5 -323.5q0 -204 -105 -329.5t-274 -125.5q-85 0 -166 36.5t-123 96.5v-106h-158v1228h164v-493q50 65 124 102t153 37zM514 -500q110 0 178 84.5t68 222.5q0 141 -68 227.5t-180 86.5q-113 0 -181.5 -75t-68.5 -198v-94
q0 -113 69.5 -183.5t182.5 -70.5z" />
    <glyph glyph-name="c.subs" horiz-adv-x="915" 
d="M473 -641q-128 0 -221 61t-138.5 162t-45.5 230q0 202 106.5 325t296.5 123q164 0 267 -90t114 -238h-162q-34 189 -219 189q-116 0 -179 -83.5t-63 -225.5q0 -144 62.5 -229t179.5 -85q86 0 143.5 48t75.5 120h162q-6 -58 -33.5 -111.5t-73 -98t-116.5 -71t-156 -26.5z
" />
    <glyph glyph-name="d.subs" horiz-adv-x="987" 
d="M737 -614v106q-42 -60 -122 -96.5t-164 -36.5q-170 0 -274.5 125.5t-104.5 329.5q0 201 106 323.5t279 122.5q80 0 153.5 -37.5t120.5 -101.5v493h164v-1228h-158zM731 -133q0 114 -68 184t-182 70q-112 0 -180 -84.5t-68 -222.5q0 -141 69 -227.5t183 -86.5
q110 0 178 76t68 199v92z" />
    <glyph glyph-name="e.subs" horiz-adv-x="915" 
d="M473 -641q-192 0 -298.5 126.5t-106.5 326.5q0 201 106.5 324.5t292.5 123.5q169 0 277 -103t108 -270v-131l-619 -2q11 -118 73 -187t167 -69q82 0 139.5 41.5t77.5 93.5h162q-6 -46 -33.5 -92.5t-73 -88t-117 -67.5t-155.5 -26zM690 -119q0 119 -62.5 179.5
t-162.5 60.5q-99 0 -164 -61.5t-65 -178.5h454z" />
    <glyph glyph-name="f.subs" horiz-adv-x="509" 
d="M35 236h112v129q0 137 56 206.5t184 69.5q65 0 105 -10v-135q-24 6 -52 6q-68 0 -98.5 -28t-30.5 -89v-149h174v-142h-174v-708h-164v708h-112v142z" />
    <glyph glyph-name="g.subs" horiz-adv-x="972" 
d="M897 -555q0 -130 -28 -220.5t-82 -139t-120.5 -69t-156.5 -20.5q-346 0 -404 291h162q19 -76 81 -112.5t153 -36.5q129 0 181 75t52 242v53q-96 -149 -280 -149q-179 0 -280 127t-101 332q0 93 22 171.5t66 140t116 96t166 34.5q197 0 291 -154v130h162v-791zM735 -133
q0 115 -71 184.5t-183 69.5q-122 0 -188 -82.5t-66 -224.5q0 -144 67 -229t189 -85q114 0 183 73t69 202v92z" />
    <glyph glyph-name="h.subs" horiz-adv-x="946" 
d="M262 106q49 81 125 117.5t158 36.5q144 0 226.5 -93.5t82.5 -246.5v-534h-164v485q0 120 -48.5 185t-141.5 65q-101 0 -169.5 -74.5t-68.5 -200.5v-460h-164v1228h164v-508z" />
    <glyph glyph-name="i.subs" horiz-adv-x="374" 
d="M276 442h-178v172h178v-172zM270 -614h-164v850h164v-850z" />
    <glyph glyph-name="j.subs" horiz-adv-x="393" 
d="M295 442h-180v172h180v-172zM47 -1004q-25 0 -51 3t-40 5l-13 3v139q18 -4 51 -4q68 0 98.5 27.5t30.5 82.5v984h164v-977q0 -263 -240 -263z" />
    <glyph glyph-name="k.subs" horiz-adv-x="784" 
d="M262 -614h-164v1228h164v-751l287 373h184l-325 -424l358 -426h-186l-318 372v-372z" />
    <glyph glyph-name="l.subs" horiz-adv-x="360" 
d="M262 -614h-164v1228h164v-1228z" />
    <glyph glyph-name="m.subs" horiz-adv-x="1562" 
d="M1153 260q147 0 225 -88.5t78 -267.5v-518h-164v501q0 234 -180 234q-110 0 -179 -73.5t-69 -201.5v-460h-164v501q0 234 -182 234q-108 0 -177 -73.5t-69 -201.5v-460h-163v850h163v-130q93 154 289 154q206 0 273 -170q115 170 319 170z" />
    <glyph glyph-name="n.subs" horiz-adv-x="970" 
d="M272 106q49 81 125 117.5t158 36.5q143 0 226 -94t83 -248v-532h-164v485q0 119 -49 184.5t-141 65.5q-101 0 -169.5 -74.5t-68.5 -200.5v-460h-163v850h163v-130z" />
    <glyph glyph-name="o.subs" horiz-adv-x="958" 
d="M481 -641q-183 0 -298 129.5t-115 323.5q0 198 114 323t299 125q186 0 298 -124.5t112 -323.5q0 -194 -113 -323.5t-297 -129.5zM479 -502q118 0 184 85.5t66 228.5q0 142 -66 225.5t-184 83.5t-184 -83.5t-66 -225.5q0 -143 66 -228.5t184 -85.5z" />
    <glyph glyph-name="p.subs" horiz-adv-x="999" 
d="M549 260q172 0 277.5 -122.5t105.5 -323.5q0 -204 -104 -329.5t-273 -125.5q-85 0 -162.5 36.5t-120.5 96.5v-496h-163v1240h159v-115q47 64 124 101.5t157 37.5zM524 -500q110 0 178 84.5t68 222.5q0 141 -68 227.5t-180 86.5q-113 0 -181.5 -75t-68.5 -198v-94
q0 -113 69.5 -183.5t182.5 -70.5z" />
    <glyph glyph-name="q.subs" horiz-adv-x="1015" 
d="M727 -1004v496q-43 -60 -119.5 -96.5t-158.5 -36.5q-172 0 -276.5 125.5t-104.5 329.5q0 201 106 323.5t279 122.5q78 0 154.5 -37.5t127.5 -101.5v115h156v-1240h-164zM727 -133q0 114 -69 184t-183 70q-110 0 -178 -84.5t-68 -222.5q0 -141 68 -227.5t180 -86.5
q113 0 181.5 75.5t68.5 199.5v92z" />
    <glyph glyph-name="r.subs" horiz-adv-x="579" 
d="M262 82q52 101 152 147q63 27 155 27v-170h-30q-117 0 -193 -78t-76 -207v-415h-164v850h156v-154z" />
    <glyph glyph-name="s.subs" horiz-adv-x="821" 
d="M436 -641q-178 0 -275 85t-108 220h162q21 -92 79 -131t150 -39q73 0 113.5 29.5t40.5 87.5q0 23 -11 42t-23 30.5t-40.5 24t-43 17t-50.5 15.5q-49 14 -75 22t-67 23t-63.5 28t-50 33.5t-41.5 42.5t-24.5 52.5t-10.5 66.5q-1 66 26.5 116.5t73.5 79t100.5 42.5t115.5 14
q152 0 235 -77t88 -208h-159q-4 43 -21.5 74.5t-43.5 47.5t-53 23t-57 7q-23 0 -46 -4.5t-48 -15t-40 -34t-15 -55.5q0 -54 45.5 -80.5t161.5 -58.5q8 -2 39.5 -11t42.5 -12.5t39 -13.5t40 -16.5t35 -19.5t33.5 -24.5t26 -29t22 -36.5t12 -43t5.5 -52q0 -262 -320 -262z" />
    <glyph glyph-name="t.subs" horiz-adv-x="557" 
d="M408 -631q-142 0 -201.5 60t-59.5 186v479h-112v123q70 0 94.5 32.5t24.5 110.5v93h155v-217h189v-142h-189v-444q0 -80 32 -109.5t112 -29.5h53v-136q-55 -6 -98 -6z" />
    <glyph glyph-name="u.subs" horiz-adv-x="958" 
d="M379 -641q-144 0 -222.5 89.5t-78.5 268.5v519h164v-502q0 -236 180 -236q110 0 179 74.5t69 202.5v461h164v-850h-164v143q-91 -170 -291 -170z" />
    <glyph glyph-name="v.subs" horiz-adv-x="843" 
d="M389 -326l33 -92h2l31 92l190 562h178l-323 -850h-156l-324 850h179z" />
    <glyph glyph-name="w.subs" horiz-adv-x="1419" 
d="M422 -418h2l199 654h176l198 -654h2l222 654h178l-322 -850h-157l-207 667h-4l-209 -667h-156l-324 850h179z" />
    <glyph glyph-name="x.subs" horiz-adv-x="772" 
d="M569 -614l-182 307l-186 -307h-181l267 426l-267 424h181l180 -316l188 316h185l-271 -424l271 -426h-185z" />
    <glyph glyph-name="y.subs" horiz-adv-x="843" 
d="M199 236l194 -578l29 -80h2l29 80l192 578h178l-297 -775l-157 -465h-162l137 390l-324 850h179z" />
    <glyph glyph-name="z.subs" horiz-adv-x="880" 
d="M53 -614v139l559 571h-551v140h740l2 -140l-559 -571h590v-139h-781z" />
    <glyph glyph-name="a.sups" horiz-adv-x="933" 
d="M352 688q-79 0 -138 22.5t-91.5 60.5t-48 81.5t-15.5 91.5q0 123 97 195q58 43 158.5 64.5t279.5 21.5h47v49q0 170 -184 170q-99 0 -145 -39.5t-48 -93.5h-160q1 38 10.5 73.5t35 72t64 63.5t102 44t143.5 17q170 0 259 -82t89 -282v-521h-152v129h-2
q-44 -60 -125.5 -98.5t-175.5 -38.5zM391 819q114 0 183 56.5t69 111.5v123h-55q-82 0 -142 -6.5t-113.5 -23t-81.5 -50.5t-28 -84q0 -61 42.5 -94t125.5 -33z" />
    <glyph glyph-name="b.sups" horiz-adv-x="989" 
d="M539 1581q172 0 278.5 -122.5t106.5 -323.5q0 -204 -105 -329.5t-274 -125.5q-85 0 -166 36.5t-123 96.5v-106h-158v1228h164v-493q50 65 124 102t153 37zM514 821q110 0 178 84.5t68 222.5q0 141 -68 227.5t-180 86.5q-113 0 -181.5 -75t-68.5 -198v-94
q0 -113 69.5 -183.5t182.5 -70.5z" />
    <glyph glyph-name="c.sups" horiz-adv-x="915" 
d="M473 680q-128 0 -221 61t-138.5 162t-45.5 230q0 202 106.5 325t296.5 123q164 0 267 -90t114 -238h-162q-34 189 -219 189q-116 0 -179 -83.5t-63 -225.5q0 -144 62.5 -229t179.5 -85q86 0 143.5 48t75.5 120h162q-6 -58 -33.5 -111.5t-73 -98t-116.5 -71t-156 -26.5z
" />
    <glyph glyph-name="d.sups" horiz-adv-x="987" 
d="M737 707v106q-42 -60 -122 -96.5t-164 -36.5q-170 0 -274.5 125.5t-104.5 329.5q0 201 106 323.5t279 122.5q80 0 153.5 -37.5t120.5 -101.5v493h164v-1228h-158zM731 1188q0 114 -68 184t-182 70q-112 0 -180 -84.5t-68 -222.5q0 -141 69 -227.5t183 -86.5q110 0 178 76
t68 199v92z" />
    <glyph glyph-name="e.sups" horiz-adv-x="915" 
d="M473 680q-192 0 -298.5 126.5t-106.5 326.5q0 201 106.5 324.5t292.5 123.5q169 0 277 -103t108 -270v-131l-619 -2q11 -118 73 -187t167 -69q82 0 139.5 41.5t77.5 93.5h162q-6 -46 -33.5 -92.5t-73 -88t-117 -67.5t-155.5 -26zM690 1202q0 119 -62.5 179.5t-162.5 60.5
q-99 0 -164 -61.5t-65 -178.5h454z" />
    <glyph glyph-name="f.sups" horiz-adv-x="509" 
d="M35 1556h112v130q0 137 56 206.5t184 69.5q65 0 105 -10v-135q-24 6 -52 6q-68 0 -98.5 -28t-30.5 -89v-150h174v-141h-174v-708h-164v708h-112v141z" />
    <glyph glyph-name="g.sups" horiz-adv-x="972" 
d="M897 766q0 -130 -28 -220.5t-82 -139t-120.5 -69t-156.5 -20.5q-346 0 -404 291h162q19 -76 81 -112.5t153 -36.5q129 0 181 75t52 242v53q-96 -149 -280 -149q-179 0 -280 127t-101 332q0 93 22 171.5t66 140t116 96t166 34.5q197 0 291 -154v129h162v-790zM735 1188
q0 115 -71 184.5t-183 69.5q-122 0 -188 -82.5t-66 -224.5q0 -144 67 -229t189 -85q114 0 183 73t69 202v92z" />
    <glyph glyph-name="h.sups" horiz-adv-x="946" 
d="M262 1427q49 81 125 117.5t158 36.5q144 0 226.5 -93.5t82.5 -246.5v-534h-164v485q0 120 -48.5 185t-141.5 65q-101 0 -169.5 -74.5t-68.5 -200.5v-460h-164v1228h164v-508z" />
    <glyph glyph-name="i.sups" horiz-adv-x="374" 
d="M276 1763h-178v172h178v-172zM270 707h-164v849h164v-849z" />
    <glyph glyph-name="j.sups" horiz-adv-x="393" 
d="M295 1763h-180v172h180v-172zM47 317q-25 0 -51 2.5t-40 5.5l-13 3v139q18 -4 51 -4q68 0 98.5 27.5t30.5 82.5v983h164v-976q0 -263 -240 -263z" />
    <glyph glyph-name="k.sups" horiz-adv-x="784" 
d="M262 707h-164v1228h164v-751l287 372h184l-325 -423l358 -426h-186l-318 372v-372z" />
    <glyph glyph-name="l.sups" horiz-adv-x="360" 
d="M262 707h-164v1228h164v-1228z" />
    <glyph glyph-name="m.sups" horiz-adv-x="1562" 
d="M1153 1581q147 0 225 -88.5t78 -267.5v-518h-164v501q0 234 -180 234q-110 0 -179 -73.5t-69 -201.5v-460h-164v501q0 234 -182 234q-108 0 -177 -73.5t-69 -201.5v-460h-163v849h163v-129q93 154 289 154q206 0 273 -170q115 170 319 170z" />
    <glyph glyph-name="n.sups" horiz-adv-x="970" 
d="M272 1427q49 81 125 117.5t158 36.5q143 0 226 -94t83 -248v-532h-164v485q0 119 -49 184.5t-141 65.5q-101 0 -169.5 -74.5t-68.5 -200.5v-460h-163v849h163v-129z" />
    <glyph glyph-name="o.sups" horiz-adv-x="958" 
d="M481 680q-183 0 -298 129.5t-115 323.5q0 198 114 323t299 125q186 0 298 -124.5t112 -323.5q0 -194 -113 -323.5t-297 -129.5zM479 819q118 0 184 85.5t66 228.5q0 142 -66 225.5t-184 83.5t-184 -83.5t-66 -225.5q0 -143 66 -228.5t184 -85.5z" />
    <glyph glyph-name="p.sups" horiz-adv-x="999" 
d="M549 1581q172 0 277.5 -122.5t105.5 -323.5q0 -204 -104 -329.5t-273 -125.5q-85 0 -162.5 36.5t-120.5 96.5v-496h-163v1239h159v-114q47 64 124 101.5t157 37.5zM524 821q110 0 178 84.5t68 222.5q0 141 -68 227.5t-180 86.5q-113 0 -181.5 -75t-68.5 -198v-94
q0 -113 69.5 -183.5t182.5 -70.5z" />
    <glyph glyph-name="q.sups" horiz-adv-x="1015" 
d="M727 317v496q-43 -60 -119.5 -96.5t-158.5 -36.5q-172 0 -276.5 125.5t-104.5 329.5q0 201 106 323.5t279 122.5q78 0 154.5 -37.5t127.5 -101.5v114h156v-1239h-164zM727 1188q0 114 -69 184t-183 70q-110 0 -178 -84.5t-68 -222.5q0 -141 68 -227.5t180 -86.5
q113 0 181.5 75.5t68.5 199.5v92z" />
    <glyph glyph-name="r.sups" horiz-adv-x="579" 
d="M262 1403q52 101 152 147q63 27 155 27v-170h-30q-117 0 -193 -78t-76 -207v-415h-164v849h156v-153z" />
    <glyph glyph-name="s.sups" horiz-adv-x="821" 
d="M436 680q-178 0 -275 85t-108 220h162q21 -92 79 -131t150 -39q73 0 113.5 29.5t40.5 87.5q0 23 -11 42t-23 30.5t-40.5 24t-43 17t-50.5 15.5q-49 14 -75 22t-67 23t-63.5 28t-50 33.5t-41.5 42.5t-24.5 52.5t-10.5 66.5q-1 66 26.5 116.5t73.5 79t100.5 42.5t115.5 14
q152 0 235 -77t88 -208h-159q-4 43 -21.5 74.5t-43.5 47.5t-53 23t-57 7q-23 0 -46 -4.5t-48 -15t-40 -34t-15 -55.5q0 -54 45.5 -80.5t161.5 -58.5q8 -2 39.5 -11t42.5 -12.5t39 -13.5t40 -16.5t35 -19.5t33.5 -24.5t26 -29t22 -36.5t12 -43t5.5 -52q0 -262 -320 -262z" />
    <glyph glyph-name="t.sups" horiz-adv-x="557" 
d="M408 690q-142 0 -201.5 60t-59.5 186v479h-112v123q70 0 94.5 32.5t24.5 110.5v93h155v-218h189v-141h-189v-444q0 -80 32 -110t112 -30h53v-135q-55 -6 -98 -6z" />
    <glyph glyph-name="u.sups" horiz-adv-x="958" 
d="M379 680q-144 0 -222.5 89.5t-78.5 268.5v518h164v-501q0 -236 180 -236q110 0 179 74.5t69 202.5v460h164v-849h-164v143q-91 -170 -291 -170z" />
    <glyph glyph-name="v.sups" horiz-adv-x="843" 
d="M389 995l33 -92h2l31 92l190 561h178l-323 -849h-156l-324 849h179z" />
    <glyph glyph-name="w.sups" horiz-adv-x="1419" 
d="M422 903h2l199 653h176l198 -653h2l222 653h178l-322 -849h-157l-207 667h-4l-209 -667h-156l-324 849h179z" />
    <glyph glyph-name="x.sups" horiz-adv-x="772" 
d="M569 707l-182 307l-186 -307h-181l267 426l-267 423h181l180 -315l188 315h185l-271 -423l271 -426h-185z" />
    <glyph glyph-name="y.sups" horiz-adv-x="843" 
d="M199 1556l194 -577l29 -80h2l29 80l192 577h178l-297 -774l-157 -465h-162l137 390l-324 849h179z" />
    <glyph glyph-name="z.sups" horiz-adv-x="880" 
d="M53 707v139l559 571h-551v139h740l2 -139l-559 -571h590v-139h-781z" />
    <glyph glyph-name="zero.lf" horiz-adv-x="1501" 
d="M754 -33q-134 0 -242.5 44t-181 119t-121.5 179.5t-70.5 221t-21.5 247.5t21.5 247.5t70.5 221t121.5 179.5t181 119t242.5 44t241.5 -44t179 -119t119.5 -179.5t69 -221t21 -247.5t-21 -247.5t-69 -221t-119.5 -179.5t-179 -119t-241.5 -44zM750 137q95 0 172 33.5
t130 92t89 140t52.5 175t16.5 200.5t-16.5 200.5t-52.5 175t-89 140t-130 92t-172 33.5q-94 0 -171 -33.5t-130 -92t-89 -140t-52.5 -175.5t-16.5 -200t16.5 -200t52.5 -175.5t89 -140t130 -92t171 -33.5z" />
    <glyph glyph-name="one.lf" horiz-adv-x="1501" 
d="M117 0v174h547v1208h-490v174h666v-1382h544v-174h-1267z" />
    <glyph glyph-name="two.lf" horiz-adv-x="1501" 
d="M203 172q262 161 387 249t233 177q83 68 133 115t101 109.5t74.5 128.5t23.5 141q0 148 -107 240.5t-309 92.5q-119 0 -208.5 -35t-141 -96.5t-76 -137.5t-24.5 -165q0 -97 22 -168h-174q-20 78 -20 178q0 127 34.5 230.5t105.5 185t193.5 127t286.5 45.5
q291 0 441.5 -137t150.5 -369q0 -72 -16 -136.5t-57.5 -142t-124.5 -164.5t-207 -183q-185 -143 -418 -285h878v-174h-1181v174z" />
    <glyph glyph-name="three.lf" horiz-adv-x="1515" 
d="M662 -33q-243 0 -402.5 92.5t-204.5 268.5h183q71 -195 424 -195q132 0 229.5 26t152.5 73t81 105.5t26 129.5q0 177 -153.5 261.5t-471.5 84.5h-123v166l590 399h-803v178h1047v-194l-616 -404h16q324 0 506 -127.5t182 -349.5q0 -76 -21 -147t-71 -139t-124.5 -117.5
t-189.5 -80t-257 -30.5z" />
    <glyph glyph-name="four.lf" horiz-adv-x="1515" 
d="M973 0h-174v354h-744v195l631 1007h191l-631 -1028h553v406h174v-406h352v-174h-352v-354z" />
    <glyph glyph-name="five.lf" horiz-adv-x="1515" 
d="M651 -33q-265 0 -421.5 93t-174.5 247h189q12 -80 124.5 -127t276.5 -47q110 0 197.5 23.5t144 62.5t94 93t53 111t15.5 120q0 82 -28 153.5t-82 128t-142.5 89t-200.5 32.5q-108 0 -196.5 -31.5t-144 -80t-91.5 -113.5h-205l238 835h825v-178h-714l-119 -426
q65 88 164.5 126t238.5 38q131 0 237.5 -29.5t179.5 -82t122 -125.5t71.5 -157t22.5 -181q0 -95 -22 -178t-73 -156.5t-127.5 -126t-191.5 -83t-260 -30.5z" />
    <glyph glyph-name="six.lf" horiz-adv-x="1515" 
d="M705 -33q-147 0 -265 47t-204.5 140.5t-133.5 241t-47 339.5q0 183 43 337t125.5 270t213 181.5t296.5 65.5q210 0 350.5 -99.5t159.5 -262.5h-190q-10 91 -99.5 145.5t-224.5 54.5q-109 0 -194 -38.5t-142 -109.5t-91.5 -164t-49.5 -210q79 97 209 156t282 59
q254 0 418 -159.5t164 -415.5q0 -260 -169.5 -419t-450.5 -159zM707 133q201 0 324.5 114.5t123.5 297.5t-123.5 294t-324.5 111q-200 0 -321.5 -110.5t-121.5 -294.5q0 -185 122 -298.5t321 -113.5z" />
    <glyph glyph-name="seven.lf" horiz-adv-x="1515" 
d="M55 1556h1270v-172l-733 -1384h-195l723 1382h-1065v174z" />
    <glyph glyph-name="eight.lf" horiz-adv-x="1515" 
d="M692 -33q-138 0 -249 28t-182 74.5t-118.5 109t-67.5 128t-20 135.5q0 129 69 232t214 160q-209 111 -209 329q0 85 32 159t96.5 135t176 96.5t258.5 35.5t258.5 -35.5t176 -96.5t95.5 -135t31 -159q0 -218 -209 -329q143 -58 212 -158.5t69 -231.5q0 -71 -19.5 -137
t-67 -129t-118 -109t-180.5 -74t-248 -28zM690 905q105 0 182 22.5t119.5 60.5t62 82t19.5 95t-19.5 95t-62 82t-119.5 60.5t-182 22.5t-182 -22.5t-119.5 -60.5t-62 -82t-19.5 -95t19.5 -95t62 -82t119.5 -60.5t182 -22.5zM690 125q87 0 159 13.5t120.5 38t84.5 54.5
t55.5 66.5t28.5 71.5t9 71q0 44 -12.5 84t-45 79t-82.5 67t-131.5 45.5t-185.5 17.5t-185.5 -17.5t-131.5 -45.5t-82.5 -67t-45 -79t-12.5 -84q0 -36 9 -71t28.5 -71.5t55.5 -66.5t84.5 -54.5t120.5 -38t159 -13.5z" />
    <glyph glyph-name="nine.lf" horiz-adv-x="1515" 
d="M623 -33q-223 0 -374 96.5t-171 255.5h192q12 -86 119.5 -138t247.5 -52q229 0 361.5 146.5t140.5 392.5q-76 -99 -213.5 -159t-294.5 -60q-257 0 -418.5 157.5t-161.5 411.5q0 258 168 414.5t445 156.5q150 0 271 -49t208 -143.5t134.5 -239.5t47.5 -330
q0 -257 -88 -452.5t-247.5 -301.5t-366.5 -106zM668 618q203 0 331.5 111.5t128.5 290.5q0 181 -128.5 292t-333.5 111q-202 0 -321.5 -110.5t-119.5 -292.5q0 -181 120 -291.5t323 -110.5z" />
    <glyph glyph-name="zero.osf" horiz-adv-x="1347" 
d="M678 -33q-255 0 -410 166t-155 440q0 292 154.5 470t406.5 178t406.5 -178t154.5 -470q0 -273 -153 -439.5t-404 -166.5zM672 111q177 0 284 126.5t107 333.5q0 227 -107 367.5t-282 140.5t-282 -140.5t-107 -367.5q0 -207 106 -333.5t281 -126.5z" />
    <glyph glyph-name="one.osf" horiz-adv-x="894" 
d="M100 0v174h277v840l-248 -152v193l248 164h166v-1045h286v-174h-729z" />
    <glyph glyph-name="two.osf" horiz-adv-x="1230" 
d="M178 184q74 45 199 116t210 123t148 99q93 71 139 140.5t46 152.5q0 47 -15 88.5t-48 79t-95.5 59t-147.5 21.5q-331 0 -331 -336h-168q0 220 126 357t369 137q115 0 207.5 -33t149.5 -89t87.5 -128t30.5 -152q0 -117 -61 -212.5t-176 -184.5q-109 -86 -381 -238h659
v-184h-948v184z" />
    <glyph glyph-name="three.osf" horiz-adv-x="1132" 
d="M264 -211q305 0 451.5 83.5t146.5 272.5q0 163 -122.5 238.5t-385.5 75.5h-106v145l510 461h-699v156h914v-154l-510 -459v-4q265 0 418 -119t153 -350q0 -83 -22 -154t-75 -136.5t-133.5 -111.5t-206 -73t-284.5 -27h-196v156h147z" />
    <glyph glyph-name="four.osf" horiz-adv-x="1183" 
d="M961 -362h-177v362h-712v184l698 1037h191v-1043h151v-178h-151v-362zM254 178h530v793z" />
    <glyph glyph-name="five.osf" horiz-adv-x="1298" 
d="M623 -369q-219 0 -375.5 96.5t-171.5 249.5h190q7 -55 64.5 -96.5t135 -61.5t157.5 -20q127 0 220 57.5t137 146.5t44 194q0 164 -106.5 271t-272.5 107q-115 0 -201 -56t-131 -167h-213l230 869h739v-177h-606l-115 -419q56 53 145 85.5t193 32.5q152 0 270 -72.5
t181 -197.5t63 -280q0 -88 -20.5 -168t-65.5 -152.5t-111 -126t-163.5 -84.5t-216.5 -31z" />
    <glyph glyph-name="six.osf" horiz-adv-x="1406" 
d="M735 -33q-296 0 -449 204t-153 564q0 138 22 261.5t71.5 233t122 188.5t180 125t239.5 46q97 0 181 -34t138.5 -88.5t88 -117t41.5 -124.5h-193q-15 96 -90.5 149t-183.5 53q-182 0 -293.5 -151t-147.5 -418q53 80 139.5 130.5t165 67.5t160.5 17q122 0 222.5 -42.5
t166.5 -116.5t101.5 -172.5t35.5 -211.5q0 -89 -21 -170.5t-66.5 -153.5t-111 -125t-159.5 -83.5t-207 -30.5zM735 133q77 0 142.5 24t110.5 64t76.5 92t46.5 107t15 110q0 70 -24.5 135.5t-71 119t-123 86t-172.5 32.5q-94 0 -170 -32t-122.5 -85t-71.5 -118t-25 -136
q0 -70 24.5 -139t70.5 -128t122.5 -95.5t171.5 -36.5z" />
    <glyph glyph-name="seven.osf" horiz-adv-x="1056" 
d="M63 1223h918v-174l-629 -1383h-188l635 1383h-736v174z" />
    <glyph glyph-name="eight.osf" horiz-adv-x="1427" 
d="M653 -37q-128 0 -232.5 29t-172.5 76t-114.5 110t-66.5 129t-20 135q0 282 287 389q-213 124 -213 318q0 64 19.5 125t62 117t103.5 98.5t150.5 68t196.5 25.5q110 0 201 -25t151 -66.5t101.5 -97t59.5 -114t18 -119.5q0 -205 -213 -330q284 -107 284 -389
q0 -69 -19.5 -135t-64.5 -129t-112.5 -110t-172 -76t-233.5 -29zM651 903q180 0 263 71.5t83 182.5q0 52 -18.5 97t-57 83t-108 60t-162.5 22t-163 -22t-110 -60t-59.5 -83.5t-19.5 -96.5q0 -110 85.5 -182t266.5 -72zM651 125q96 0 172 19.5t122.5 50t78 71.5t43.5 81.5
t12 82.5q0 46 -12 87t-43 81.5t-78 69.5t-122.5 47t-172.5 18q-118 0 -204 -24t-134 -67t-70 -95.5t-22 -116.5q0 -42 12 -82.5t43.5 -81.5t78.5 -71.5t123.5 -50t172.5 -19.5z" />
    <glyph glyph-name="nine.osf" horiz-adv-x="1392" 
d="M647 -369q-121 0 -218.5 34t-157 88.5t-93 115.5t-41.5 123h191q13 -87 113 -143t229 -56q378 0 395 510q-169 -223 -440 -223q-118 0 -215.5 46t-160.5 124.5t-97.5 181.5t-34.5 219q0 118 35.5 220t104 180.5t178 124t247.5 45.5q571 0 571 -787q0 -88 -6.5 -165.5
t-24.5 -160.5t-46.5 -151t-76 -130t-109.5 -104t-149.5 -67t-193.5 -25zM668 250q91 0 166 34.5t121.5 91.5t72 128t25.5 147t-25.5 147.5t-72 129t-121.5 92.5t-166 35q-92 0 -165.5 -35t-118.5 -93t-69 -129t-24 -147t24 -146.5t69 -128t118.5 -92t165.5 -34.5z" />
    <glyph glyph-name="zero.ss01" horiz-adv-x="1501" 
d="M754 -33q-133 0 -240.5 43.5t-180.5 118t-122.5 178.5t-71.5 221.5t-22 249.5t22 249.5t71.5 221.5t122.5 178.5t180.5 118t240.5 43.5q132 0 239 -43.5t179 -118t120.5 -178.5t70 -221.5t21.5 -249.5t-21.5 -249.5t-70 -221.5t-120.5 -178.5t-179 -118t-239 -43.5z
M750 147q117 0 207.5 49.5t145.5 137.5t83 200t28 244t-28 244t-83 200t-145.5 137.5t-207.5 49.5q-93 0 -170 -32.5t-131 -90.5t-90.5 -137.5t-54 -172.5t-17.5 -198t17.5 -198t54 -172.5t90.5 -137.5t131 -90.5t170 -32.5z" />
    <glyph glyph-name="one.ss01" horiz-adv-x="745" 
d="M117 1270l340 286h174v-1556h-174v1354l-340 -295v211z" />
    <glyph glyph-name="two.ss01" horiz-adv-x="1468" 
d="M565 436q-257 51 -383.5 204.5t-126.5 375.5q0 118 36 219.5t107.5 181.5t191 126t274.5 46t275 -45.5t192.5 -126t109.5 -184t37 -225.5q0 -80 -16.5 -148t-55.5 -137.5t-110.5 -135.5t-175.5 -128l-494 -287h850v-174h-1129v174zM672 604q88 0 160.5 22.5t122 61.5
t84 91t50 111t15.5 122q0 64 -15.5 122.5t-50 111.5t-84.5 92t-124 62t-164 23q-111 0 -197 -35t-137 -93.5t-77 -129t-26 -147.5q0 -61 15.5 -119.5t50.5 -112t85.5 -94t125.5 -64.5t166 -24z" />
    <glyph glyph-name="three.ss01" horiz-adv-x="1445" 
d="M723 -33q-123 0 -223 29t-171 81.5t-119 127.5t-70.5 166t-22.5 198q0 184 79 317t279 238l506 258h-864v174h1134l-2 -174l-420 -254q123 0 220 -46.5t157.5 -126t91.5 -181.5t31 -219q0 -125 -35.5 -230t-107 -186t-190 -126.5t-273.5 -45.5zM723 131q112 0 198 34.5
t137.5 95t77 136.5t25.5 164t-25.5 163t-77 133.5t-137.5 92t-198 33.5t-197 -33.5t-136.5 -92t-77 -133.5t-25.5 -163t25.5 -164t76.5 -136.5t137 -95t197 -34.5z" />
    <glyph glyph-name="four.ss01" horiz-adv-x="1378" 
d="M1110 0h-176v354h-817v195l796 1007h197v-1028h154v-174h-154v-354zM305 528h629v791z" />
    <glyph glyph-name="five.ss01" horiz-adv-x="1447" 
d="M727 -33q-125 0 -227.5 30t-172.5 83t-118 126t-70 157.5t-22 179.5q0 84 22 209q4 19 164 804h827v-174h-688l-82 -395q140 131 377 131q154 0 271 -46t186.5 -127t104 -182t34.5 -220t-35.5 -221t-107 -182.5t-190 -126.5t-273.5 -46zM723 131q112 0 198.5 35t137.5 94
t76.5 131t25.5 152t-25.5 151t-76.5 129.5t-137.5 92.5t-198.5 34q-111 0 -197 -34t-137 -92.5t-76.5 -129.5t-25.5 -151t25.5 -152t76.5 -131t137 -94t197 -35z" />
    <glyph glyph-name="six.ss01" horiz-adv-x="1449" 
d="M731 -33q-290 0 -452 157t-162 415q0 115 45.5 229.5t155.5 281.5t346 482l18 24h221l-379 -499q124 57 258 57q112 0 210.5 -35.5t175.5 -103t122 -176.5t45 -246q0 -122 -36 -226t-107 -185.5t-189.5 -128t-271.5 -46.5zM721 131q112 0 199 35t138.5 94t78 131
t26.5 152t-26.5 151.5t-78 129.5t-137 92t-194.5 34q-201 0 -319.5 -110.5t-118.5 -294.5q0 -81 25 -153t75 -131.5t135.5 -94.5t196.5 -35z" />
    <glyph glyph-name="seven.ss01" horiz-adv-x="1193" 
d="M264 0q21 132 65 274t97.5 269t132 278.5t150 275t170.5 285.5h-762v174h960v-188q-253 -397 -409 -729.5t-205 -638.5h-199z" />
    <glyph glyph-name="nine.ss01" horiz-adv-x="1447" 
d="M1087 573q-79 -77 -159.5 -105t-190.5 -28q-131 0 -236.5 30.5t-176 83.5t-118 126.5t-68.5 156.5t-21 177q0 119 35 220.5t106 182t190 126.5t275 46q155 0 274 -45.5t191.5 -125.5t108.5 -182t36 -222q0 -76 -26 -223l-164 -791h-924v180h787zM725 606q90 0 164 22.5
t124 61.5t84.5 91.5t50 110.5t15.5 122t-15.5 122.5t-50 111.5t-84.5 92t-124 62t-164 23q-89 0 -163 -23t-123.5 -62t-84 -92t-50 -111.5t-15.5 -122.5t15.5 -122t50 -110.5t84.5 -91.5t123.5 -61.5t162.5 -22.5z" />
    <glyph glyph-name="zero.tf" horiz-adv-x="1505" 
d="M756 -33q-134 0 -242.5 44t-181 119t-121.5 179.5t-70.5 221t-21.5 247.5t21.5 247.5t70.5 221t121.5 179.5t181 119t242.5 44t241.5 -44t179 -119t119.5 -179.5t69 -221t21 -247.5t-21 -247.5t-69 -221t-119.5 -179.5t-179 -119t-241.5 -44zM752 137q95 0 172 33.5
t130 92t89 140t52.5 175t16.5 200.5t-16.5 200.5t-52.5 175t-89 140t-130 92t-172 33.5q-94 0 -171 -33.5t-130 -92t-89 -140t-52.5 -175.5t-16.5 -200t16.5 -200t52.5 -175.5t89 -140t130 -92t171 -33.5z" />
    <glyph glyph-name="one.tf" horiz-adv-x="1505" 
d="M119 0v174h547v1208h-490v174h666v-1382h544v-174h-1267z" />
    <glyph glyph-name="two.tf" horiz-adv-x="1505" 
d="M205 172q262 161 387 249t233 177q83 68 133 115t101 109.5t74.5 128.5t23.5 141q0 148 -107 240.5t-309 92.5q-119 0 -208.5 -35t-141 -96.5t-76 -137.5t-24.5 -165q0 -97 22 -168h-174q-20 78 -20 178q0 127 34.5 230.5t105.5 185t193.5 127t286.5 45.5
q291 0 441.5 -137t150.5 -369q0 -72 -16 -136.5t-57.5 -142t-124.5 -164.5t-207 -183q-185 -143 -418 -285h878v-174h-1181v174z" />
    </font>
</defs>
</svg>
